<?xml version="1.0" encoding="iso-8859-1" standalone="no"?> 
<?xml-stylesheet href="SVGOut.css" type="text/css"?> 
<svg xmlns="http://www.w3.org/2000/svg" xmlns:xlink="http://www.w3.org/1999/xlink" width="184.41795pt" height="165.77759pt" viewBox="-38.64357 -26.61574 184.41795 165.77759 "> 
<g transform="translate(0,139.16185 ) scale(1,-1) translate(0,26.61574 )"> 
       <g stroke="#000" fill="#000">
 <g stroke-width="0.4">
 <g stroke-width="0.2">
 <g stroke="#808080" fill="#808080">
 <path d=" M 0.0 -2.13382 L 0.0 2.13382 M 34.98535 -2.13382 L 34.98535 2.13382 M 69.9707 -2.13382 L 69.9707 2.13382 M 104.95605 -2.13382 L 104.95605 2.13382 M 139.9414 -2.13382 L 139.9414 2.13382  " fill="none"/>
 </g>
 </g>
 <g stroke-width="0.2">
 <g stroke="#808080" fill="#808080">
 <path d=" M -2.13397 0.0 L 2.13397 0.0 M -2.13397 38.17139 L 2.13397 38.17139 M -2.13397 76.34277 L 2.13397 76.34277 M -2.13397 114.51416 L 2.13397 114.51416  " fill="none"/>
 </g>
 </g>
 <path d=" M 0.0 0.0 L 137.94206 0.0  " fill="none"/>
 <g transform="translate(137.94206,0.0)">
 <path d=" M 1.99997 0.0 L -1.19998 1.59998 L 0.0 0.0 L -1.19998 -1.59998  " stroke="none"/>
  </g>
 <path d=" M 0.0 0.0 L 0.0 112.51419  " fill="none"/>
 <g transform="matrix(0.0,1.0,-1.0,0.0,0.0,112.51419)">
 <path d=" M 1.99997 0.0 L -1.19998 1.59998 L 0.0 0.0 L -1.19998 -1.59998  " stroke="none"/>
  </g>
 <g transform="translate(-2.5,-12.11122)">
 <g fill="#000">
 <text style="stroke:none" transform="scale(1,-1) translate(2.5,0)" text-anchor="middle"  font-size="10"> 
<g fill="#000">
 <g stroke="none"> 0</g> </g>
 </text> 
</g>
 </g>
 <g transform="translate(32.48535,-12.11122)">
 <g fill="#000">
 <text style="stroke:none" transform="scale(1,-1) translate(2.5,0)" text-anchor="middle"  font-size="10"> 
<g fill="#000">
 <g stroke="none"> 1</g> </g>
 </text> 
</g>
 </g>
 <g transform="translate(67.4707,-12.11122)">
 <g fill="#000">
 <text style="stroke:none" transform="scale(1,-1) translate(2.5,0)" text-anchor="middle"  font-size="10"> 
<g fill="#000">
 <g stroke="none"> 2</g> </g>
 </text> 
</g>
 </g>
 <g transform="translate(102.45605,-12.11122)">
 <g fill="#000">
 <text style="stroke:none" transform="scale(1,-1) translate(2.5,0)" text-anchor="middle"  font-size="10"> 
<g fill="#000">
 <g stroke="none"> 3</g> </g>
 </text> 
</g>
 </g>
 <g transform="translate(137.4414,-12.11122)">
 <g fill="#000">
 <text style="stroke:none" transform="scale(1,-1) translate(2.5,0)" text-anchor="middle"  font-size="10"> 
<g fill="#000">
 <g stroke="none"> 4</g> </g>
 </text> 
</g>
 </g>
 <g transform="translate(-10.66695,-3.22221)">
 <g fill="#000">
 <text style="stroke:none" transform="scale(1,-1) translate(2.5,0)" text-anchor="middle"  font-size="10"> 
<g fill="#000">
 <g stroke="none"> 0</g> </g>
 </text> 
</g>
 </g>
 <g transform="translate(-18.44475,34.94917)">
 <g fill="#000">
 <text style="stroke:none" transform="scale(1,-1) translate(6.3889,0)" text-anchor="middle"  font-size="10"> 
<g fill="#000">
 <g stroke="none"> 0<tspan font-family="cmmi" font-size="10">.</tspan>2</g> </g>
 </text> 
</g>
 </g>
 <g transform="translate(-18.44475,73.12056)">
 <g fill="#000">
 <text style="stroke:none" transform="scale(1,-1) translate(6.3889,0)" text-anchor="middle"  font-size="10"> 
<g fill="#000">
 <g stroke="none"> 0<tspan font-family="cmmi" font-size="10">.</tspan>4</g> </g>
 </text> 
</g>
 </g>
 <g transform="translate(-18.44475,111.29195)">
 <g fill="#000">
 <text style="stroke:none" transform="scale(1,-1) translate(6.3889,0)" text-anchor="middle"  font-size="10"> 
<g fill="#000">
 <g stroke="none"> 0<tspan font-family="cmmi" font-size="10">.</tspan>6</g> </g>
 </text> 
</g>
 </g>
 <clipPath id="pgfcp1"><path d=" M 0.0 0.0 L 139.94203 0.0 L 139.94203 114.51416 L 0.0 114.51416 Z  "/> </clipPath>
 <g clip-path="url(#pgfcp1)">
 <g stroke="#00f" fill="#00f">
 <g stroke-width="1.2">
 <g fill="#00f">
 <path d=" M 0.0 0.0 L 0.70322 3.83475 L 1.40645 7.66028 L 2.10968 11.46729 L 2.8129 15.24673 L 3.51613 18.98949 L 4.21936 22.68791 L 4.92258 26.3331 L 5.62581 29.91682 L 6.32904 33.43279 L 7.03226 36.87355 L 7.73549 40.23302 L 8.43872 43.50449 L 9.14194 46.68436 L 9.84517 49.76727 L 10.5484 52.7498 L 11.25162 55.62773 L 11.95485 58.39859 L 12.65807 61.06085 L 13.3613 63.61223 L 14.06453 66.05176 L 14.76775 68.37946 L 15.47098 70.59454 L 16.17421 72.69778 L 16.87743 74.68976 L 17.58066 76.57217 L 18.28389 78.34637 L 18.9871 80.0137 L 19.69034 81.57701 L 20.39357 83.03764 L 21.09679 84.39941 L 21.80002 85.6648 L 22.50325 86.83607 L 23.20647 87.91652 L 23.9097 88.90916 L 24.61292 89.81726 L 25.31615 90.64424 L 26.01938 91.39297 L 26.7226 92.06651 L 27.42583 92.66885 L 28.12906 93.2023 L 28.83228 93.67029 L 29.5355 94.07623 L 30.23874 94.42322 L 30.94196 94.71313 L 31.64519 94.9496 L 32.34842 95.13606 L 33.05164 95.27405 L 33.75487 95.36739 L 34.4581 95.41739 L 35.16132 95.42464 L 35.86455 95.39983 L 36.56778 95.33495 L 37.271 95.23761 L 37.97423 95.10782 L 38.67746 94.95132 L 39.38068 94.76428 L 40.08391 94.55052 L 40.78714 94.31577 L 41.49036 94.0562 L 42.19359 93.77754 L 42.89682 93.47981 L 43.60004 93.163 L 44.30327 92.82707 L 45.0065 92.47781 L 45.70972 92.11519 L 46.41295 91.7392 L 47.11618 91.35176 L 47.8194 90.95287 L 48.52263 90.54253 L 49.22586 90.12263 L 49.92908 89.69511 L 50.63231 89.25996 L 51.33554 88.81717 L 52.03876 88.36867 L 52.74199 87.91824 L 53.44522 87.45827 L 54.14844 86.9983 L 54.85167 86.53072 L 55.5549 86.06311 L 56.25812 85.58788 L 56.96135 85.11646 L 57.66458 84.64122 L 58.3678 84.16026 L 59.07103 83.68312 L 59.77425 83.20216 L 60.47748 82.72502 L 61.18071 82.24406 L 61.88393 81.7631 L 62.58716 81.28596 L 63.29039 80.80882 L 63.9936 80.33168 L 64.69684 79.85645 L 65.40007 79.38121 L 66.10329 78.90979 L 66.80652 78.43837 L 67.50975 77.96696 L 68.21297 77.50127 L 68.9162 77.03558 L 69.61943 76.5718 L 70.32265 76.11374 L 71.02592 75.65569 L 71.72908 75.19954 L 72.43234 74.74911 L 73.13551 74.29678 L 73.83878 73.85208 L 74.54205 73.40547 L 75.24522 72.9665 L 75.94849 72.52563 L 76.65164 72.09238 L 77.35492 71.66104 L 78.05818 71.23352 L 78.76135 70.806 L 79.46461 70.38612 L 80.16779 69.96814 L 80.87105 69.55017 L 81.57431 69.136 L 82.27748 68.72757 L 82.98074 68.32104 L 83.68391 67.92024 L 84.38719 67.52136 L 85.09045 67.12437 L 85.79361 66.73122 L 86.49689 66.34377 L 87.20004 65.95633 L 87.90332 65.57271 L 88.60658 65.1929 L 89.30975 64.81691 L 90.01302 64.44475 L 90.71617 64.07448 L 91.41945 63.70804 L 92.12271 63.34541 L 92.82588 62.9866 L 93.52914 62.62779 L 94.23232 62.27661 L 94.93558 61.92352 L 95.63885 61.57617 L 96.34201 61.23262 L 97.04529 60.8929 L 97.74844 60.55508 L 98.45172 60.21536 L 99.15498 59.88518 L 99.85814 59.555 L 100.56142 59.22862 L 101.26457 58.90608 L 101.96785 58.58543 L 102.67111 58.26862 L 103.37428 57.9537 L 104.07755 57.64261 L 104.78072 57.33342 L 105.48398 57.02728 L 106.18726 56.72382 L 106.89041 56.42322 L 107.59367 56.1251 L 108.29684 55.82985 L 109.0001 55.53706 L 109.70338 55.24696 L 110.40654 54.95953 L 111.10982 54.67459 L 111.81297 54.3923 L 112.51625 54.1127 L 113.21951 53.83539 L 113.92268 53.56018 L 114.62595 53.28763 L 115.32912 53.01776 L 116.03238 52.75037 L 116.73564 52.48508 L 117.43881 52.22226 L 118.14207 51.96175 L 118.84525 51.70332 L 119.54851 51.44739 L 120.25179 51.19354 L 120.95494 50.9418 L 121.6582 50.69255 L 122.36137 50.44539 L 123.06465 50.20033 L 123.76791 49.95757 L 124.47108 49.71669 L 125.17435 49.47774 L 125.8775 49.24147 L 126.58078 49.0069 L 127.28404 48.77425 L 127.98721 48.54369 L 128.69048 48.31467 L 129.39365 48.08812 L 130.09691 47.86328 L 130.80017 47.64017 L 131.50334 47.41954 L 132.20662 47.20044 L 132.90977 46.98325 L 133.61305 46.76758 L 134.31631 46.55382 L 135.01947 46.34235 L 135.72275 46.13202 L 136.4259 45.92342 L 137.12918 45.7171 L 137.83244 45.51193 L 138.53561 45.30867 L 139.23888 45.10712 L 139.94203 44.90749 L 139.94203 0.0 L 0.0 0.0 Z  " />
 </g>
 </g>
 </g>
 </g>
 <g transform="translate(67.11337,-23.28276)">
 <g fill="#000">
 <text style="stroke:none" transform="scale(1,-1) translate(2.85764,0)" text-anchor="middle"  font-size="10"> 
<g fill="#000">
 <g stroke="none"> <tspan font-family="cmmi" font-size="10">x</tspan> </g> </g>
 </text> 
</g>
 </g>
 <g transform="matrix(0.0,1.0,-1.0,0.0,-27.8106,47.52441)">
 <g fill="#000">
 <text style="stroke:none" transform="scale(1,-1) translate(9.73267,0)" text-anchor="middle"  font-size="10"> 
<g fill="#000">
 <g stroke="none"> <tspan font-family="cmmi" font-size="10">f</tspan>(<tspan font-family="cmmi" font-size="10">x</tspan>)</g> </g>
 </text> 
</g>
 </g>
 <g transform="translate(43.09044,128.32887)">
 <g fill="#000">
 <text style="stroke:none" transform="scale(1,-1) translate(26.88057,0)" text-anchor="middle"  font-size="10"> 
<g fill="#000">
 <g stroke="none"> <tspan font-family="cmmi" font-size="10">f</tspan>(<tspan font-family="cmmi" font-size="10">x</tspan>) = <img 
src="Images/SVGOut0x.png" alt=" x
1+x2"  class="frac" align="middle"></g> </g>
 </text> 
</g>
 </g>
 </g>
 </g>
 
                                   </g> 
</svg> 
