<?xml version="1.0" encoding="iso-8859-1" standalone="no"?> 
<?xml-stylesheet href="SVGOut.css" type="text/css"?> 
<svg xmlns="http://www.w3.org/2000/svg" xmlns:xlink="http://www.w3.org/1999/xlink" width="178.78627pt" height="165.77759pt" viewBox="-38.64357 -26.61574 178.78627 165.77759 "> 
<g transform="translate(0,139.16185 ) scale(1,-1) translate(0,26.61574 )"> 
       <g stroke="#000" fill="#000">
 <g stroke-width="0.4">
 <g stroke-width="0.2">
 <g stroke="#808080" fill="#808080">
 <path d=" M 0.0 -2.13382 L 0.0 2.13382 M 47.04132 -2.13382 L 47.04132 2.13382 M 94.08264 -2.13382 L 94.08264 2.13382  " fill="none"/>
 </g>
 </g>
 <g stroke-width="0.2">
 <g stroke="#808080" fill="#808080">
 <path d=" M -2.13367 0.0 L 2.13367 0.0 M -2.13367 38.17139 L 2.13367 38.17139 M -2.13367 76.34277 L 2.13367 76.34277 M -2.13367 114.51416 L 2.13367 114.51416  " fill="none"/>
 </g>
 </g>
 <path d=" M 0.0 0.0 L 137.94273 0.0  " fill="none"/>
 <g transform="translate(137.94273,0.0)">
 <path d=" M 1.99997 0.0 L -1.19998 1.59998 L 0.0 0.0 L -1.19998 -1.59998  " stroke="none"/>
  </g>
 <path d=" M 0.0 0.0 L 0.0 112.51419  " fill="none"/>
 <g transform="matrix(0.0,1.0,-1.0,0.0,0.0,112.51419)">
 <path d=" M 1.99997 0.0 L -1.19998 1.59998 L 0.0 0.0 L -1.19998 -1.59998  " stroke="none"/>
  </g>
 <g transform="translate(-2.5,-12.11122)">
 <g fill="#000">
 <text style="stroke:none" transform="scale(1,-1) translate(2.5,0)" text-anchor="middle"  font-size="10"> 
<g fill="#000">
 <g stroke="none"> 0</g> </g>
 </text> 
</g>
 </g>
 <g transform="translate(40.65242,-12.11122)">
 <g fill="#000">
 <text style="stroke:none" transform="scale(1,-1) translate(6.3889,0)" text-anchor="middle"  font-size="10"> 
<g fill="#000">
 <g stroke="none"> 0<tspan font-family="cmmi" font-size="10">.</tspan>5</g> </g>
 </text> 
</g>
 </g>
 <g transform="translate(91.58264,-12.11122)">
 <g fill="#000">
 <text style="stroke:none" transform="scale(1,-1) translate(2.5,0)" text-anchor="middle"  font-size="10"> 
<g fill="#000">
 <g stroke="none"> 1 </g> </g>
 </text> 
</g>
 </g>
 <g transform="translate(-10.66664,-3.22221)">
 <g fill="#000">
 <text style="stroke:none" transform="scale(1,-1) translate(2.5,0)" text-anchor="middle"  font-size="10"> 
<g fill="#000">
 <g stroke="none"> 0 </g> </g>
 </text> 
</g>
 </g>
 <g transform="translate(-18.44444,34.94917)">
 <g fill="#000">
 <text style="stroke:none" transform="scale(1,-1) translate(6.3889,0)" text-anchor="middle"  font-size="10"> 
<g fill="#000">
 <g stroke="none"> 0<tspan font-family="cmmi" font-size="10">.</tspan>2</g> </g>
 </text> 
</g>
 </g>
 <g transform="translate(-18.44444,73.12056)">
 <g fill="#000">
 <text style="stroke:none" transform="scale(1,-1) translate(6.3889,0)" text-anchor="middle"  font-size="10"> 
<g fill="#000">
 <g stroke="none"> 0<tspan font-family="cmmi" font-size="10">.</tspan>4</g> </g>
 </text> 
</g>
 </g>
 <g transform="translate(-18.44444,111.29195)">
 <g fill="#000">
 <text style="stroke:none" transform="scale(1,-1) translate(6.3889,0)" text-anchor="middle"  font-size="10"> 
<g fill="#000">
 <g stroke="none"> 0<tspan font-family="cmmi" font-size="10">.</tspan>6</g> </g>
 </text> 
</g>
 </g>
 <clipPath id="pgfcp1"><path d=" M 0.0 0.0 L 139.9427 0.0 L 139.9427 114.51416 L 0.0 114.51416 Z  "/> </clipPath>
 <g clip-path="url(#pgfcp1)">
 <g stroke="#00f" fill="#00f">
 <g stroke-width="1.2">
 <g fill="#00f">
 <path d=" M 0.0 0.0 L 1.89111 3.76071 L 3.78223 7.37614 L 5.67334 10.85446 L 7.56445 14.20334 L 9.45558 17.42981 L 11.3467 20.54059 L 13.23781 23.54163 L 15.12892 26.43903 L 17.02005 29.23775 L 18.91116 31.94276 L 20.80228 34.55865 L 22.6934 37.0898 L 24.58452 39.5402 L 26.47563 41.9137 L 28.36676 44.21391 L 30.25787 46.44426 L 32.14899 48.60762 L 34.0401 50.70743 L 35.93123 52.74597 L 37.82234 54.72612 L 39.71346 56.65015 L 41.60458 58.52074 L 43.4957 60.3396 L 45.38681 62.10942 L 47.27794 63.83171 L 49.16905 65.50858 L 51.06017 67.14212 L 52.95128 68.73311 L 54.8424 70.28421 L 56.73352 71.79579 L 58.62463 73.26997 L 60.51576 74.70865 L 62.40688 76.11221 L 64.29799 77.48238 L 66.1891 78.82008 L 68.08023 80.1267 L 69.97134 81.40315 L 71.86246 82.65039 L 73.75359 83.8694 L 75.6447 85.06168 L 77.53581 86.22743 L 79.42694 87.368 L 81.31805 88.48355 L 83.20917 89.57564 L 85.10028 90.64444 L 86.99141 91.6911 L 88.88252 92.71638 L 90.77364 93.7201 L 92.66476 94.70396 L 94.55588 95.66704 L 96.44699 96.61177 L 98.33812 97.53934 L 100.22923 98.4459 L 102.12035 99.3372 L 104.01147 100.20943 L 105.90259 101.07019 L 107.7937 101.90805 L 109.68481 102.73447 L 111.57594 103.54561 L 113.46706 104.33957 L 115.35817 105.12018 L 117.2493 105.88933 L 119.14041 106.64322 L 121.03152 107.38374 L 122.92265 108.1109 L 124.81377 108.8247 L 126.70488 109.52705 L 128.596 110.21988 L 130.48712 110.89742 L 132.37823 111.56541 L 134.26935 112.22005 L 136.16048 112.86705 L 138.05159 113.50261 L 139.9427 114.12862 L 141.83382 114.74509 L 143.72493 115.34819 L 145.61604 115.94559 L 147.50716 116.53151 L 149.39828 117.1079 L 151.2894 117.67856 L 153.18051 118.23587 L 155.07164 118.78745 L 156.96275 119.32947 L 158.85387 119.86578 L 160.74498 120.39255 L 162.63611 120.90977 L 164.52722 121.42317 L 166.41833 121.92703 L 168.30946 122.42136 L 170.20058 122.91377 L 172.09169 123.39854 L 173.98282 123.87187 L 175.87393 124.34137 L 177.76505 124.80516 L 179.65616 125.2594 L 181.54729 125.70982 L 183.4384 126.15643 L 185.32951 126.59158 L 187.22064 127.02292 L 189.11176 127.45235 L 191.00299 127.87032 L 192.89392 128.28639 L 194.78516 128.69482 L 196.67612 129.09944 L 198.56734 129.49834 L 200.45857 129.8915 L 202.34952 130.28275 L 204.24075 130.66638 L 206.1317 131.04427 L 208.02293 131.42026 L 209.91417 131.78671 L 211.8051 132.15506 L 213.69633 132.51578 L 215.58728 132.87077 L 217.47852 133.22386 L 219.36975 133.57312 L 221.2607 133.91286 L 223.15193 134.25449 L 225.04286 134.58849 L 226.93411 134.92058 L 228.82533 135.24695 L 230.71628 135.5733 L 232.60751 135.89014 L 234.49846 136.20886 L 236.3897 136.52377 L 238.28091 136.83105 L 240.17188 137.13834 L 242.06311 137.43797 L 243.95404 137.73763 L 245.84529 138.03154 L 247.73651 138.32547 L 249.62746 138.61366 L 251.51869 138.89995 L 253.40964 139.18242 L 255.30087 139.46487 L 257.1921 139.73781 L 259.08305 140.01263 L 260.97427 140.28366 L 262.86522 140.55276 L 264.75647 140.81615 L 266.64769 141.08144 L 268.53864 141.3391 L 270.42986 141.59676 L 272.32082 141.85059 L 274.21205 142.10062 L 276.10327 142.35063 L 277.99423 142.59875 L 279.88545 142.83923 L 281.7764 143.08162 L 283.66765 143.324 L 285.55887 143.55876 L 287.44981 143.79161 L 289.34103 144.02444 L 291.232 144.25539 L 293.12321 144.48251 L 295.01445 144.70963 L 296.90541 144.93102 L 298.79663 145.15242 L 300.68758 145.37 L 302.57881 145.58948 L 304.47005 145.80515 L 306.361 146.017 L 308.25221 146.22694 L 310.14317 146.43689 L 312.0344 146.643 L 313.92563 146.84723 L 315.81659 147.05144 L 317.70781 147.25185 L 319.59875 147.45033 L 321.48999 147.64691 L 323.38123 147.8435 L 325.27217 148.03818 L 327.16339 148.23094 L 329.05435 148.41989 L 330.94557 148.60884 L 332.8368 148.79779 L 334.72775 148.98291 L 336.61899 149.16614 L 338.50993 149.34937 L 340.40117 149.52876 L 342.2924 149.70818 L 344.18333 149.88376 L 346.07457 150.06126 L 347.96553 150.23685 L 349.85675 150.40862 L 351.74799 150.58038 L 353.63893 150.75024 L 355.53017 150.9182 L 357.42111 151.08807 L 359.31235 151.25412 L 361.20358 151.41634 L 363.09451 151.57857 L 364.98575 151.7427 L 366.8767 151.90303 L 368.76793 152.06334 L 370.65915 152.21985 L 372.55011 152.37444 L 374.44135 152.53285 L 376.33228 152.68555 L 376.33228 0.0 L 0.0 0.0 Z  " />
 </g>
 </g>
 </g>
 </g>
 <g transform="translate(67.11371,-23.28276)">
 <g fill="#000">
 <text style="stroke:none" transform="scale(1,-1) translate(2.85764,0)" text-anchor="middle"  font-size="10"> 
<g fill="#000">
 <g stroke="none"> <tspan font-family="cmmi" font-size="10">x</tspan> </g> </g>
 </text> 
</g>
 </g>
 <g transform="matrix(0.0,1.0,-1.0,0.0,-27.8106,47.52441)">
 <g fill="#000">
 <text style="stroke:none" transform="scale(1,-1) translate(9.73267,0)" text-anchor="middle"  font-size="10"> 
<g fill="#000">
 <g stroke="none"> <tspan font-family="cmmi" font-size="10">f</tspan>(<tspan font-family="cmmi" font-size="10">x</tspan>)</g> </g>
 </text> 
</g>
 </g>
 <g transform="translate(43.09077,128.32887)">
 <g fill="#000">
 <text style="stroke:none" transform="scale(1,-1) translate(26.88057,0)" text-anchor="middle"  font-size="10">
 </text> 
</g>
 </g>
 </g>
 </g>
 
                                  </g> 
</svg> 
