<?xml version="1.0" encoding="iso-8859-1" standalone="no"?> 
<?xml-stylesheet href="SVGOut.css" type="text/css"?> 
<svg xmlns="http://www.w3.org/2000/svg" xmlns:xlink="http://www.w3.org/1999/xlink" width="179.0254pt" height="128.25168pt" viewBox="-31.86452 -34.76633 179.0254 128.25168 "> 
<g transform="translate(0,93.48535 ) scale(1,-1) translate(0,34.76633 )"> 
<g stroke="#000" fill="#000">
 <g stroke-width="0.4">
 <g stroke="#000" fill="#000">
 <g stroke-width="0.2">
 <g stroke="#808080" fill="#808080">
 <path d=" M 9.54285 -6.97932 L 12.93803 -4.39262 M 47.71423 -13.30257 L 51.10942 -10.71587 M 85.88562 -19.62581 L 89.2808 -17.03911 M 54.04503 26.92564 L 50.64983 24.33893 M 92.21642 20.6024 L 88.82121 18.01569 M 130.3878 14.27916 L 126.9926 11.69244  " fill="none"/>
 </g>
 </g>
 <g stroke-width="0.2">
 <g stroke="#808080" fill="#808080">
 <path d=" M 4.45023 -2.00801 L 8.66069 -2.70549 M 22.25113 11.554 L 26.4616 10.85652 M 40.05203 25.11601 L 44.2625 24.41853 M 99.87852 -17.81609 L 95.66805 -17.1186 M 117.67943 -4.25407 L 113.46895 -3.5566 M 135.48033 9.30794 L 131.26985 10.00542  " fill="none"/>
 </g>
 </g>
 <path d=" M 0.0 -5.39851 L 95.4283 -21.20659  " fill="none"/>
 <path d=" M 44.50218 28.50645 L 139.93048 12.69838  " fill="none"/>
 <path d=" M 0.0 -5.39851 L 44.50218 28.50645  " fill="none"/>
 <path d=" M 95.4283 -21.20659 L 139.93048 12.69838  " fill="none"/>
 <g transform="translate(-3.27148,-18.27148)">
 <g fill="#000">
 <text style="stroke:none" transform="scale(1,-1) translate(8.61107,0)" text-anchor="middle"  font-size="10"> 
<g fill="#000">
 <g stroke="none">  <tspan font-family="cmsy" font-size="10">- </tspan>2</g> </g>
 </text> 
</g>
 </g>
 <g transform="translate(41.66501,-23.69086)">
 <g fill="#000">
 <text style="stroke:none" transform="scale(1,-1) translate(2.5,0)" text-anchor="middle"  font-size="10"> 
<g fill="#000">
 <g stroke="none"> 0</g> </g>
 </text> 
</g>
 </g>
 <g transform="translate(79.8364,-30.0141)">
 <g fill="#000">
 <text style="stroke:none" transform="scale(1,-1) translate(2.5,0)" text-anchor="middle"  font-size="10"> 
<g fill="#000">
 <g stroke="none"> 2</g> </g>
 </text> 
</g>
 </g>
 <g transform="translate(99.72803,-30.60002)">
 <g fill="#000">
 <text style="stroke:none" transform="scale(1,-1) translate(8.61107,0)" text-anchor="middle"  font-size="10"> 
<g fill="#000">
 <g stroke="none"> <tspan font-family="cmsy" font-size="10">- </tspan>2</g> </g>
 </text> 
</g>
 </g>
 <g transform="translate(121.02701,-14.37291)">
 <g fill="#000">
 <text style="stroke:none" transform="scale(1,-1) translate(2.5,0)" text-anchor="middle"  font-size="10"> 
<g fill="#000">
 <g stroke="none"> 0</g> </g>
 </text> 
</g>
 </g>
 <g transform="translate(138.82791,-0.8109)">
 <g fill="#000">
 <text style="stroke:none" transform="scale(1,-1) translate(2.5,0)" text-anchor="middle"  font-size="10"> 
<g fill="#000">
 <g stroke="none"> 2</g> </g>
 </text> 
</g>
 </g>
 <g stroke-width="0.2">
 <g stroke="#808080" fill="#808080">
 <path d=" M 54.04503 91.70454 L 50.64983 89.11783 M 92.21642 85.3813 L 88.82121 82.79459 M 130.3878 79.05806 L 126.9926 76.47134  " fill="none"/>
 </g>
 </g>
 <g stroke-width="0.2">
 <g stroke="#808080" fill="#808080">
 <path d=" M 4.45023 62.77089 L 8.66069 62.07341 M 22.25113 76.3329 L 26.4616 75.63542 M 40.05203 89.89491 L 44.2625 89.19743  " fill="none"/>
 </g>
 </g>
 <path d=" M 44.50218 93.28535 L 139.93048 77.47728  " fill="none"/>
 <path d=" M 0.0 59.38039 L 44.50218 93.28535  " fill="none"/>
 <g stroke-width="0.2">
 <g stroke="#808080" fill="#808080">
 <path d=" M 4.45023 -2.00801 L 4.45023 2.25992 M 22.25113 11.554 L 22.25113 15.82193 M 40.05203 25.11601 L 40.05203 29.38394 M 4.45023 62.77089 L 4.45023 58.50298 M 22.25113 76.3329 L 22.25113 72.06499 M 40.05203 89.89491 L 40.05203 85.627  " fill="none"/>
 </g>
 </g>
 <g stroke-width="0.2">
 <g stroke="#808080" fill="#808080">
 <path d=" M 0.0 -4.915 L 3.39519 -2.3283 M 0.0 26.99112 L 3.39519 29.57782 M 0.0 58.89725 L 3.39519 61.48395 M 44.50218 28.98997 L 41.10698 26.40326 M 44.50218 60.89609 L 41.10698 58.30937 M 44.50218 92.80222 L 41.10698 90.2155  " fill="none"/>
 </g>
 </g>
 <path d=" M 0.0 -5.39851 L 0.0 59.38039  " fill="none"/>
 <path d=" M 44.50218 28.50645 L 44.50218 93.28535  " fill="none"/>
 <g transform="translate(-28.53154,-11.70078)">
 <g fill="#000">
 <text style="stroke:none" transform="scale(1,-1) translate(12.49997,0)" text-anchor="middle"  font-size="10"> 
<g fill="#000">
 <g stroke="none"> <tspan font-family="cmsy" font-size="10">- </tspan>0<tspan font-family="cmmi" font-size="10">.</tspan>5</g> </g>
 </text> 
</g>
 </g>
 <g transform="translate(-8.53244,22.27121)">
 <g fill="#000">
 <text style="stroke:none" transform="scale(1,-1) translate(2.5,0)" text-anchor="middle"  font-size="10"> 
<g fill="#000">
 <g stroke="none"> 0</g> </g>
 </text> 
</g>
 </g>
 <g transform="translate(-16.3099,53.2119)">
 <g fill="#000">
 <text style="stroke:none" transform="scale(1,-1) translate(6.3889,0)" text-anchor="middle"  font-size="10"> 
<g fill="#000">
 <g stroke="none"> 0<tspan font-family="cmmi" font-size="10">.</tspan>5</g> </g>
 </text> 
</g>
 </g>
 <g stroke-width="0.2">
 <g stroke="#808080" fill="#808080">
 <path d=" M 99.87852 -17.81609 L 99.87852 -13.54816 M 117.67943 -4.25407 L 117.67943 0.01385 M 135.48033 9.30794 L 135.48033 13.57587  " fill="none"/>
 </g>
 </g>
 <g stroke-width="0.2">
 <g stroke="#808080" fill="#808080">
 <path d=" M 139.93048 13.1819 L 136.53528 10.59518 M 139.93048 45.08801 L 136.53528 42.5013 M 139.93048 76.99414 L 136.53528 74.40742  " fill="none"/>
 </g>
 </g>
 <path d=" M 139.93048 12.69838 L 139.93048 77.47728  " fill="none"/>
 <g stroke-width="0.2">
 <g stroke="#808080" fill="#808080">
 <path d=" M 9.54285 -6.97932 L 9.54285 -2.7114 M 47.71423 -13.30257 L 47.71423 -9.03464 M 85.88562 -19.62581 L 85.88562 -15.35788  " fill="none"/>
 </g>
 </g>
 <g stroke-width="0.2">
 <g stroke="#808080" fill="#808080">
 <path d=" M 0.0 -4.915 L 4.21046 -5.61247 M 0.0 26.99112 L 4.21046 26.29364 M 0.0 58.89725 L 4.21046 58.19977  " fill="none"/>
 </g>
 </g>
 <g stroke-width="0.2">
 <g stroke="#808080" fill="#808080">
 <path d=" M 54.04503 26.92564 L 54.04503 31.19357 M 92.21642 20.6024 L 92.21642 24.87033 M 130.3878 14.27916 L 130.3878 18.54709 M 54.04503 91.70454 L 54.04503 87.43663 M 92.21642 85.3813 L 92.21642 81.11339 M 130.3878 79.05806 L 130.3878 74.79015  " fill="none"/>
 </g>
 </g>
 <g stroke-width="0.2">
 <g stroke="#808080" fill="#808080">
 <path d=" M 44.50218 28.98997 L 48.71265 28.2925 M 44.50218 60.89609 L 48.71265 60.19861 M 44.50218 92.80222 L 48.71265 92.10474 M 139.93048 13.1819 L 135.72 13.87938 M 139.93048 45.08801 L 135.72 45.78549 M 139.93048 76.99414 L 135.72 77.69162  " fill="none"/>
 </g>
 </g>
 <clipPath id="pgfcp1"><path d=" M 139.93048 12.69838 L 139.93048 77.47728 L 44.50218 93.28535 L 0.0 59.38039 L 0.0 -5.39851 L 95.4283 -21.20659 Z  "/> </clipPath>
 <g clip-path="url(#pgfcp1)">
 <path d=" M 44.50218 60.8955 L 48.47835 60.23595 L 46.62408 58.82071 L 42.64792 59.48177 Z  " />
 <path d=" M 48.47835 60.23595 L 52.45453 59.57541 L 50.60027 58.15697 L 46.62408 58.82071 Z  " />
 <path d=" M 52.45453 59.57541 L 56.43071 58.91322 L 54.57645 57.48875 L 50.60027 58.15697 Z  " />
 <path d=" M 56.43071 58.91322 L 60.40689 58.24864 L 58.55263 56.81407 L 54.57645 57.48875 Z  " />
 <path d=" M 60.40689 58.24864 L 64.38307 57.58133 L 62.52881 56.13193 L 58.55263 56.81407 Z  " />
 <path d=" M 64.38307 57.58133 L 68.35925 56.9118 L 66.50499 55.44379 L 62.52881 56.13193 Z  " />
 <path d=" M 68.35925 56.9118 L 72.33543 56.24203 L 70.48117 54.75505 L 66.50499 55.44379 Z  " />
 <path d=" M 72.33543 56.24203 L 76.31161 55.57547 L 74.45735 54.07494 L 70.48117 54.75505 Z  " />
 <path d=" M 76.31161 55.57547 L 80.28778 54.91597 L 78.43352 53.41399 L 74.45735 54.07494 Z  " />
 <path d=" M 80.28778 54.91597 L 84.26396 54.26625 L 82.4097 52.77962 L 78.43352 53.41399 Z  " />
 <path d=" M 84.26396 54.26625 L 88.24014 53.62614 L 86.38588 52.17134 L 82.4097 52.77962 Z  " />
 <path d=" M 88.24014 53.62614 L 92.21632 52.99205 L 90.36206 51.57935 L 86.38588 52.17134 Z  " />
 <path d=" M 92.21632 52.99205 L 96.1925 52.35796 L 94.33824 50.98737 L 90.36206 51.57935 Z  " />
 <path d=" M 96.1925 52.35796 L 100.16869 51.71786 L 98.31442 50.37909 L 94.33824 50.98737 Z  " />
 <path d=" M 100.16869 51.71786 L 104.14487 51.06815 L 102.2906 49.7447 L 98.31442 50.37909 Z  " />
 <path d=" M 104.14487 51.06815 L 108.12105 50.40863 L 106.26678 49.08377 L 102.2906 49.7447 Z  " />
 <path d=" M 108.12105 50.40863 L 112.09723 49.74205 L 110.24297 48.40364 L 106.26678 49.08377 Z  " />
 <path d=" M 112.09723 49.74205 L 116.0734 49.07231 L 114.21913 47.71492 L 110.24297 48.40364 Z  " />
 <path d=" M 116.0734 49.07231 L 120.04958 48.40279 L 118.19531 47.02678 L 114.21913 47.71492 Z  " />
 <path d=" M 120.04958 48.40279 L 124.02576 47.73547 L 122.1715 46.34464 L 118.19531 47.02678 Z  " />
 <path d=" M 124.02576 47.73547 L 128.00194 47.07089 L 126.14767 45.66995 L 122.1715 46.34464 Z  " />
 <path d=" M 128.00194 47.07089 L 131.97812 46.40869 L 130.12386 45.00172 L 126.14767 45.66995 Z  " />
 <path d=" M 131.97812 46.40869 L 135.9543 45.74817 L 134.10004 44.338 L 130.12386 45.00172 Z  " />
 <path d=" M 135.9543 45.74817 L 139.93048 45.08861 L 138.07622 43.67693 L 134.10004 44.338 Z  " />
 <path d=" M 42.64792 59.48177 L 46.62408 58.82071 L 44.76982 57.40202 L 40.79366 58.06665 Z  " />
 <path d=" M 46.62408 58.82071 L 50.60027 58.15697 L 48.746 56.73074 L 44.76982 57.40202 Z  " />
 <path d=" M 50.60027 58.15697 L 54.57645 57.48875 L 52.72218 56.04831 L 48.746 56.73074 Z  " />
 <path d=" M 54.57645 57.48875 L 58.55263 56.81407 L 56.69836 55.34981 L 52.72218 56.04831 Z  " />
 <path d=" M 58.55263 56.81407 L 62.52881 56.13193 L 60.67455 54.63272 L 56.69836 55.34981 Z  " />
 <path d=" M 62.52881 56.13193 L 66.50499 55.44379 L 64.65073 53.90074 L 60.67455 54.63272 Z  " />
 <path d=" M 66.50499 55.44379 L 70.48117 54.75505 L 68.6269 53.16727 L 64.65073 53.90074 Z  " />
 <path d=" M 70.48117 54.75505 L 74.45735 54.07494 L 72.60309 52.45525 L 68.6269 53.16727 Z  " />
 <path d=" M 74.45735 54.07494 L 78.43352 53.41399 L 76.57925 51.79092 L 72.60309 52.45525 Z  " />
 <path d=" M 78.43352 53.41399 L 82.4097 52.77962 L 80.55544 51.19269 L 76.57925 51.79092 Z  " />
 <path d=" M 82.4097 52.77962 L 86.38588 52.17134 L 84.53162 50.6594 L 80.55544 51.19269 Z  " />
 <path d=" M 86.38588 52.17134 L 90.36206 51.57935 L 88.5078 50.16663 L 84.53162 50.6594 Z  " />
 <path d=" M 90.36206 51.57935 L 94.33824 50.98737 L 92.48398 49.67386 L 88.5078 50.16663 Z  " />
 <path d=" M 94.33824 50.98737 L 98.31442 50.37909 L 96.46016 49.14058 L 92.48398 49.67386 Z  " />
 <path d=" M 98.31442 50.37909 L 102.2906 49.7447 L 100.43634 48.54233 L 96.46016 49.14058 Z  " />
 <path d=" M 102.2906 49.7447 L 106.26678 49.08377 L 104.41252 47.87802 L 100.43634 48.54233 Z  " />
 <path d=" M 106.26678 49.08377 L 110.24297 48.40364 L 108.3887 47.16599 L 104.41252 47.87802 Z  " />
 <path d=" M 110.24297 48.40364 L 114.21913 47.71492 L 112.36487 46.43253 L 108.3887 47.16599 Z  " />
 <path d=" M 114.21913 47.71492 L 118.19531 47.02678 L 116.34105 45.70053 L 112.36487 46.43253 Z  " />
 <path d=" M 118.19531 47.02678 L 122.1715 46.34464 L 120.31723 44.98346 L 116.34105 45.70053 Z  " />
 <path d=" M 122.1715 46.34464 L 126.14767 45.66995 L 124.29341 44.28496 L 120.31723 44.98346 Z  " />
 <path d=" M 126.14767 45.66995 L 130.12386 45.00172 L 128.26959 43.60251 L 124.29341 44.28496 Z  " />
 <path d=" M 130.12386 45.00172 L 134.10004 44.338 L 132.24577 42.93124 L 128.26959 43.60251 Z  " />
 <path d=" M 134.10004 44.338 L 138.07622 43.67693 L 136.22195 42.2666 L 132.24577 42.93124 Z  " />
 <path d=" M 40.79366 58.06665 L 44.76982 57.40202 L 42.91557 55.97652 L 38.9394 56.6488 Z  " />
 <path d=" M 44.76982 57.40202 L 48.746 56.73074 L 46.89175 55.28911 L 42.91557 55.97652 Z  " />
 <path d=" M 48.746 56.73074 L 52.72218 56.04831 L 50.86794 54.57622 L 46.89175 55.28911 Z  " />
 <path d=" M 52.72218 56.04831 L 56.69836 55.34981 L 54.84412 53.8267 L 50.86794 54.57622 Z  " />
 <path d=" M 56.69836 55.34981 L 60.67455 54.63272 L 58.8203 53.03477 L 54.84412 53.8267 Z  " />
 <path d=" M 60.67455 54.63272 L 64.65073 53.90074 L 62.79648 52.20888 L 58.8203 53.03477 Z  " />
 <path d=" M 64.65073 53.90074 L 68.6269 53.16727 L 66.77266 51.3796 L 62.79648 52.20888 Z  " />
 <path d=" M 68.6269 53.16727 L 72.60309 52.45525 L 70.74884 50.5992 L 66.77266 51.3796 Z  " />
 <path d=" M 72.60309 52.45525 L 76.57925 51.79092 L 74.725 49.92766 L 70.74884 50.5992 Z  " />
 <path d=" M 76.57925 51.79092 L 80.55544 51.19269 L 78.70119 49.4068 L 74.725 49.92766 Z  " />
 <path d=" M 80.55544 51.19269 L 84.53162 50.6594 L 82.67737 49.03415 L 78.70119 49.4068 Z  " />
 <path d=" M 84.53162 50.6594 L 88.5078 50.16663 L 86.65355 48.7539 L 82.67737 49.03415 Z  " />
 <path d=" M 88.5078 50.16663 L 92.48398 49.67386 L 90.62973 48.4737 L 86.65355 48.7539 Z  " />
 <path d=" M 92.48398 49.67386 L 96.46016 49.14058 L 94.60591 48.10104 L 90.62973 48.4737 Z  " />
 <path d=" M 96.46016 49.14058 L 100.43634 48.54233 L 98.58209 47.58018 L 94.60591 48.10104 Z  " />
 <path d=" M 100.43634 48.54233 L 104.41252 47.87802 L 102.55827 46.90866 L 98.58209 47.58018 Z  " />
 <path d=" M 104.41252 47.87802 L 108.3887 47.16599 L 106.53445 46.12827 L 102.55827 46.90866 Z  " />
 <path d=" M 108.3887 47.16599 L 112.36487 46.43253 L 110.51062 45.29898 L 106.53445 46.12827 Z  " />
 <path d=" M 112.36487 46.43253 L 116.34105 45.70053 L 114.4868 44.47308 L 110.51062 45.29898 Z  " />
 <path d=" M 116.34105 45.70053 L 120.31723 44.98346 L 118.46298 43.68117 L 114.4868 44.47308 Z  " />
 <path d=" M 120.31723 44.98346 L 124.29341 44.28496 L 122.43916 42.93164 L 118.46298 43.68117 Z  " />
 <path d=" M 124.29341 44.28496 L 128.26959 43.60251 L 126.41534 42.21873 L 122.43916 42.93164 Z  " />
 <path d=" M 128.26959 43.60251 L 132.24577 42.93124 L 130.39153 41.53133 L 126.41534 42.21873 Z  " />
 <path d=" M 132.24577 42.93124 L 136.22195 42.2666 L 134.3677 40.85904 L 130.39153 41.53133 Z  " />
 <path d=" M 38.9394 56.6488 L 42.91557 55.97652 L 41.06131 54.53897 L 37.08514 55.2261 Z  " />
 <path d=" M 42.91557 55.97652 L 46.89175 55.28911 L 45.03749 53.82019 L 41.06131 54.53897 Z  " />
 <path d=" M 46.89175 55.28911 L 50.86794 54.57622 L 49.01367 53.0481 L 45.03749 53.82019 Z  " />
 <path d=" M 50.86794 54.57622 L 54.84412 53.8267 L 52.98985 52.19943 L 49.01367 53.0481 Z  " />
 <path d=" M 54.84412 53.8267 L 58.8203 53.03477 L 56.96603 51.26207 L 52.98985 52.19943 Z  " />
 <path d=" M 58.8203 53.03477 L 62.79648 52.20888 L 60.94221 50.2537 L 56.96603 51.26207 Z  " />
 <path d=" M 62.79648 52.20888 L 66.77266 51.3796 L 64.9184 49.23814 L 60.94221 50.2537 Z  " />
 <path d=" M 66.77266 51.3796 L 70.74884 50.5992 L 68.89458 48.32487 L 64.9184 49.23814 Z  " />
 <path d=" M 70.74884 50.5992 L 74.725 49.92766 L 72.87074 47.63934 L 68.89458 48.32487 Z  " />
 <path d=" M 74.725 49.92766 L 78.70119 49.4068 L 76.84692 47.26888 L 72.87074 47.63934 Z  " />
 <path d=" M 78.70119 49.4068 L 82.67737 49.03415 L 80.8231 47.2084 L 76.84692 47.26888 Z  " />
 <path d=" M 82.67737 49.03415 L 86.65355 48.7539 L 84.79929 47.3412 L 80.8231 47.2084 Z  " />
 <path d=" M 86.65355 48.7539 L 90.62973 48.4737 L 88.77547 47.47401 L 84.79929 47.3412 Z  " />
 <path d=" M 90.62973 48.4737 L 94.60591 48.10104 L 92.75165 47.41356 L 88.77547 47.47401 Z  " />
 <path d=" M 94.60591 48.10104 L 98.58209 47.58018 L 96.72783 47.0431 L 92.75165 47.41356 Z  " />
 <path d=" M 98.58209 47.58018 L 102.55827 46.90866 L 100.70401 46.35756 L 96.72783 47.0431 Z  " />
 <path d=" M 102.55827 46.90866 L 106.53445 46.12827 L 104.68019 45.44429 L 100.70401 46.35756 Z  " />
 <path d=" M 106.53445 46.12827 L 110.51062 45.29898 L 108.65636 44.42877 L 104.68019 45.44429 Z  " />
 <path d=" M 110.51062 45.29898 L 114.4868 44.47308 L 112.63254 43.4204 L 108.65636 44.42877 Z  " />
 <path d=" M 114.4868 44.47308 L 118.46298 43.68117 L 116.60872 42.48303 L 112.63254 43.4204 Z  " />
 <path d=" M 118.46298 43.68117 L 122.43916 42.93164 L 120.5849 41.63435 L 116.60872 42.48303 Z  " />
 <path d=" M 122.43916 42.93164 L 126.41534 42.21873 L 124.56108 40.86224 L 120.5849 41.63435 Z  " />
 <path d=" M 126.41534 42.21873 L 130.39153 41.53133 L 128.53726 40.14348 L 124.56108 40.86224 Z  " />
 <path d=" M 130.39153 41.53133 L 134.3677 40.85904 L 132.51344 39.45633 L 128.53726 40.14348 Z  " />
 <path d=" M 37.08514 55.2261 L 41.06131 54.53897 L 39.20705 53.08255 L 35.23088 53.79584 Z  " />
 <path d=" M 41.06131 54.53897 L 45.03749 53.82019 L 43.18323 52.30864 L 39.20705 53.08255 Z  " />
 <path d=" M 45.03749 53.82019 L 49.01367 53.0481 L 47.15941 51.43246 L 43.18323 52.30864 Z  " />
 <path d=" M 49.01367 53.0481 L 52.98985 52.19943 L 51.13559 50.40948 L 47.15941 51.43246 Z  " />
 <path d=" M 52.98985 52.19943 L 56.96603 51.26207 L 55.11177 49.21642 L 51.13559 50.40948 Z  " />
 <path d=" M 56.96603 51.26207 L 60.94221 50.2537 L 59.08795 47.88716 L 55.11177 49.21642 Z  " />
 <path d=" M 60.94221 50.2537 L 64.9184 49.23814 L 63.06413 46.54419 L 59.08795 47.88716 Z  " />
 <path d=" M 64.9184 49.23814 L 68.89458 48.32487 L 67.04031 45.39731 L 63.06413 46.54419 Z  " />
 <path d=" M 68.89458 48.32487 L 72.87074 47.63934 L 71.01648 44.68713 L 67.04031 45.39731 Z  " />
 <path d=" M 72.87074 47.63934 L 76.84692 47.26888 L 74.99266 44.58115 L 71.01648 44.68713 Z  " />
 <path d=" M 76.84692 47.26888 L 80.8231 47.2084 L 78.96884 45.07002 L 74.99266 44.58115 Z  " />
 <path d=" M 80.8231 47.2084 L 84.79929 47.3412 L 82.94502 45.92848 L 78.96884 45.07002 Z  " />
 <path d=" M 84.79929 47.3412 L 88.77547 47.47401 L 86.9212 46.78696 L 82.94502 45.92848 Z  " />
 <path d=" M 88.77547 47.47401 L 92.75165 47.41356 L 90.89738 47.27583 L 86.9212 46.78696 Z  " />
 <path d=" M 92.75165 47.41356 L 96.72783 47.0431 L 94.87357 47.16992 L 90.89738 47.27583 Z  " />
 <path d=" M 96.72783 47.0431 L 100.70401 46.35756 L 98.84975 46.45973 L 94.87357 47.16992 Z  " />
 <path d=" M 100.70401 46.35756 L 104.68019 45.44429 L 102.82593 45.31285 L 98.84975 46.45973 Z  " />
 <path d=" M 104.68019 45.44429 L 108.65636 44.42877 L 106.8021 43.96988 L 102.82593 45.31285 Z  " />
 <path d=" M 108.65636 44.42877 L 112.63254 43.4204 L 110.77827 42.64063 L 106.8021 43.96988 Z  " />
 <path d=" M 112.63254 43.4204 L 116.60872 42.48303 L 114.75446 41.44759 L 110.77827 42.64063 Z  " />
 <path d=" M 116.60872 42.48303 L 120.5849 41.63435 L 118.73064 40.42458 L 114.75446 41.44759 Z  " />
 <path d=" M 120.5849 41.63435 L 124.56108 40.86224 L 122.70682 39.54839 L 118.73064 40.42458 Z  " />
 <path d=" M 124.56108 40.86224 L 128.53726 40.14348 L 126.683 38.77449 L 122.70682 39.54839 Z  " />
 <path d=" M 128.53726 40.14348 L 132.51344 39.45633 L 130.65918 38.06119 L 126.683 38.77449 Z  " />
 <path d=" M 35.23088 53.79584 L 39.20705 53.08255 L 37.3528 51.60062 L 33.37663 52.35529 Z  " />
 <path d=" M 39.20705 53.08255 L 43.18323 52.30864 L 41.32898 50.73933 L 37.3528 51.60062 Z  " />
 <path d=" M 43.18323 52.30864 L 47.15941 51.43246 L 45.30516 49.69826 L 41.32898 50.73933 Z  " />
 <path d=" M 47.15941 51.43246 L 51.13559 50.40948 L 49.28134 48.39911 L 45.30516 49.69826 Z  " />
 <path d=" M 51.13559 50.40948 L 55.11177 49.21642 L 53.25752 46.8009 L 49.28134 48.39911 Z  " />
 <path d=" M 55.11177 49.21642 L 59.08795 47.88716 L 57.2337 44.96326 L 53.25752 46.8009 Z  " />
 <path d=" M 59.08795 47.88716 L 63.06413 46.54419 L 61.20988 43.10149 L 57.2337 44.96326 Z  " />
 <path d=" M 63.06413 46.54419 L 67.04031 45.39731 L 65.18607 41.58765 L 61.20988 43.10149 Z  " />
 <path d=" M 67.04031 45.39731 L 71.01648 44.68713 L 69.16223 40.83524 L 65.18607 41.58765 Z  " />
 <path d=" M 71.01648 44.68713 L 74.99266 44.58115 L 73.13841 41.14717 L 69.16223 40.83524 Z  " />
 <path d=" M 74.99266 44.58115 L 78.96884 45.07002 L 77.1146 42.50575 L 73.13841 41.14717 Z  " />
 <path d=" M 78.96884 45.07002 L 82.94502 45.92848 L 81.09077 44.51575 L 77.1146 42.50575 Z  " />
 <path d=" M 82.94502 45.92848 L 86.9212 46.78696 L 85.06696 46.52577 L 81.09077 44.51575 Z  " />
 <path d=" M 86.9212 46.78696 L 90.89738 47.27583 L 89.04314 47.88435 L 85.06696 46.52577 Z  " />
 <path d=" M 90.89738 47.27583 L 94.87357 47.16992 L 93.01932 48.19632 L 89.04314 47.88435 Z  " />
 <path d=" M 94.87357 47.16992 L 98.84975 46.45973 L 96.9955 47.44392 L 93.01932 48.19632 Z  " />
 <path d=" M 98.84975 46.45973 L 102.82593 45.31285 L 100.97168 45.93013 L 96.9955 47.44392 Z  " />
 <path d=" M 102.82593 45.31285 L 106.8021 43.96988 L 104.94785 44.06842 L 100.97168 45.93013 Z  " />
 <path d=" M 106.8021 43.96988 L 110.77827 42.64063 L 108.92403 42.23073 L 104.94785 44.06842 Z  " />
 <path d=" M 110.77827 42.64063 L 114.75446 41.44759 L 112.9002 40.63255 L 108.92403 42.23073 Z  " />
 <path d=" M 114.75446 41.44759 L 118.73064 40.42458 L 116.87639 39.33339 L 112.9002 40.63255 Z  " />
 <path d=" M 118.73064 40.42458 L 122.70682 39.54839 L 120.85257 38.29228 L 116.87639 39.33339 Z  " />
 <path d=" M 122.70682 39.54839 L 126.683 38.77449 L 124.82875 37.43102 L 120.85257 38.29228 Z  " />
 <path d=" M 126.683 38.77449 L 130.65918 38.06119 L 128.80493 36.67633 L 124.82875 37.43102 Z  " />
 <path d=" M 33.37663 52.35529 L 37.3528 51.60062 L 35.49854 50.08965 L 31.52237 50.90308 Z  " />
 <path d=" M 37.3528 51.60062 L 41.32898 50.73933 L 39.47472 49.10439 L 35.49854 50.08965 Z  " />
 <path d=" M 41.32898 50.73933 L 45.30516 49.69826 L 43.4509 47.82933 L 39.47472 49.10439 Z  " />
 <path d=" M 45.30516 49.69826 L 49.28134 48.39911 L 47.42708 46.13823 L 43.4509 47.82933 Z  " />
 <path d=" M 49.28134 48.39911 L 53.25752 46.8009 L 51.40326 43.96506 L 47.42708 46.13823 Z  " />
 <path d=" M 53.25752 46.8009 L 57.2337 44.96326 L 55.37944 41.40591 L 51.40326 43.96506 Z  " />
 <path d=" M 57.2337 44.96326 L 61.20988 43.10149 L 59.35562 38.81075 L 55.37944 41.40591 Z  " />
 <path d=" M 61.20988 43.10149 L 65.18607 41.58765 L 63.3318 36.76521 L 59.35562 38.81075 Z  " />
 <path d=" M 65.18607 41.58765 L 69.16223 40.83524 L 67.30797 35.95988 L 63.3318 36.76521 Z  " />
 <path d=" M 69.16223 40.83524 L 73.13841 41.14717 L 71.28415 36.86766 L 67.30797 35.95988 Z  " />
 <path d=" M 73.13841 41.14717 L 77.1146 42.50575 L 75.26033 39.4602 L 71.28415 36.86766 Z  " />
 <path d=" M 77.1146 42.50575 L 81.09077 44.51575 L 79.23651 43.103 L 75.26033 39.4602 Z  " />
 <path d=" M 81.09077 44.51575 L 85.06696 46.52577 L 83.21269 46.7458 L 79.23651 43.103 Z  " />
 <path d=" M 85.06696 46.52577 L 89.04314 47.88435 L 87.18887 49.33838 L 83.21269 46.7458 Z  " />
 <path d=" M 89.04314 47.88435 L 93.01932 48.19632 L 91.16505 50.24619 L 87.18887 49.33838 Z  " />
 <path d=" M 93.01932 48.19632 L 96.9955 47.44392 L 95.14124 49.44089 L 91.16505 50.24619 Z  " />
 <path d=" M 96.9955 47.44392 L 100.97168 45.93013 L 99.11742 47.39539 L 95.14124 49.44089 Z  " />
 <path d=" M 100.97168 45.93013 L 104.94785 44.06842 L 103.09358 44.8003 L 99.11742 47.39539 Z  " />
 <path d=" M 104.94785 44.06842 L 108.92403 42.23073 L 107.06976 42.24118 L 103.09358 44.8003 Z  " />
 <path d=" M 108.92403 42.23073 L 112.9002 40.63255 L 111.04594 40.06802 L 107.06976 42.24118 Z  " />
 <path d=" M 112.9002 40.63255 L 116.87639 39.33339 L 115.02213 38.3769 L 111.04594 40.06802 Z  " />
 <path d=" M 116.87639 39.33339 L 120.85257 38.29228 L 118.9983 37.1018 L 115.02213 38.3769 Z  " />
 <path d=" M 120.85257 38.29228 L 124.82875 37.43102 L 122.97449 36.11656 L 118.9983 37.1018 Z  " />
 <path d=" M 124.82875 37.43102 L 128.80493 36.67633 L 126.95067 35.3031 L 122.97449 36.11656 Z  " />
 <path d=" M 31.52237 50.90308 L 35.49854 50.08965 L 33.64429 48.55324 L 29.66812 49.44064 Z  " />
 <path d=" M 35.49854 50.08965 L 39.47472 49.10439 L 37.62047 47.41191 L 33.64429 48.55324 Z  " />
 <path d=" M 39.47472 49.10439 L 43.4509 47.82933 L 41.59665 45.84229 L 37.62047 47.41191 Z  " />
 <path d=" M 43.4509 47.82933 L 47.42708 46.13823 L 45.57283 43.65778 L 41.59665 45.84229 Z  " />
 <path d=" M 47.42708 46.13823 L 51.40326 43.96506 L 49.54901 40.76079 L 45.57283 43.65778 Z  " />
 <path d=" M 51.40326 43.96506 L 55.37944 41.40591 L 53.52519 37.29816 L 49.54901 40.76079 Z  " />
 <path d=" M 55.37944 41.40591 L 59.35562 38.81075 L 57.50137 33.76804 L 53.52519 37.29816 Z  " />
 <path d=" M 59.35562 38.81075 L 63.3318 36.76521 L 61.47755 31.06483 L 57.50137 33.76804 Z  " />
 <path d=" M 63.3318 36.76521 L 67.30797 35.95988 L 65.45372 30.19078 L 61.47755 31.06483 Z  " />
 <path d=" M 67.30797 35.95988 L 71.28415 36.86766 L 69.4299 31.84581 L 65.45372 30.19078 Z  " />
 <path d=" M 71.28415 36.86766 L 75.26033 39.4602 L 73.40608 35.99152 L 69.4299 31.84581 Z  " />
 <path d=" M 75.26033 39.4602 L 79.23651 43.103 L 77.38226 41.69025 L 73.40608 35.99152 Z  " />
 <path d=" M 79.23651 43.103 L 83.21269 46.7458 L 81.35844 47.389 L 77.38226 41.69025 Z  " />
 <path d=" M 83.21269 46.7458 L 87.18887 49.33838 L 85.33463 51.53474 L 81.35844 47.389 Z  " />
 <path d=" M 87.18887 49.33838 L 91.16505 50.24619 L 89.3108 53.18982 L 85.33463 51.53474 Z  " />
 <path d=" M 91.16505 50.24619 L 95.14124 49.44089 L 93.28699 52.31581 L 89.3108 53.18982 Z  " />
 <path d=" M 95.14124 49.44089 L 99.11742 47.39539 L 97.26317 49.61264 L 93.28699 52.31581 Z  " />
 <path d=" M 99.11742 47.39539 L 103.09358 44.8003 L 101.23933 46.08258 L 97.26317 49.61264 Z  " />
 <path d=" M 103.09358 44.8003 L 107.06976 42.24118 L 105.21552 42.62003 L 101.23933 46.08258 Z  " />
 <path d=" M 107.06976 42.24118 L 111.04594 40.06802 L 109.1917 39.72308 L 105.21552 42.62003 Z  " />
 <path d=" M 111.04594 40.06802 L 115.02213 38.3769 L 113.16788 37.53854 L 109.1917 39.72308 Z  " />
 <path d=" M 115.02213 38.3769 L 118.9983 37.1018 L 117.14406 35.96887 L 113.16788 37.53854 Z  " />
 <path d=" M 118.9983 37.1018 L 122.97449 36.11656 L 121.12024 34.82755 L 117.14406 35.96887 Z  " />
 <path d=" M 122.97449 36.11656 L 126.95067 35.3031 L 125.09642 33.94014 L 121.12024 34.82755 Z  " />
 <path d=" M 29.66812 49.44064 L 33.64429 48.55324 L 31.79002 47.00473 L 27.81386 47.97334 Z  " />
 <path d=" M 33.64429 48.55324 L 37.62047 47.41191 L 35.7662 45.69205 L 31.79002 47.00473 Z  " />
 <path d=" M 37.62047 47.41191 L 41.59665 45.84229 L 39.74239 43.79897 L 35.7662 45.69205 Z  " />
 <path d=" M 41.59665 45.84229 L 45.57283 43.65778 L 43.71857 41.07277 L 39.74239 43.79897 Z  " />
 <path d=" M 45.57283 43.65778 L 49.54901 40.76079 L 47.69475 37.38124 L 43.71857 41.07277 Z  " />
 <path d=" M 49.54901 40.76079 L 53.52519 37.29816 L 51.67093 32.91658 L 47.69475 37.38124 Z  " />
 <path d=" M 53.52519 37.29816 L 57.50137 33.76804 L 55.64711 28.37238 L 51.67093 32.91658 Z  " />
 <path d=" M 57.50137 33.76804 L 61.47755 31.06483 L 59.62329 24.9449 L 55.64711 28.37238 Z  " />
 <path d=" M 61.47755 31.06483 L 65.45372 30.19078 L 63.59946 23.99133 L 59.62329 24.9449 Z  " />
 <path d=" M 65.45372 30.19078 L 69.4299 31.84581 L 67.57564 26.4682 L 63.59946 23.99133 Z  " />
 <path d=" M 69.4299 31.84581 L 73.40608 35.99152 L 71.55182 32.32074 L 67.57564 26.4682 Z  " />
 <path d=" M 73.40608 35.99152 L 77.38226 41.69025 L 75.528 40.2775 L 71.55182 32.32074 Z  " />
 <path d=" M 77.38226 41.69025 L 81.35844 47.389 L 79.50418 48.23428 L 75.528 40.2775 Z  " />
 <path d=" M 81.35844 47.389 L 85.33463 51.53474 L 83.48036 54.08685 L 79.50418 48.23428 Z  " />
 <path d=" M 85.33463 51.53474 L 89.3108 53.18982 L 87.45654 56.5638 L 83.48036 54.08685 Z  " />
 <path d=" M 89.3108 53.18982 L 93.28699 52.31581 L 91.43272 55.61028 L 87.45654 56.5638 Z  " />
 <path d=" M 93.28699 52.31581 L 97.26317 49.61264 L 95.4089 52.18286 L 91.43272 55.61028 Z  " />
 <path d=" M 97.26317 49.61264 L 101.23933 46.08258 L 99.38507 47.63872 L 95.4089 52.18286 Z  " />
 <path d=" M 101.23933 46.08258 L 105.21552 42.62003 L 103.36125 43.1743 L 99.38507 47.63872 Z  " />
 <path d=" M 105.21552 42.62003 L 109.1917 39.72308 L 107.33743 39.48271 L 103.36125 43.1743 Z  " />
 <path d=" M 109.1917 39.72308 L 113.16788 37.53854 L 111.31361 36.75645 L 107.33743 39.48271 Z  " />
 <path d=" M 113.16788 37.53854 L 117.14406 35.96887 L 115.2898 34.86333 L 111.31361 36.75645 Z  " />
 <path d=" M 117.14406 35.96887 L 121.12024 34.82755 L 119.26598 33.55064 L 115.2898 34.86333 Z  " />
 <path d=" M 121.12024 34.82755 L 125.09642 33.94014 L 123.24216 32.58202 L 119.26598 33.55064 Z  " />
 <path d=" M 27.81386 47.97334 L 31.79002 47.00473 L 29.93576 45.46642 L 25.9596 46.51013 Z  " />
 <path d=" M 31.79002 47.00473 L 35.7662 45.69205 L 33.91194 43.99524 L 29.93576 45.46642 Z  " />
 <path d=" M 35.7662 45.69205 L 39.74239 43.79897 L 37.88812 41.803 L 33.91194 43.99524 Z  " />
 <path d=" M 39.74239 43.79897 L 43.71857 41.07277 L 41.8643 38.57567 L 37.88812 41.803 Z  " />
 <path d=" M 43.71857 41.07277 L 47.69475 37.38124 L 45.84048 34.14925 L 41.8643 38.57567 Z  " />
 <path d=" M 47.69475 37.38124 L 51.67093 32.91658 L 49.81667 28.75916 L 45.84048 34.14925 Z  " />
 <path d=" M 51.67093 32.91658 L 55.64711 28.37238 L 53.79285 23.2765 L 49.81667 28.75916 Z  " />
 <path d=" M 55.64711 28.37238 L 59.62329 24.9449 L 57.76903 19.17593 L 53.79285 23.2765 Z  " />
 <path d=" M 59.62329 24.9449 L 63.59946 23.99133 L 61.7452 18.15083 L 57.76903 19.17593 Z  " />
 <path d=" M 63.59946 23.99133 L 67.57564 26.4682 L 65.72137 21.39026 L 61.7452 18.15083 Z  " />
 <path d=" M 67.57564 26.4682 L 71.55182 32.32074 L 69.69756 28.82054 L 65.72137 21.39026 Z  " />
 <path d=" M 71.55182 32.32074 L 75.528 40.2775 L 73.67374 38.86475 L 69.69756 28.82054 Z  " />
 <path d=" M 75.528 40.2775 L 79.50418 48.23428 L 77.64992 48.90898 L 73.67374 38.86475 Z  " />
 <path d=" M 79.50418 48.23428 L 83.48036 54.08685 L 81.6261 56.33932 L 77.64992 48.90898 Z  " />
 <path d=" M 83.48036 54.08685 L 87.45654 56.5638 L 85.60228 59.57883 L 81.6261 56.33932 Z  " />
 <path d=" M 87.45654 56.5638 L 91.43272 55.61028 L 89.57846 58.5538 L 85.60228 59.57883 Z  " />
 <path d=" M 91.43272 55.61028 L 95.4089 52.18286 L 93.55464 54.45331 L 89.57846 58.5538 Z  " />
 <path d=" M 95.4089 52.18286 L 99.38507 47.63872 L 97.5308 48.97073 L 93.55464 54.45331 Z  " />
 <path d=" M 99.38507 47.63872 L 103.36125 43.1743 L 101.50699 43.58067 L 97.5308 48.97073 Z  " />
 <path d=" M 103.36125 43.1743 L 107.33743 39.48271 L 105.48317 39.15442 L 101.50699 43.58067 Z  " />
 <path d=" M 107.33743 39.48271 L 111.31361 36.75645 L 109.45935 35.92703 L 105.48317 39.15442 Z  " />
 <path d=" M 111.31361 36.75645 L 115.2898 34.86333 L 113.43553 33.73473 L 109.45935 35.92703 Z  " />
 <path d=" M 115.2898 34.86333 L 119.26598 33.55064 L 117.41171 32.26357 L 113.43553 33.73473 Z  " />
 <path d=" M 119.26598 33.55064 L 123.24216 32.58202 L 121.3879 31.21982 L 117.41171 32.26357 Z  " />
 <path d=" M 25.9596 46.51013 L 29.93576 45.46642 L 28.08151 43.96416 L 24.10535 45.06143 Z  " />
 <path d=" M 29.93576 45.46642 L 33.91194 43.99524 L 32.0577 42.38002 L 28.08151 43.96416 Z  " />
 <path d=" M 33.91194 43.99524 L 37.88812 41.803 L 36.03387 39.97452 L 32.0577 42.38002 Z  " />
 <path d=" M 37.88812 41.803 L 41.8643 38.57567 L 40.01006 36.39 L 36.03387 39.97452 Z  " />
 <path d=" M 41.8643 38.57567 L 45.84048 34.14925 L 43.98624 31.44301 L 40.01006 36.39 Z  " />
 <path d=" M 45.84048 34.14925 L 49.81667 28.75916 L 47.96242 25.39218 L 43.98624 31.44301 Z  " />
 <path d=" M 49.81667 28.75916 L 53.79285 23.2765 L 51.9386 19.23819 L 47.96242 25.39218 Z  " />
 <path d=" M 53.79285 23.2765 L 57.76903 19.17593 L 55.91478 14.65715 L 51.9386 19.23819 Z  " />
 <path d=" M 57.76903 19.17593 L 61.7452 18.15083 L 59.89095 13.58179 L 55.91478 14.65715 Z  " />
 <path d=" M 61.7452 18.15083 L 65.72137 21.39026 L 63.86713 17.36362 L 59.89095 13.58179 Z  " />
 <path d=" M 65.72137 21.39026 L 69.69756 28.82054 L 67.8433 25.91992 L 63.86713 17.36362 Z  " />
 <path d=" M 69.69756 28.82054 L 73.67374 38.86475 L 71.81949 37.45201 L 67.8433 25.91992 Z  " />
 <path d=" M 73.67374 38.86475 L 77.64992 48.90898 L 75.79567 48.98413 L 71.81949 37.45201 Z  " />
 <path d=" M 77.64992 48.90898 L 81.6261 56.33932 L 79.77185 57.5405 L 75.79567 48.98413 Z  " />
 <path d=" M 81.6261 56.33932 L 85.60228 59.57883 L 83.74803 61.3224 L 79.77185 57.5405 Z  " />
 <path d=" M 85.60228 59.57883 L 89.57846 58.5538 L 87.72421 60.24713 L 83.74803 61.3224 Z  " />
 <path d=" M 89.57846 58.5538 L 93.55464 54.45331 L 91.7004 55.6662 L 87.72421 60.24713 Z  " />
 <path d=" M 93.55464 54.45331 L 97.5308 48.97073 L 95.67656 49.51227 L 91.7004 55.6662 Z  " />
 <path d=" M 97.5308 48.97073 L 101.50699 43.58067 L 99.65274 43.46149 L 95.67656 49.51227 Z  " />
 <path d=" M 101.50699 43.58067 L 105.48317 39.15442 L 103.62892 38.51472 L 99.65274 43.46149 Z  " />
 <path d=" M 105.48317 39.15442 L 109.45935 35.92703 L 107.6051 34.9302 L 103.62892 38.51472 Z  " />
 <path d=" M 109.45935 35.92703 L 113.43553 33.73473 L 111.58128 32.52457 L 107.6051 34.9302 Z  " />
 <path d=" M 113.43553 33.73473 L 117.41171 32.26357 L 115.55746 30.94041 L 111.58128 32.52457 Z  " />
 <path d=" M 117.41171 32.26357 L 121.3879 31.21982 L 119.53365 29.84312 L 115.55746 30.94041 Z  " />
 <path d=" M 24.10535 45.06143 L 28.08151 43.96416 L 26.22725 42.51892 L 22.25108 43.63565 Z  " />
 <path d=" M 28.08151 43.96416 L 32.0577 42.38002 L 30.20343 40.89372 L 26.22725 42.51892 Z  " />
 <path d=" M 32.0577 42.38002 L 36.03387 39.97452 L 34.17961 38.41066 L 30.20343 40.89372 Z  " />
 <path d=" M 36.03387 39.97452 L 40.01006 36.39 L 38.15579 34.69649 L 34.17961 38.41066 Z  " />
 <path d=" M 40.01006 36.39 L 43.98624 31.44301 L 42.13197 29.55571 L 38.15579 34.69649 Z  " />
 <path d=" M 43.98624 31.44301 L 47.96242 25.39218 L 46.10815 23.26956 L 42.13197 29.55571 Z  " />
 <path d=" M 47.96242 25.39218 L 51.9386 19.23819 L 50.08434 16.87363 L 46.10815 23.26956 Z  " />
 <path d=" M 51.9386 19.23819 L 55.91478 14.65715 L 54.06052 12.11656 L 50.08434 16.87363 Z  " />
 <path d=" M 55.91478 14.65715 L 59.89095 13.58179 L 58.03668 11.02446 L 54.06052 12.11656 Z  " />
 <path d=" M 59.89095 13.58179 L 63.86713 17.36362 L 62.01286 15.00143 L 58.03668 11.02446 Z  " />
 <path d=" M 63.86713 17.36362 L 67.8433 25.91992 L 65.98904 23.96573 L 62.01286 15.00143 Z  " />
 <path d=" M 67.8433 25.91992 L 71.81949 37.45201 L 69.96523 36.03929 L 65.98904 23.96573 Z  " />
 <path d=" M 71.81949 37.45201 L 75.79567 48.98413 L 73.9414 48.1129 L 69.96523 36.03929 Z  " />
 <path d=" M 75.79567 48.98413 L 79.77185 57.5405 L 77.91759 57.07726 L 73.9414 48.1129 Z  " />
 <path d=" M 79.77185 57.5405 L 83.74803 61.3224 L 81.89377 61.05432 L 77.91759 57.07726 Z  " />
 <path d=" M 83.74803 61.3224 L 87.72421 60.24713 L 85.86995 59.96231 L 81.89377 61.05432 Z  " />
 <path d=" M 87.72421 60.24713 L 91.7004 55.6662 L 89.84613 55.20534 L 85.86995 59.96231 Z  " />
 <path d=" M 91.7004 55.6662 L 95.67656 49.51227 L 93.8223 48.80948 L 89.84613 55.20534 Z  " />
 <path d=" M 95.67656 49.51227 L 99.65274 43.46149 L 97.79848 42.52338 L 93.8223 48.80948 Z  " />
 <path d=" M 99.65274 43.46149 L 103.62892 38.51472 L 101.77466 37.38287 L 97.79848 42.52338 Z  " />
 <path d=" M 103.62892 38.51472 L 107.6051 34.9302 L 105.75084 33.66855 L 101.77466 37.38287 Z  " />
 <path d=" M 107.6051 34.9302 L 111.58128 32.52457 L 109.72702 31.18549 L 105.75084 33.66855 Z  " />
 <path d=" M 111.58128 32.52457 L 115.55746 30.94041 L 113.7032 29.56026 L 109.72702 31.18549 Z  " />
 <path d=" M 115.55746 30.94041 L 119.53365 29.84312 L 117.67938 28.4435 L 113.7032 29.56026 Z  " />
 <path d=" M 22.25108 43.63565 L 26.22725 42.51892 L 24.37299 41.13873 L 20.39682 42.23601 Z  " />
 <path d=" M 26.22725 42.51892 L 30.20343 40.89372 L 28.34917 39.5546 L 24.37299 41.13873 Z  " />
 <path d=" M 30.20343 40.89372 L 34.17961 38.41066 L 32.32535 37.1491 L 28.34917 39.5546 Z  " />
 <path d=" M 34.17961 38.41066 L 38.15579 34.69649 L 36.30153 33.56458 L 32.32535 37.1491 Z  " />
 <path d=" M 38.15579 34.69649 L 42.13197 29.55571 L 40.27771 28.61758 L 36.30153 33.56458 Z  " />
 <path d=" M 42.13197 29.55571 L 46.10815 23.26956 L 44.25389 22.56676 L 40.27771 28.61758 Z  " />
 <path d=" M 46.10815 23.26956 L 50.08434 16.87363 L 48.23007 16.41277 L 44.25389 22.56676 Z  " />
 <path d=" M 50.08434 16.87363 L 54.06052 12.11656 L 52.20625 11.83173 L 48.23007 16.41277 Z  " />
 <path d=" M 54.06052 12.11656 L 58.03668 11.02446 L 56.18242 10.75636 L 52.20625 11.83173 Z  " />
 <path d=" M 58.03668 11.02446 L 62.01286 15.00143 L 60.1586 14.5382 L 56.18242 10.75636 Z  " />
 <path d=" M 62.01286 15.00143 L 65.98904 23.96573 L 64.13478 23.0945 L 60.1586 14.5382 Z  " />
 <path d=" M 65.98904 23.96573 L 69.96523 36.03929 L 68.11096 34.62659 L 64.13478 23.0945 Z  " />
 <path d=" M 69.96523 36.03929 L 73.9414 48.1129 L 72.08714 46.1587 L 68.11096 34.62659 Z  " />
 <path d=" M 73.9414 48.1129 L 77.91759 57.07726 L 76.06332 54.71507 L 72.08714 46.1587 Z  " />
 <path d=" M 77.91759 57.07726 L 81.89377 61.05432 L 80.0395 58.49698 L 76.06332 54.71507 Z  " />
 <path d=" M 81.89377 61.05432 L 85.86995 59.96231 L 84.01569 57.4217 L 80.0395 58.49698 Z  " />
 <path d=" M 85.86995 59.96231 L 89.84613 55.20534 L 87.99187 52.84077 L 84.01569 57.4217 Z  " />
 <path d=" M 89.84613 55.20534 L 93.8223 48.80948 L 91.96803 46.68684 L 87.99187 52.84077 Z  " />
 <path d=" M 93.8223 48.80948 L 97.79848 42.52338 L 95.94421 40.63606 L 91.96803 46.68684 Z  " />
 <path d=" M 97.79848 42.52338 L 101.77466 37.38287 L 99.9204 35.6893 L 95.94421 40.63606 Z  " />
 <path d=" M 101.77466 37.38287 L 105.75084 33.66855 L 103.89658 32.1047 L 99.9204 35.6893 Z  " />
 <path d=" M 105.75084 33.66855 L 109.72702 31.18549 L 107.87276 29.69914 L 103.89658 32.1047 Z  " />
 <path d=" M 109.72702 31.18549 L 113.7032 29.56026 L 111.84894 28.11499 L 107.87276 29.69914 Z  " />
 <path d=" M 113.7032 29.56026 L 117.67938 28.4435 L 115.82512 27.01768 L 111.84894 28.11499 Z  " />
 <path d=" M 20.39682 42.23601 L 24.37299 41.13873 L 22.51874 39.81558 L 18.54257 40.8593 Z  " />
 <path d=" M 24.37299 41.13873 L 28.34917 39.5546 L 26.49492 38.34445 L 22.51874 39.81558 Z  " />
 <path d=" M 28.34917 39.5546 L 32.32535 37.1491 L 30.4711 36.15216 L 26.49492 38.34445 Z  " />
 <path d=" M 32.32535 37.1491 L 36.30153 33.56458 L 34.44728 32.92493 L 30.4711 36.15216 Z  " />
 <path d=" M 36.30153 33.56458 L 40.27771 28.61758 L 38.42346 28.49841 L 34.44728 32.92493 Z  " />
 <path d=" M 40.27771 28.61758 L 44.25389 22.56676 L 42.39964 23.10832 L 38.42346 28.49841 Z  " />
 <path d=" M 44.25389 22.56676 L 48.23007 16.41277 L 46.37582 17.62567 L 42.39964 23.10832 Z  " />
 <path d=" M 48.23007 16.41277 L 52.20625 11.83173 L 50.352 13.5251 L 46.37582 17.62567 Z  " />
 <path d=" M 52.20625 11.83173 L 56.18242 10.75636 L 54.32817 12.5 L 50.352 13.5251 Z  " />
 <path d=" M 56.18242 10.75636 L 60.1586 14.5382 L 58.30435 15.73943 L 54.32817 12.5 Z  " />
 <path d=" M 60.1586 14.5382 L 64.13478 23.0945 L 62.28053 23.16971 L 58.30435 15.73943 Z  " />
 <path d=" M 64.13478 23.0945 L 68.11096 34.62659 L 66.25671 33.21391 L 62.28053 23.16971 Z  " />
 <path d=" M 68.11096 34.62659 L 72.08714 46.1587 L 70.2329 43.25815 L 66.25671 33.21391 Z  " />
 <path d=" M 72.08714 46.1587 L 76.06332 54.71507 L 74.20908 50.68849 L 70.2329 43.25815 Z  " />
 <path d=" M 76.06332 54.71507 L 80.0395 58.49698 L 78.18526 53.928 L 74.20908 50.68849 Z  " />
 <path d=" M 80.0395 58.49698 L 84.01569 57.4217 L 82.16144 52.90297 L 78.18526 53.928 Z  " />
 <path d=" M 84.01569 57.4217 L 87.99187 52.84077 L 86.13762 48.80247 L 82.16144 52.90297 Z  " />
 <path d=" M 87.99187 52.84077 L 91.96803 46.68684 L 90.11378 43.3199 L 86.13762 48.80247 Z  " />
 <path d=" M 91.96803 46.68684 L 95.94421 40.63606 L 94.08997 37.92984 L 90.11378 43.3199 Z  " />
 <path d=" M 95.94421 40.63606 L 99.9204 35.6893 L 98.06615 33.5035 L 94.08997 37.92984 Z  " />
 <path d=" M 99.9204 35.6893 L 103.89658 32.1047 L 102.04233 30.2762 L 98.06615 33.5035 Z  " />
 <path d=" M 103.89658 32.1047 L 107.87276 29.69914 L 106.01851 28.0839 L 102.04233 30.2762 Z  " />
 <path d=" M 107.87276 29.69914 L 111.84894 28.11499 L 109.99469 26.61273 L 106.01851 28.0839 Z  " />
 <path d=" M 111.84894 28.11499 L 115.82512 27.01768 L 113.97087 25.56898 L 109.99469 26.61273 Z  " />
 <path d=" M 18.54257 40.8593 L 22.51874 39.81558 L 20.66447 38.5285 L 16.68831 39.4971 Z  " />
 <path d=" M 22.51874 39.81558 L 26.49492 38.34445 L 24.64066 37.21584 L 20.66447 38.5285 Z  " />
 <path d=" M 26.49492 38.34445 L 30.4711 36.15216 L 28.61684 35.32278 L 24.64066 37.21584 Z  " />
 <path d=" M 30.4711 36.15216 L 34.44728 32.92493 L 32.59302 32.5966 L 28.61684 35.32278 Z  " />
 <path d=" M 34.44728 32.92493 L 38.42346 28.49841 L 36.5692 28.905 L 32.59302 32.5966 Z  " />
 <path d=" M 38.42346 28.49841 L 42.39964 23.10832 L 40.54538 24.44034 L 36.5692 28.905 Z  " />
 <path d=" M 42.39964 23.10832 L 46.37582 17.62567 L 44.52156 19.89613 L 40.54538 24.44034 Z  " />
 <path d=" M 46.37582 17.62567 L 50.352 13.5251 L 48.49774 16.46866 L 44.52156 19.89613 Z  " />
 <path d=" M 50.352 13.5251 L 54.32817 12.5 L 52.4739 15.51509 L 48.49774 16.46866 Z  " />
 <path d=" M 54.32817 12.5 L 58.30435 15.73943 L 56.45009 17.99196 L 52.4739 15.51509 Z  " />
 <path d=" M 58.30435 15.73943 L 62.28053 23.16971 L 60.42627 23.8445 L 56.45009 17.99196 Z  " />
 <path d=" M 62.28053 23.16971 L 66.25671 33.21391 L 64.40245 31.80125 L 60.42627 23.8445 Z  " />
 <path d=" M 66.25671 33.21391 L 70.2329 43.25815 L 68.37863 39.75804 L 64.40245 31.80125 Z  " />
 <path d=" M 70.2329 43.25815 L 74.20908 50.68849 L 72.35481 45.61061 L 68.37863 39.75804 Z  " />
 <path d=" M 74.20908 50.68849 L 78.18526 53.928 L 76.331 48.08755 L 72.35481 45.61061 Z  " />
 <path d=" M 78.18526 53.928 L 82.16144 52.90297 L 80.30717 47.13403 L 76.331 48.08755 Z  " />
 <path d=" M 82.16144 52.90297 L 86.13762 48.80247 L 84.28336 43.70662 L 80.30717 47.13403 Z  " />
 <path d=" M 86.13762 48.80247 L 90.11378 43.3199 L 88.25952 39.16248 L 84.28336 43.70662 Z  " />
 <path d=" M 90.11378 43.3199 L 94.08997 37.92984 L 92.2357 34.6979 L 88.25952 39.16248 Z  " />
 <path d=" M 94.08997 37.92984 L 98.06615 33.5035 L 96.21188 31.00641 L 92.2357 34.6979 Z  " />
 <path d=" M 98.06615 33.5035 L 102.04233 30.2762 L 100.18806 28.28021 L 96.21188 31.00641 Z  " />
 <path d=" M 102.04233 30.2762 L 106.01851 28.0839 L 104.16425 26.38708 L 100.18806 28.28021 Z  " />
 <path d=" M 106.01851 28.0839 L 109.99469 26.61273 L 108.14043 25.0744 L 104.16425 26.38708 Z  " />
 <path d=" M 109.99469 26.61273 L 113.97087 25.56898 L 112.11661 24.10577 L 108.14043 25.0744 Z  " />
 <path d=" M 16.68831 39.4971 L 20.66447 38.5285 L 18.81023 37.2516 L 14.83406 38.13899 Z  " />
 <path d=" M 20.66447 38.5285 L 24.64066 37.21584 L 22.7864 36.11028 L 18.81023 37.2516 Z  " />
 <path d=" M 24.64066 37.21584 L 28.61684 35.32278 L 26.76259 34.54065 L 22.7864 36.11028 Z  " />
 <path d=" M 28.61684 35.32278 L 32.59302 32.5966 L 30.73877 32.35616 L 26.76259 34.54065 Z  " />
 <path d=" M 32.59302 32.5966 L 36.5692 28.905 L 34.71495 29.45926 L 30.73877 32.35616 Z  " />
 <path d=" M 36.5692 28.905 L 40.54538 24.44034 L 38.69113 25.9965 L 34.71495 29.45926 Z  " />
 <path d=" M 40.54538 24.44034 L 44.52156 19.89613 L 42.66731 22.46638 L 38.69113 25.9965 Z  " />
 <path d=" M 44.52156 19.89613 L 48.49774 16.46866 L 46.6435 19.76318 L 42.66731 22.46638 Z  " />
 <path d=" M 48.49774 16.46866 L 52.4739 15.51509 L 50.61966 18.88913 L 46.6435 19.76318 Z  " />
 <path d=" M 52.4739 15.51509 L 56.45009 17.99196 L 54.59584 20.54416 L 50.61966 18.88913 Z  " />
 <path d=" M 56.45009 17.99196 L 60.42627 23.8445 L 58.57202 24.68987 L 54.59584 20.54416 Z  " />
 <path d=" M 60.42627 23.8445 L 64.40245 31.80125 L 62.5482 30.3886 L 58.57202 24.68987 Z  " />
 <path d=" M 64.40245 31.80125 L 68.37863 39.75804 L 66.52438 36.08736 L 62.5482 30.3886 Z  " />
 <path d=" M 68.37863 39.75804 L 72.35481 45.61061 L 70.50056 40.2331 L 66.52438 36.08736 Z  " />
 <path d=" M 72.35481 45.61061 L 76.331 48.08755 L 74.47675 41.88817 L 70.50056 40.2331 Z  " />
 <path d=" M 76.331 48.08755 L 80.30717 47.13403 L 78.45293 41.01416 L 74.47675 41.88817 Z  " />
 <path d=" M 80.30717 47.13403 L 84.28336 43.70662 L 82.42911 38.31099 L 78.45293 41.01416 Z  " />
 <path d=" M 84.28336 43.70662 L 88.25952 39.16248 L 86.40527 34.78093 L 82.42911 38.31099 Z  " />
 <path d=" M 88.25952 39.16248 L 92.2357 34.6979 L 90.38145 31.3183 L 86.40527 34.78093 Z  " />
 <path d=" M 92.2357 34.6979 L 96.21188 31.00641 L 94.35764 28.4214 L 90.38145 31.3183 Z  " />
 <path d=" M 96.21188 31.00641 L 100.18806 28.28021 L 98.33382 26.23688 L 94.35764 28.4214 Z  " />
 <path d=" M 100.18806 28.28021 L 104.16425 26.38708 L 102.31 24.6672 L 98.33382 26.23688 Z  " />
 <path d=" M 104.16425 26.38708 L 108.14043 25.0744 L 106.28618 23.5259 L 102.31 24.6672 Z  " />
 <path d=" M 108.14043 25.0744 L 112.11661 24.10577 L 110.26236 22.63847 L 106.28618 23.5259 Z  " />
 <path d=" M 14.83406 38.13899 L 18.81023 37.2516 L 16.95596 35.96259 L 12.9798 36.77602 Z  " />
 <path d=" M 18.81023 37.2516 L 22.7864 36.11028 L 20.93214 34.97733 L 16.95596 35.96259 Z  " />
 <path d=" M 22.7864 36.11028 L 26.76259 34.54065 L 24.90833 33.70229 L 20.93214 34.97733 Z  " />
 <path d=" M 26.76259 34.54065 L 30.73877 32.35616 L 28.8845 32.01117 L 24.90833 33.70229 Z  " />
 <path d=" M 30.73877 32.35616 L 34.71495 29.45926 L 32.86069 29.83807 L 28.8845 32.01117 Z  " />
 <path d=" M 34.71495 29.45926 L 38.69113 25.9965 L 36.83687 27.27904 L 32.86069 29.83807 Z  " />
 <path d=" M 38.69113 25.9965 L 42.66731 22.46638 L 40.81305 24.68369 L 36.83687 27.27904 Z  " />
 <path d=" M 42.66731 22.46638 L 46.6435 19.76318 L 44.78923 22.63815 L 40.81305 24.68369 Z  " />
 <path d=" M 46.6435 19.76318 L 50.61966 18.88913 L 48.7654 21.83282 L 44.78923 22.63815 Z  " />
 <path d=" M 50.61966 18.88913 L 54.59584 20.54416 L 52.74158 22.7406 L 48.7654 21.83282 Z  " />
 <path d=" M 54.59584 20.54416 L 58.57202 24.68987 L 56.71776 25.33315 L 52.74158 22.7406 Z  " />
 <path d=" M 58.57202 24.68987 L 62.5482 30.3886 L 60.69394 28.97594 L 56.71776 25.33315 Z  " />
 <path d=" M 62.5482 30.3886 L 66.52438 36.08736 L 64.67012 32.61874 L 60.69394 28.97594 Z  " />
 <path d=" M 66.52438 36.08736 L 70.50056 40.2331 L 68.6463 35.21132 L 64.67012 32.61874 Z  " />
 <path d=" M 70.50056 40.2331 L 74.47675 41.88817 L 72.62248 36.11913 L 68.6463 35.21132 Z  " />
 <path d=" M 74.47675 41.88817 L 78.45293 41.01416 L 76.59866 35.31383 L 72.62248 36.11913 Z  " />
 <path d=" M 78.45293 41.01416 L 82.42911 38.31099 L 80.57484 33.26833 L 76.59866 35.31383 Z  " />
 <path d=" M 82.42911 38.31099 L 86.40527 34.78093 L 84.55101 30.67319 L 80.57484 33.26833 Z  " />
 <path d=" M 86.40527 34.78093 L 90.38145 31.3183 L 88.52719 28.11404 L 84.55101 30.67319 Z  " />
 <path d=" M 90.38145 31.3183 L 94.35764 28.4214 L 92.50337 25.94093 L 88.52719 28.11404 Z  " />
 <path d=" M 94.35764 28.4214 L 98.33382 26.23688 L 96.47955 24.2498 L 92.50337 25.94093 Z  " />
 <path d=" M 98.33382 26.23688 L 102.31 24.6672 L 100.45573 22.97473 L 96.47955 24.2498 Z  " />
 <path d=" M 102.31 24.6672 L 106.28618 23.5259 L 104.43192 21.98949 L 100.45573 22.97473 Z  " />
 <path d=" M 106.28618 23.5259 L 110.26236 22.63847 L 108.4081 21.17604 L 104.43192 21.98949 Z  " />
 <path d=" M 12.9798 36.77602 L 16.95596 35.96259 L 15.1017 34.64813 L 11.12553 35.4028 Z  " />
 <path d=" M 16.95596 35.96259 L 20.93214 34.97733 L 19.07788 33.78687 L 15.1017 34.64813 Z  " />
 <path d=" M 20.93214 34.97733 L 24.90833 33.70229 L 23.05406 32.7458 L 19.07788 33.78687 Z  " />
 <path d=" M 24.90833 33.70229 L 28.8845 32.01117 L 27.03024 31.44666 L 23.05406 32.7458 Z  " />
 <path d=" M 28.8845 32.01117 L 32.86069 29.83807 L 31.00642 29.84846 L 27.03024 31.44666 Z  " />
 <path d=" M 32.86069 29.83807 L 36.83687 27.27904 L 34.9826 28.01079 L 31.00642 29.84846 Z  " />
 <path d=" M 36.83687 27.27904 L 40.81305 24.68369 L 38.95879 26.14915 L 34.9826 28.01079 Z  " />
 <path d=" M 40.81305 24.68369 L 44.78923 22.63815 L 42.93497 24.63516 L 38.95879 26.14915 Z  " />
 <path d=" M 44.78923 22.63815 L 48.7654 21.83282 L 46.91113 23.88275 L 42.93497 24.63516 Z  " />
 <path d=" M 48.7654 21.83282 L 52.74158 22.7406 L 50.88731 24.19469 L 46.91113 23.88275 Z  " />
 <path d=" M 52.74158 22.7406 L 56.71776 25.33315 L 54.8635 25.55327 L 50.88731 24.19469 Z  " />
 <path d=" M 56.71776 25.33315 L 60.69394 28.97594 L 58.83968 27.56326 L 54.8635 25.55327 Z  " />
 <path d=" M 60.69394 28.97594 L 64.67012 32.61874 L 62.81586 29.57329 L 58.83968 27.56326 Z  " />
 <path d=" M 64.67012 32.61874 L 68.6463 35.21132 L 66.79204 30.93187 L 62.81586 29.57329 Z  " />
 <path d=" M 68.6463 35.21132 L 72.62248 36.11913 L 70.76822 31.24384 L 66.79204 30.93187 Z  " />
 <path d=" M 72.62248 36.11913 L 76.59866 35.31383 L 74.7444 30.49144 L 70.76822 31.24384 Z  " />
 <path d=" M 76.59866 35.31383 L 80.57484 33.26833 L 78.72058 28.97762 L 74.7444 30.49144 Z  " />
 <path d=" M 80.57484 33.26833 L 84.55101 30.67319 L 82.69675 27.11588 L 78.72058 28.97762 Z  " />
 <path d=" M 84.55101 30.67319 L 88.52719 28.11404 L 86.67293 25.27823 L 82.69675 27.11588 Z  " />
 <path d=" M 88.52719 28.11404 L 92.50337 25.94093 L 90.64911 23.68004 L 86.67293 25.27823 Z  " />
 <path d=" M 92.50337 25.94093 L 96.47955 24.2498 L 94.62529 22.38089 L 90.64911 23.68004 Z  " />
 <path d=" M 96.47955 24.2498 L 100.45573 22.97473 L 98.60147 21.3398 L 94.62529 22.38089 Z  " />
 <path d=" M 100.45573 22.97473 L 104.43192 21.98949 L 102.57765 20.47853 L 98.60147 21.3398 Z  " />
 <path d=" M 104.43192 21.98949 L 108.4081 21.17604 L 106.55383 19.72383 L 102.57765 20.47853 Z  " />
 <path d=" M 11.12553 35.4028 L 15.1017 34.64813 L 13.24745 33.30466 L 9.27129 34.01793 Z  " />
 <path d=" M 15.1017 34.64813 L 19.07788 33.78687 L 17.22363 32.53075 L 13.24745 33.30466 Z  " />
 <path d=" M 19.07788 33.78687 L 23.05406 32.7458 L 21.19981 31.65457 L 17.22363 32.53075 Z  " />
 <path d=" M 23.05406 32.7458 L 27.03024 31.44666 L 25.176 30.63159 L 21.19981 31.65457 Z  " />
 <path d=" M 27.03024 31.44666 L 31.00642 29.84846 L 29.15218 29.43854 L 25.176 30.63159 Z  " />
 <path d=" M 31.00642 29.84846 L 34.9826 28.01079 L 33.12836 28.10928 L 29.15218 29.43854 Z  " />
 <path d=" M 34.9826 28.01079 L 38.95879 26.14915 L 37.10454 26.76634 L 33.12836 28.10928 Z  " />
 <path d=" M 38.95879 26.14915 L 42.93497 24.63516 L 41.08072 25.61948 L 37.10454 26.76634 Z  " />
 <path d=" M 42.93497 24.63516 L 46.91113 23.88275 L 45.05688 24.90926 L 41.08072 25.61948 Z  " />
 <path d=" M 46.91113 23.88275 L 50.88731 24.19469 L 49.03307 24.80324 L 45.05688 24.90926 Z  " />
 <path d=" M 50.88731 24.19469 L 54.8635 25.55327 L 53.00925 25.29211 L 49.03307 24.80324 Z  " />
 <path d=" M 54.8635 25.55327 L 58.83968 27.56326 L 56.98543 26.15057 L 53.00925 25.29211 Z  " />
 <path d=" M 58.83968 27.56326 L 62.81586 29.57329 L 60.96161 27.00905 L 56.98543 26.15057 Z  " />
 <path d=" M 62.81586 29.57329 L 66.79204 30.93187 L 64.93779 27.49792 L 60.96161 27.00905 Z  " />
 <path d=" M 66.79204 30.93187 L 70.76822 31.24384 L 68.91397 27.39192 L 64.93779 27.49792 Z  " />
 <path d=" M 70.76822 31.24384 L 74.7444 30.49144 L 72.89015 26.68178 L 68.91397 27.39192 Z  " />
 <path d=" M 74.7444 30.49144 L 78.72058 28.97762 L 76.86633 25.5349 L 72.89015 26.68178 Z  " />
 <path d=" M 78.72058 28.97762 L 82.69675 27.11588 L 80.8425 24.19196 L 76.86633 25.5349 Z  " />
 <path d=" M 82.69675 27.11588 L 86.67293 25.27823 L 84.81868 22.86272 L 80.8425 24.19196 Z  " />
 <path d=" M 86.67293 25.27823 L 90.64911 23.68004 L 88.79486 21.66965 L 84.81868 22.86272 Z  " />
 <path d=" M 90.64911 23.68004 L 94.62529 22.38089 L 92.77104 20.64667 L 88.79486 21.66965 Z  " />
 <path d=" M 94.62529 22.38089 L 98.60147 21.3398 L 96.74722 19.77048 L 92.77104 20.64667 Z  " />
 <path d=" M 98.60147 21.3398 L 102.57765 20.47853 L 100.7234 18.99657 L 96.74722 19.77048 Z  " />
 <path d=" M 102.57765 20.47853 L 106.55383 19.72383 L 104.69958 18.28328 L 100.7234 18.99657 Z  " />
 <path d=" M 9.27129 34.01793 L 13.24745 33.30466 L 11.39319 31.93565 L 7.41702 32.62279 Z  " />
 <path d=" M 13.24745 33.30466 L 17.22363 32.53075 L 15.36937 31.21687 L 11.39319 31.93565 Z  " />
 <path d=" M 17.22363 32.53075 L 21.19981 31.65457 L 19.34555 30.44478 L 15.36937 31.21687 Z  " />
 <path d=" M 21.19981 31.65457 L 25.176 30.63159 L 23.32173 29.59613 L 19.34555 30.44478 Z  " />
 <path d=" M 25.176 30.63159 L 29.15218 29.43854 L 27.29791 28.65877 L 23.32173 29.59613 Z  " />
 <path d=" M 29.15218 29.43854 L 33.12836 28.10928 L 31.2741 27.65039 L 27.29791 28.65877 Z  " />
 <path d=" M 33.12836 28.10928 L 37.10454 26.76634 L 35.25027 26.63486 L 31.2741 27.65039 Z  " />
 <path d=" M 37.10454 26.76634 L 41.08072 25.61948 L 39.22646 25.72162 L 35.25027 26.63486 Z  " />
 <path d=" M 41.08072 25.61948 L 45.05688 24.90926 L 43.20262 25.03609 L 39.22646 25.72162 Z  " />
 <path d=" M 45.05688 24.90926 L 49.03307 24.80324 L 47.1788 24.66559 L 43.20262 25.03609 Z  " />
 <path d=" M 49.03307 24.80324 L 53.00925 25.29211 L 51.15498 24.6051 L 47.1788 24.66559 Z  " />
 <path d=" M 53.00925 25.29211 L 56.98543 26.15057 L 55.13116 24.73788 L 51.15498 24.6051 Z  " />
 <path d=" M 56.98543 26.15057 L 60.96161 27.00905 L 59.10735 24.87067 L 55.13116 24.73788 Z  " />
 <path d=" M 60.96161 27.00905 L 64.93779 27.49792 L 63.08353 24.81021 L 59.10735 24.87067 Z  " />
 <path d=" M 64.93779 27.49792 L 68.91397 27.39192 L 67.05971 24.43974 L 63.08353 24.81021 Z  " />
 <path d=" M 68.91397 27.39192 L 72.89015 26.68178 L 71.03589 23.7542 L 67.05971 24.43974 Z  " />
 <path d=" M 72.89015 26.68178 L 76.86633 25.5349 L 75.01207 22.84093 L 71.03589 23.7542 Z  " />
 <path d=" M 76.86633 25.5349 L 80.8425 24.19196 L 78.98824 21.82542 L 75.01207 22.84093 Z  " />
 <path d=" M 80.8425 24.19196 L 84.81868 22.86272 L 82.96442 20.81705 L 78.98824 21.82542 Z  " />
 <path d=" M 84.81868 22.86272 L 88.79486 21.66965 L 86.9406 19.8797 L 82.96442 20.81705 Z  " />
 <path d=" M 88.79486 21.66965 L 92.77104 20.64667 L 90.91678 19.03104 L 86.9406 19.8797 Z  " />
 <path d=" M 92.77104 20.64667 L 96.74722 19.77048 L 94.89296 18.25893 L 90.91678 19.03104 Z  " />
 <path d=" M 96.74722 19.77048 L 100.7234 18.99657 L 98.86914 17.54016 L 94.89296 18.25893 Z  " />
 <path d=" M 100.7234 18.99657 L 104.69958 18.28328 L 102.84532 16.85301 L 98.86914 17.54016 Z  " />
 <path d=" M 7.41702 32.62279 L 11.39319 31.93565 L 9.53893 30.54779 L 5.56276 31.22008 Z  " />
 <path d=" M 11.39319 31.93565 L 15.36937 31.21687 L 13.5151 29.86038 L 9.53893 30.54779 Z  " />
 <path d=" M 15.36937 31.21687 L 19.34555 30.44478 L 17.49129 29.14749 L 13.5151 29.86038 Z  " />
 <path d=" M 19.34555 30.44478 L 23.32173 29.59613 L 21.46747 28.39798 L 17.49129 29.14749 Z  " />
 <path d=" M 23.32173 29.59613 L 27.29791 28.65877 L 25.44365 27.60606 L 21.46747 28.39798 Z  " />
 <path d=" M 27.29791 28.65877 L 31.2741 27.65039 L 29.41983 26.78018 L 25.44365 27.60606 Z  " />
 <path d=" M 31.2741 27.65039 L 35.25027 26.63486 L 33.39601 25.95088 L 29.41983 26.78018 Z  " />
 <path d=" M 35.25027 26.63486 L 39.22646 25.72162 L 37.3722 25.1705 L 33.39601 25.95088 Z  " />
 <path d=" M 39.22646 25.72162 L 43.20262 25.03609 L 41.34836 24.49898 L 37.3722 25.1705 Z  " />
 <path d=" M 43.20262 25.03609 L 47.1788 24.66559 L 45.32454 23.97809 L 41.34836 24.49898 Z  " />
 <path d=" M 47.1788 24.66559 L 51.15498 24.6051 L 49.30072 23.60544 L 45.32454 23.97809 Z  " />
 <path d=" M 51.15498 24.6051 L 55.13116 24.73788 L 53.2769 23.32518 L 49.30072 23.60544 Z  " />
 <path d=" M 55.13116 24.73788 L 59.10735 24.87067 L 57.25308 23.04495 L 53.2769 23.32518 Z  " />
 <path d=" M 59.10735 24.87067 L 63.08353 24.81021 L 61.22926 22.6723 L 57.25308 23.04495 Z  " />
 <path d=" M 63.08353 24.81021 L 67.05971 24.43974 L 65.20544 22.15144 L 61.22926 22.6723 Z  " />
 <path d=" M 67.05971 24.43974 L 71.03589 23.7542 L 69.18163 21.4799 L 65.20544 22.15144 Z  " />
 <path d=" M 71.03589 23.7542 L 75.01207 22.84093 L 73.1578 20.69951 L 69.18163 21.4799 Z  " />
 <path d=" M 75.01207 22.84093 L 78.98824 21.82542 L 77.13397 19.87024 L 73.1578 20.69951 Z  " />
 <path d=" M 78.98824 21.82542 L 82.96442 20.81705 L 81.11015 19.04434 L 77.13397 19.87024 Z  " />
 <path d=" M 82.96442 20.81705 L 86.9406 19.8797 L 85.08633 18.25243 L 81.11015 19.04434 Z  " />
 <path d=" M 86.9406 19.8797 L 90.91678 19.03104 L 89.06252 17.50291 L 85.08633 18.25243 Z  " />
 <path d=" M 90.91678 19.03104 L 94.89296 18.25893 L 93.0387 16.79001 L 89.06252 17.50291 Z  " />
 <path d=" M 94.89296 18.25893 L 98.86914 17.54016 L 97.01488 16.1026 L 93.0387 16.79001 Z  " />
 <path d=" M 98.86914 17.54016 L 102.84532 16.85301 L 100.99106 15.43031 L 97.01488 16.1026 Z  " />
 <path d=" M 5.56276 31.22008 L 9.53893 30.54779 L 7.68468 29.14789 L 3.70851 29.81252 Z  " />
 <path d=" M 9.53893 30.54779 L 13.5151 29.86038 L 11.66086 28.47661 L 7.68468 29.14789 Z  " />
 <path d=" M 13.5151 29.86038 L 17.49129 29.14749 L 15.63704 27.79417 L 11.66086 28.47661 Z  " />
 <path d=" M 17.49129 29.14749 L 21.46747 28.39798 L 19.61322 27.09567 L 15.63704 27.79417 Z  " />
 <path d=" M 21.46747 28.39798 L 25.44365 27.60606 L 23.5894 26.3786 L 19.61322 27.09567 Z  " />
 <path d=" M 25.44365 27.60606 L 29.41983 26.78018 L 27.56558 25.64662 L 23.5894 26.3786 Z  " />
 <path d=" M 29.41983 26.78018 L 33.39601 25.95088 L 31.54176 24.91315 L 27.56558 25.64662 Z  " />
 <path d=" M 33.39601 25.95088 L 37.3722 25.1705 L 35.51794 24.20111 L 31.54176 24.91315 Z  " />
 <path d=" M 37.3722 25.1705 L 41.34836 24.49898 L 39.49411 23.5368 L 35.51794 24.20111 Z  " />
 <path d=" M 41.34836 24.49898 L 45.32454 23.97809 L 43.47029 22.93857 L 39.49411 23.5368 Z  " />
 <path d=" M 45.32454 23.97809 L 49.30072 23.60544 L 47.44647 22.40527 L 43.47029 22.93857 Z  " />
 <path d=" M 49.30072 23.60544 L 53.2769 23.32518 L 51.42265 21.91249 L 47.44647 22.40527 Z  " />
 <path d=" M 53.2769 23.32518 L 57.25308 23.04495 L 55.39883 21.41972 L 51.42265 21.91249 Z  " />
 <path d=" M 57.25308 23.04495 L 61.22926 22.6723 L 59.37502 20.88643 L 55.39883 21.41972 Z  " />
 <path d=" M 61.22926 22.6723 L 65.20544 22.15144 L 63.3512 20.2882 L 59.37502 20.88643 Z  " />
 <path d=" M 65.20544 22.15144 L 69.18163 21.4799 L 67.32738 19.62389 L 63.3512 20.2882 Z  " />
 <path d=" M 69.18163 21.4799 L 73.1578 20.69951 L 71.30356 18.91183 L 67.32738 19.62389 Z  " />
 <path d=" M 73.1578 20.69951 L 77.13397 19.87024 L 75.27972 18.17838 L 71.30356 18.91183 Z  " />
 <path d=" M 77.13397 19.87024 L 81.11015 19.04434 L 79.2559 17.4464 L 75.27972 18.17838 Z  " />
 <path d=" M 81.11015 19.04434 L 85.08633 18.25243 L 83.23209 16.72932 L 79.2559 17.4464 Z  " />
 <path d=" M 85.08633 18.25243 L 89.06252 17.50291 L 87.20827 16.03082 L 83.23209 16.72932 Z  " />
 <path d=" M 89.06252 17.50291 L 93.0387 16.79001 L 91.18445 15.34837 L 87.20827 16.03082 Z  " />
 <path d=" M 93.0387 16.79001 L 97.01488 16.1026 L 95.16063 14.67711 L 91.18445 15.34837 Z  " />
 <path d=" M 97.01488 16.1026 L 100.99106 15.43031 L 99.13681 14.01247 L 95.16063 14.67711 Z  " />
 <path d=" M 3.70851 29.81252 L 7.68468 29.14789 L 5.83041 27.74115 L 1.85425 28.4022 Z  " />
 <path d=" M 7.68468 29.14789 L 11.66086 28.47661 L 9.8066 27.07741 L 5.83041 27.74115 Z  " />
 <path d=" M 11.66086 28.47661 L 15.63704 27.79417 L 13.78278 26.4092 L 9.8066 27.07741 Z  " />
 <path d=" M 15.63704 27.79417 L 19.61322 27.09567 L 17.75896 25.73451 L 13.78278 26.4092 Z  " />
 <path d=" M 19.61322 27.09567 L 23.5894 26.3786 L 21.73514 25.05237 L 17.75896 25.73451 Z  " />
 <path d=" M 23.5894 26.3786 L 27.56558 25.64662 L 25.71132 24.36423 L 21.73514 25.05237 Z  " />
 <path d=" M 27.56558 25.64662 L 31.54176 24.91315 L 29.6875 23.67549 L 25.71132 24.36423 Z  " />
 <path d=" M 31.54176 24.91315 L 35.51794 24.20111 L 33.66368 22.99538 L 29.6875 23.67549 Z  " />
 <path d=" M 35.51794 24.20111 L 39.49411 23.5368 L 37.63985 22.33444 L 33.66368 22.99538 Z  " />
 <path d=" M 39.49411 23.5368 L 43.47029 22.93857 L 41.61603 21.70006 L 37.63985 22.33444 Z  " />
 <path d=" M 43.47029 22.93857 L 47.44647 22.40527 L 45.59221 21.09178 L 41.61603 21.70006 Z  " />
 <path d=" M 47.44647 22.40527 L 51.42265 21.91249 L 49.56839 20.49979 L 45.59221 21.09178 Z  " />
 <path d=" M 51.42265 21.91249 L 55.39883 21.41972 L 53.54457 19.9078 L 49.56839 20.49979 Z  " />
 <path d=" M 55.39883 21.41972 L 59.37502 20.88643 L 57.52075 19.29953 L 53.54457 19.9078 Z  " />
 <path d=" M 59.37502 20.88643 L 63.3512 20.2882 L 61.49693 18.66515 L 57.52075 19.29953 Z  " />
 <path d=" M 63.3512 20.2882 L 67.32738 19.62389 L 65.47311 18.00421 L 61.49693 18.66515 Z  " />
 <path d=" M 67.32738 19.62389 L 71.30356 18.91183 L 69.4493 17.32408 L 65.47311 18.00421 Z  " />
 <path d=" M 71.30356 18.91183 L 75.27972 18.17838 L 73.42546 16.63536 L 69.4493 17.32408 Z  " />
 <path d=" M 75.27972 18.17838 L 79.2559 17.4464 L 77.40164 15.94722 L 73.42546 16.63536 Z  " />
 <path d=" M 79.2559 17.4464 L 83.23209 16.72932 L 81.37782 15.26508 L 77.40164 15.94722 Z  " />
 <path d=" M 83.23209 16.72932 L 87.20827 16.03082 L 85.354 14.5904 L 81.37782 15.26508 Z  " />
 <path d=" M 87.20827 16.03082 L 91.18445 15.34837 L 89.33018 13.92216 L 85.354 14.5904 Z  " />
 <path d=" M 91.18445 15.34837 L 95.16063 14.67711 L 93.30637 13.25844 L 89.33018 13.92216 Z  " />
 <path d=" M 95.16063 14.67711 L 99.13681 14.01247 L 97.28255 12.59737 L 93.30637 13.25844 Z  " />
 <path d=" M 1.85425 28.4022 L 5.83041 27.74115 L 3.97617 26.33098 L 0.0 26.99052 Z  " />
 <path d=" M 5.83041 27.74115 L 9.8066 27.07741 L 7.95235 25.67044 L 3.97617 26.33098 Z  " />
 <path d=" M 9.8066 27.07741 L 13.78278 26.4092 L 11.92853 25.00826 L 7.95235 25.67044 Z  " />
 <path d=" M 13.78278 26.4092 L 17.75896 25.73451 L 15.90471 24.34367 L 11.92853 25.00826 Z  " />
 <path d=" M 17.75896 25.73451 L 21.73514 25.05237 L 19.88089 23.67636 L 15.90471 24.34367 Z  " />
 <path d=" M 21.73514 25.05237 L 25.71132 24.36423 L 23.85707 23.00684 L 19.88089 23.67636 Z  " />
 <path d=" M 25.71132 24.36423 L 29.6875 23.67549 L 27.83325 22.33708 L 23.85707 23.00684 Z  " />
 <path d=" M 29.6875 23.67549 L 33.66368 22.99538 L 31.80943 21.67052 L 27.83325 22.33708 Z  " />
 <path d=" M 33.66368 22.99538 L 37.63985 22.33444 L 35.7856 21.011 L 31.80943 21.67052 Z  " />
 <path d=" M 37.63985 22.33444 L 41.61603 21.70006 L 39.76178 20.36128 L 35.7856 21.011 Z  " />
 <path d=" M 41.61603 21.70006 L 45.59221 21.09178 L 43.73796 19.72118 L 39.76178 20.36128 Z  " />
 <path d=" M 45.59221 21.09178 L 49.56839 20.49979 L 47.71414 19.08708 L 43.73796 19.72118 Z  " />
 <path d=" M 49.56839 20.49979 L 53.54457 19.9078 L 51.69032 18.45299 L 47.71414 19.08708 Z  " />
 <path d=" M 53.54457 19.9078 L 57.52075 19.29953 L 55.6665 17.81288 L 51.69032 18.45299 Z  " />
 <path d=" M 57.52075 19.29953 L 61.49693 18.66515 L 59.64268 17.16318 L 55.6665 17.81288 Z  " />
 <path d=" M 61.49693 18.66515 L 65.47311 18.00421 L 63.61887 16.50366 L 59.64268 17.16318 Z  " />
 <path d=" M 65.47311 18.00421 L 69.4493 17.32408 L 67.59505 15.83708 L 63.61887 16.50366 Z  " />
 <path d=" M 69.4493 17.32408 L 73.42546 16.63536 L 71.57121 15.16734 L 67.59505 15.83708 Z  " />
 <path d=" M 73.42546 16.63536 L 77.40164 15.94722 L 75.5474 14.49782 L 71.57121 15.16734 Z  " />
 <path d=" M 77.40164 15.94722 L 81.37782 15.26508 L 79.52357 13.83049 L 75.5474 14.49782 Z  " />
 <path d=" M 81.37782 15.26508 L 85.354 14.5904 L 83.49976 13.16592 L 79.52357 13.83049 Z  " />
 <path d=" M 85.354 14.5904 L 89.33018 13.92216 L 87.47594 12.50372 L 83.49976 13.16592 Z  " />
 <path d=" M 89.33018 13.92216 L 93.30637 13.25844 L 91.45212 11.8432 L 87.47594 12.50372 Z  " />
 <path d=" M 93.30637 13.25844 L 97.28255 12.59737 L 95.4283 11.18364 L 91.45212 11.8432 Z  " />
 <path d="  " fill="none"/>
 </g>
 </g>
 </g>
 </g>
 
                                  </g> 
</svg> 
