<?xml version="1.0" encoding="iso-8859-1" standalone="no"?> 
<?xml-stylesheet href="SVGOut.css" type="text/css"?> 
<svg xmlns="http://www.w3.org/2000/svg" xmlns:xlink="http://www.w3.org/1999/xlink" width="173.66846pt" height="166.55728pt" viewBox="-91.83424 -83.27864 173.66846 166.55728 "> 
<g transform="translate(0,83.27864 ) scale(1,-1) translate(0,83.27864 )"> 
                 <g stroke="white" fill="#000">
 <g stroke-width="0.4">
 <g stroke-width="0.4">
 <g stroke="#c0c0c0" fill="#c0c0c0">
 <path d=" M 0.0 0.0 L 69.96826 0.0 M 0.0 0.0 L 49.47508 49.47508 M 0.0 0.0 L 0.0 69.96826 M 0.0 0.0 L -49.47508 49.47508 M 0.0 0.0 L -69.96826 0.0 M 0.0 0.0 L -49.47508 -49.47508 M 0.0 0.0 L 0.0 -69.96826 M 0.0 0.0 L 49.47508 -49.47508  " fill="none"/>
 </g>
 </g>
 <g stroke-width="0.4">
 <g stroke="#c0c0c0" fill="#c0c0c0">
 <path d=" M 0.0 0.0 C 0.0 0.0 0.0 0.0 0.0 0.0 C 0.0 0.0 0.0 0.0 0.0 0.0 C 0.0 0.0 0.0 0.0 0.0 0.0 C 0.0 0.0 0.0 0.0 0.0 0.0 M 25.44556 0.0 C 25.44556 14.05336 14.05336 25.44556 0.0 25.44556 C -14.05336 25.44556 -25.44556 14.05336 -25.44556 0.0 C -25.44556 -14.05336 -14.05336 -25.44556 0.0 -25.44556 C 14.05336 -25.44556 25.44556 -14.05336 25.44556 0.0 M 50.89111 0.0 C 50.89111 28.10674 28.10674 50.89111 0.0 50.89111 C -28.10674 50.89111 -50.89111 28.10674 -50.89111 0.0 C -50.89111 -28.10674 -28.10674 -50.89111 0.0 -50.89111 C 28.10674 -50.89111 50.89111 -28.10674 50.89111 0.0  " fill="none"/>
 </g>
 </g>
 <g stroke-width="0.2">
 <g stroke="#808080" fill="#808080">
 <path d=" M 69.96826 0.0 L 74.236 0.0 M 49.47508 49.47508 L 52.49281 52.49281 M 0.0 69.96826 L 0.0 74.236 M -49.47508 49.47508 L -52.49281 52.49281 M -69.96826 0.0 L -74.236 0.0 M -49.47508 -49.47508 L -52.49281 -52.49281 M 0.0 -69.96826 L 0.0 -74.236 M 49.47508 -49.47508 L 52.49281 -52.49281  " fill="none"/>
 </g>
 </g>
 <g stroke-width="0.2">
 <g stroke="#808080" fill="#808080">
 <path d=" M 0.0 0.0 L 0.0 4.26773 M 25.44556 0.0 L 25.44556 4.26773 M 50.89111 0.0 L 50.89111 4.26773  " fill="none"/>
 </g>
 </g>
 <path d=" M 0.0 0.0 C 0.0 0.0 0.0 0.0 0.0 0.0 C 0.0 0.0 0.0 0.0 0.0 0.0 C 0.0 0.0 0.0 0.0 0.0 0.0 C 0.0 0.0 0.0 0.0 0.0 0.0  " fill="none"/>
 <path d=" M 69.96826 0.0 C 69.96826 38.6429 38.6429 69.96826 0.0 69.96826 C -38.6429 69.96826 -69.96826 38.6429 -69.96826 0.0 C -69.96826 -38.6429 -38.6429 -69.96826 0.0 -69.96826 C 38.6429 -69.96826 69.96826 -38.6429 69.96826 0.0  " fill="none"/>
 <path d=" M 0.0 0.0 L 69.96826 0.0  " fill="none"/>
 <path d=" M 0.0 0.0 L 69.96826 0.0  " fill="none"/>
 <g transform="translate(73.50124,-3.22221)">
 <g fill="white">
 <text style="stroke:none" transform="scale(1,-1) translate(2.5,0)" text-anchor="middle"  font-size="10"> 
<g fill="white">
 <g stroke="none"> 0</g> </g>
 </text> 
</g>
 </g>
 <g transform="translate(52.11935,53.89716)">
 <g fill="white">
 <text style="stroke:none" transform="scale(1,-1) translate(5.00002,0)" text-anchor="middle"  font-size="10"> 
<g fill="white">
 <g stroke="none"> 45</g> </g>
 </text> 
</g>
 </g>
 <g transform="translate(-5.00002,73.50124)">
 <g fill="white">
 <text style="stroke:none" transform="scale(1,-1) translate(5.00002,0)" text-anchor="middle"  font-size="10"> 
<g fill="white">
 <g stroke="none"> 90</g> </g>
 </text> 
</g>
 </g>
 <g transform="translate(-65.86942,55.14719)">
 <g fill="#000">
 <text style="stroke:none" transform="scale(1,-1) translate(7.50002,0)" text-anchor="middle"  font-size="10"> 
<g fill="#000">
 <g stroke="none"> 135</g> </g>
 </text> 
</g>
 </g>
 <g transform="translate(-88.50127,-3.22221)">
 <g fill="#000">
 <text style="stroke:none" transform="scale(1,-1) translate(7.50002,0)" text-anchor="middle"  font-size="10"> 
<g fill="#000">
 <g stroke="none"> 180</g> </g>
 </text> 
</g>
 </g>
 <g transform="translate(-65.86942,-61.59161)">
 <g fill="#000">
 <text style="stroke:none" transform="scale(1,-1) translate(7.50002,0)" text-anchor="middle"  font-size="10"> 
<g fill="#000">
 <g stroke="none"> 225</g> </g>
 </text> 
</g>
 </g>
 <g transform="translate(-7.50002,-79.94566)">
 <g fill="#000">
 <text style="stroke:none" transform="scale(1,-1) translate(7.50002,0)" text-anchor="middle"  font-size="10"> 
<g fill="#000">
 <g stroke="none"> 270</g> </g>
 </text> 
</g>
 </g>
 <g transform="translate(50.86938,-61.59161)">
 <g fill="#000">
 <text style="stroke:none" transform="scale(1,-1) translate(7.50002,0)" text-anchor="middle"  font-size="10"> 
<g fill="#000">
 <g stroke="none"> 315</g> </g>
 </text> 
</g>
 </g>
 <g transform="translate(-2.5,3.53297)">
 <g fill="#000">
 <text style="stroke:none" transform="scale(1,-1) translate(2.5,0)" text-anchor="middle"  font-size="10"> 
<g fill="#000">
 <g stroke="none"> 0 </g> </g>
 </text> 
</g>
 </g>
 <g transform="translate(19.05666,3.53297)">
 <g fill="#000">
 <text style="stroke:none" transform="scale(1,-1) translate(6.3889,0)" text-anchor="middle"  font-size="10"> 
<g fill="#000">
 <g stroke="none"> 0<tspan font-family="cmmi" font-size="10">.</tspan>2 </g> </g>
 </text> 
</g>
 </g>
 <g transform="translate(44.50221,3.53297)">
 <g fill="#000">
 <text style="stroke:none" transform="scale(1,-1) translate(6.3889,0)" text-anchor="middle"  font-size="10"> 
<g fill="#000">
 <g stroke="none"> 0<tspan font-family="cmmi" font-size="10">.</tspan>4 </g> </g>
 </text> 
</g>
 </g>
 <clipPath id="pgfcp1"><path d=" M 69.96826 0.0 C 69.96826 38.6429 38.6429 69.96826 0.0 69.96826 C -38.6429 69.96826 -69.96826 38.6429 -69.96826 0.0 C -69.96826 -38.6429 -38.6429 -69.96826 0.0 -69.96826 C 38.6429 -69.96826 69.96826 -38.6429 69.96826 0.0  "/> </clipPath>
 <g clip-path="url(#pgfcp1)">
 <g stroke-width="1.5">
 <path d=" M 0.0 0.0 L 15.86363 1.00272 L 30.53798 3.87714 L 42.93304 8.2316 L 52.16849 13.4643 L 57.62263 18.82336 L 59.00294 23.48973 L 56.37396 26.67946 L 50.12329 27.72041 L 40.91403 26.12805 L 29.65057 21.68523 L 17.35503 14.4589 L 5.09474 4.82085 L -6.1381 -6.59038 L -15.50497 -18.91212 L -22.3965 -31.13574 L -26.48146 -42.19778 L -27.7265 -51.08308 L -26.38727 -56.91475 L -22.97202 -59.0535 L -18.17372 -57.15796 L -12.78593 -51.21144 L -7.62483 -41.54059 L -3.42598 -28.80438 L -0.7699 -13.92023 L -0.01582 2.00719 L -1.26558 17.78769 L -4.35104 32.2311 L -8.85162 44.27332 L -14.14291 53.0655 L -19.46133 58.02078 L -23.98474 58.89018 L -26.93939 55.77968 L -27.67128 49.11444 L -25.73158 39.60014 L -20.92795 28.14638 L -13.37543 15.79851 L -3.47449 3.61441 L 8.09969 -7.4253 L 20.46681 -16.51147 L 32.6013 -23.06284 L 43.44537 -26.78876 L 51.99396 -27.69139 L 57.39154 -26.0603 L 59.04144 -22.43208 L 56.63046 -17.51457 L 50.19499 -12.113 L 40.10309 -7.03415 L 27.04303 -3.00015 L 11.96184 -0.56667 L -4.01256 -0.06331 L -19.6885 -1.55692 L -33.8871 -4.84697 L -45.5662 -9.48495 L -53.90132 -14.8225 L -58.3551 -20.08766 L -58.71205 -24.45438 L -55.12814 -27.16269 L -48.06456 -27.5813 L -38.2506 -25.28651 L -26.63051 -20.12978 L -14.24457 -12.25383 L -2.15366 -2.10326 L 8.68117 9.62083 L 17.47676 22.01678 L 23.68605 34.04962 L 27.05208 44.65738 L 27.61662 52.8545 L 25.70564 57.81741 L 21.87206 58.96465 L 16.84885 56.04108 L 11.44337 49.11983 L 6.45988 38.61717 L 2.59946 25.24686 L 0.39438 9.9906 L 0.14221 -6.01135 L 1.8773 -21.56682 L 5.36496 -35.50548 L 10.12929 -46.80699 L 15.50146 -54.67703 L 20.69733 -58.61998 L 24.8999 -58.47707 L 27.35155 -54.42427 L 27.44797 -46.9697 L 24.79828 -36.87701 L 19.28877 -25.10323 L 11.09917 -12.69807 L 0.7069 -0.71252 L -11.1549 9.90688 L -23.56422 18.40372 L -35.47559 24.26492 L -45.83261 27.27234 L -53.66458 27.5031 L -58.1777 25.31725 L -58.82391 21.29253 L -55.38956 16.17729 L -47.98984 10.78249 L -37.08261 5.90282 L -23.42093 2.22476 L -8.00742 0.2528 L 8.00487 0.25272 L 23.42093 2.22476 L 37.08357 5.90231 L 47.98909 10.78174 L 55.39044 16.17729 L 58.82576 21.29414 L 58.1777 25.31725 L 53.66641 27.50356 L 45.83348 27.27286 L 35.47559 24.26427 L 23.56422 18.40372 L 11.1549 9.90688 L -0.70511 -0.7107 L -11.09785 -12.69687 L -19.28767 -25.1018 L -24.79828 -36.87769 L -27.44879 -46.9697 L -27.35236 -54.4231 L -24.9005 -58.47618 L -20.69719 -58.61958 L -15.50146 -54.67616 L -10.12929 -46.80699 L -5.36496 -35.50548 L -1.87718 -21.56909 L -0.14233 -6.01262 L -0.39418 9.98932 L -2.59946 25.24686 L -6.45949 38.6154 L -11.44337 49.12059 L -16.84775 56.0404 L -21.87138 58.96544 L -25.70467 57.81741 L -27.61711 52.85544 L -27.05208 44.65738 L -23.68785 34.05283 L -17.47812 22.0185 L -8.68117 9.62103 L 2.15182 -2.10149 L 14.24457 -12.25383 L 26.63028 -20.12997 L 38.251 -25.28679 L 48.0636 -27.58075 L 55.12814 -27.16362 L 58.71356 -24.4554 L 58.35606 -20.088 L 53.90047 -14.82335 L 45.5662 -9.48425 L 33.8871 -4.8475 L 19.68811 -1.55719 L 4.01256 -0.06337 L -11.9593 -0.56654 L -27.0415 -2.99998 L -40.1034 -7.03409 L -50.19499 -12.113 L -56.62834 -17.51364 L -59.04056 -22.43175 L -57.3925 -26.06126 L -51.99516 -27.69156 L -43.44537 -26.78876 L -32.60364 -23.0643 L -20.46777 -16.51225 L -8.09952 -7.42513 L 3.4736 3.6135 L 13.37524 15.79866 L 20.92798 28.1457 L 25.73059 39.59862 L 27.67021 49.11255 L 26.93852 55.77788 L 23.98509 58.89006 L 19.46086 58.01932 L 14.14291 53.06467 L 8.8514 44.27562 L 4.35095 32.23093 L 1.26549 17.78642 L 0.01585 2.00974 L 0.76967 -13.91994 L 3.42642 -28.80438 L 7.62457 -41.53914 L 12.78609 -51.21121 L 18.17126 -57.15598 L 22.97037 -59.05272 L 26.38644 -56.913 L 27.727 -51.0849 L 26.48146 -42.19778 L 22.39626 -31.1354 L 15.5048 -18.91156 L 6.13898 -6.59131 L -5.093 4.81921 L -17.35468 14.45924 L -29.64671 21.68338 L -40.91306 26.12743 L -50.12418 27.72041 L -56.37396 26.67946 L -59.00214 23.48941 L -57.62029 18.82198 L -52.16766 13.4643 L -42.93372 8.2316 L -30.53767 3.87709 L -15.86363 1.00296 L -0.00253 0.0  " fill="pink" stroke="pink"/>
 </g>
 <path d=" M 25.44556 0.0 L 24.57855 6.5858 L 22.03656 12.72278 L 17.99274 17.99274 L 12.72278 22.03656 L 6.5858 24.57855 L 0.0 25.44556 L -6.5858 24.57855 L -12.72278 22.03656 L -17.99274 17.99274 L -22.03656 12.72278 L -24.57855 6.5858 L -25.44556 0.0 L -24.57855 -6.5858 L -22.03656 -12.72278 L -17.99274 -17.99274 L -12.72278 -22.03656 L -6.5858 -24.57855 L 0.0 -25.44556 L 6.5858 -24.57855 L 12.72278 -22.03656 L 17.99274 -17.99274 L 22.03656 -12.72278 L 24.57855 -6.5858 L 25.44556 0.0  " fill="yellow" stroke="yellow"/>
 </g>
 </g>
 </g>
 
                                 </g> 
</svg> 
