<?xml version="1.0" encoding="iso-8859-1" standalone="no"?> 
<?xml-stylesheet href="SVGOut.css" type="text/css"?> 
<svg xmlns="http://www.w3.org/2000/svg" xmlns:xlink="http://www.w3.org/1999/xlink" width="187.41568pt" height="179.41153pt" viewBox="-32.85765 -40.15776 187.41568 179.41153 "> 
<g transform="translate(0,139.25377 ) scale(1,-1) translate(0,40.15776 )"> 
<g stroke="#000" fill="#000">
 <g stroke-width="0.4">
 <g stroke-width="0.4">
 <g stroke="#c0c0c0" fill="#c0c0c0">
 <path d=" M 0.0 0.0 L 0.0 139.05377 M 6.68213 0.0 L 6.68213 139.05377 M 13.36426 0.0 L 13.36426 139.05377 M 20.04639 0.0 L 20.04639 139.05377 M 26.72852 0.0 L 26.72852 139.05377 M 33.41064 0.0 L 33.41064 139.05377 M 40.09277 0.0 L 40.09277 139.05377 M 46.7749 0.0 L 46.7749 139.05377 M 53.45703 0.0 L 53.45703 139.05377 M 60.13916 0.0 L 60.13916 139.05377 M 66.82129 0.0 L 66.82129 139.05377 M 73.50342 0.0 L 73.50342 139.05377 M 80.18555 0.0 L 80.18555 139.05377 M 86.86768 0.0 L 86.86768 139.05377 M 93.5498 0.0 L 93.5498 139.05377 M 100.23193 0.0 L 100.23193 139.05377 M 106.91406 0.0 L 106.91406 139.05377 M 113.59619 0.0 L 113.59619 139.05377 M 120.27832 0.0 L 120.27832 139.05377 M 126.96045 0.0 L 126.96045 139.05377 M 133.64258 0.0 L 133.64258 139.05377 M 140.3247 0.0 L 140.3247 139.05377  " fill="none"/>
 </g>
 </g>
 <g stroke-width="0.2">
 <g stroke="#808080" fill="#808080">
 <path d=" M 0.0 0.0 L 0.0 4.26791 M 6.68213 0.0 L 6.68213 4.26791 M 13.36426 0.0 L 13.36426 4.26791 M 20.04639 0.0 L 20.04639 4.26791 M 26.72852 0.0 L 26.72852 4.26791 M 33.41064 0.0 L 33.41064 4.26791 M 40.09277 0.0 L 40.09277 4.26791 M 46.7749 0.0 L 46.7749 4.26791 M 53.45703 0.0 L 53.45703 4.26791 M 60.13916 0.0 L 60.13916 4.26791 M 66.82129 0.0 L 66.82129 4.26791 M 73.50342 0.0 L 73.50342 4.26791 M 80.18555 0.0 L 80.18555 4.26791 M 86.86768 0.0 L 86.86768 4.26791 M 93.5498 0.0 L 93.5498 4.26791 M 100.23193 0.0 L 100.23193 4.26791 M 106.91406 0.0 L 106.91406 4.26791 M 113.59619 0.0 L 113.59619 4.26791 M 120.27832 0.0 L 120.27832 4.26791 M 126.96045 0.0 L 126.96045 4.26791 M 133.64258 0.0 L 133.64258 4.26791 M 140.3247 0.0 L 140.3247 4.26791 M 0.0 139.05377 L 0.0 134.78584 M 6.68213 139.05377 L 6.68213 134.78584 M 13.36426 139.05377 L 13.36426 134.78584 M 20.04639 139.05377 L 20.04639 134.78584 M 26.72852 139.05377 L 26.72852 134.78584 M 33.41064 139.05377 L 33.41064 134.78584 M 40.09277 139.05377 L 40.09277 134.78584 M 46.7749 139.05377 L 46.7749 134.78584 M 53.45703 139.05377 L 53.45703 134.78584 M 60.13916 139.05377 L 60.13916 134.78584 M 66.82129 139.05377 L 66.82129 134.78584 M 73.50342 139.05377 L 73.50342 134.78584 M 80.18555 139.05377 L 80.18555 134.78584 M 86.86768 139.05377 L 86.86768 134.78584 M 93.5498 139.05377 L 93.5498 134.78584 M 100.23193 139.05377 L 100.23193 134.78584 M 106.91406 139.05377 L 106.91406 134.78584 M 113.59619 139.05377 L 113.59619 134.78584 M 120.27832 139.05377 L 120.27832 134.78584 M 126.96045 139.05377 L 126.96045 134.78584 M 133.64258 139.05377 L 133.64258 134.78584 M 140.3247 139.05377 L 140.3247 134.78584  " fill="none"/>
 </g>
 </g>
 <g stroke-width="0.2">
 <g stroke="#808080" fill="#808080">
 <path d=" M -14.03333 0.0 L -9.76558 0.0 M -14.03333 32.74918 L -9.76558 32.74918 M -14.03333 65.49835 L -9.76558 65.49835 M -14.03333 98.24753 L -9.76558 98.24753 M -14.03333 130.9967 L -9.76558 130.9967 M 154.35803 0.0 L 150.09029 0.0 M 154.35803 32.74918 L 150.09029 32.74918 M 154.35803 65.49835 L 150.09029 65.49835 M 154.35803 98.24753 L 150.09029 98.24753 M 154.35803 130.9967 L 150.09029 130.9967  " fill="none"/>
 </g>
 </g>
 <path d=" M -14.03333 0.0 L -14.03333 139.05377 L 154.35803 139.05377 L 154.35803 0.0 L -14.03333 0.0 Z  " fill="none"/>
 <g transform="matrix(0.0,1.0,-1.0,0.0,5.59662,-24.86641)">
 <g fill="#000">
 <text style="stroke:none" transform="scale(1,-1) translate(10.66672,0)" text-anchor="middle"  font-size="10"> 
<g fill="#000">
 <g stroke="none"> <tspan font-family="cmr" font-size="7">0 &#8211;</tspan>  <tspan font-family="cmr" font-size="7">34</tspan></g> </g>
 </text> 
</g>
 </g>
 <g transform="matrix(0.0,1.0,-1.0,0.0,12.27875,-28.85252)">
 <g fill="#000">
 <text style="stroke:none" transform="scale(1,-1) translate(12.65977,0)" text-anchor="middle"  font-size="10"> 
<g fill="#000">
 <g stroke="none"> <tspan font-family="cmr" font-size="7">34 &#8211;</tspan>  <tspan font-family="cmr" font-size="7">68</tspan></g> </g>
 </text> 
</g>
 </g>
 <g transform="matrix(0.0,1.0,-1.0,0.0,18.96088,-32.83867)">
 <g fill="#000">
 <text style="stroke:none" transform="scale(1,-1) translate(14.65285,0)" text-anchor="middle"  font-size="10"> 
<g fill="#000">
 <g stroke="none"> <tspan font-family="cmr" font-size="7">68 &#8211;</tspan>  <tspan font-family="cmr" font-size="7">102</tspan></g> </g>
 </text> 
</g>
 </g>
 <g transform="matrix(0.0,1.0,-1.0,0.0,25.643,-36.82478)">
 <g fill="#000">
 <text style="stroke:none" transform="scale(1,-1) translate(16.6459,0)" text-anchor="middle"  font-size="10"> 
<g fill="#000">
 <g stroke="none"> <tspan font-family="cmr" font-size="7">102 &#8211;</tspan>  <tspan font-family="cmr" font-size="7">136</tspan></g> </g>
 </text> 
</g>
 </g>
 <g transform="matrix(0.0,1.0,-1.0,0.0,32.32513,-36.82478)">
 <g fill="#000">
 <text style="stroke:none" transform="scale(1,-1) translate(16.6459,0)" text-anchor="middle"  font-size="10"> 
<g fill="#000">
 <g stroke="none"> <tspan font-family="cmr" font-size="7">136 &#8211;</tspan>  <tspan font-family="cmr" font-size="7">170</tspan></g> </g>
 </text> 
</g>
 </g>
 <g transform="matrix(0.0,1.0,-1.0,0.0,39.00726,-36.82478)">
 <g fill="#000">
 <text style="stroke:none" transform="scale(1,-1) translate(16.6459,0)" text-anchor="middle"  font-size="10"> 
<g fill="#000">
 <g stroke="none"> <tspan font-family="cmr" font-size="7">170 &#8211;</tspan>  <tspan font-family="cmr" font-size="7">204</tspan></g> </g>
 </text> 
</g>
 </g>
 <g transform="matrix(0.0,1.0,-1.0,0.0,45.68939,-36.82478)">
 <g fill="#000">
 <text style="stroke:none" transform="scale(1,-1) translate(16.6459,0)" text-anchor="middle"  font-size="10"> 
<g fill="#000">
 <g stroke="none"> <tspan font-family="cmr" font-size="7">204 &#8211;</tspan>  <tspan font-family="cmr" font-size="7">238</tspan></g> </g>
 </text> 
</g>
 </g>
 <g transform="matrix(0.0,1.0,-1.0,0.0,52.37152,-36.82478)">
 <g fill="#000">
 <text style="stroke:none" transform="scale(1,-1) translate(16.6459,0)" text-anchor="middle"  font-size="10"> 
<g fill="#000">
 <g stroke="none"> <tspan font-family="cmr" font-size="7">238 &#8211;</tspan>  <tspan font-family="cmr" font-size="7">272</tspan></g> </g>
 </text> 
</g>
 </g>
 <g transform="matrix(0.0,1.0,-1.0,0.0,59.05365,-36.82478)">
 <g fill="#000">
 <text style="stroke:none" transform="scale(1,-1) translate(16.6459,0)" text-anchor="middle"  font-size="10"> 
<g fill="#000">
 <g stroke="none"> <tspan font-family="cmr" font-size="7">272 &#8211;</tspan>  <tspan font-family="cmr" font-size="7">306</tspan></g> </g>
 </text> 
</g>
 </g>
 <g transform="matrix(0.0,1.0,-1.0,0.0,65.73578,-36.82478)">
 <g fill="#000">
 <text style="stroke:none" transform="scale(1,-1) translate(16.6459,0)" text-anchor="middle"  font-size="10"> 
<g fill="#000">
 <g stroke="none"> <tspan font-family="cmr" font-size="7">306 &#8211;</tspan>  <tspan font-family="cmr" font-size="7">340</tspan></g> </g>
 </text> 
</g>
 </g>
 <g transform="matrix(0.0,1.0,-1.0,0.0,72.41791,-36.82478)">
 <g fill="#000">
 <text style="stroke:none" transform="scale(1,-1) translate(16.6459,0)" text-anchor="middle"  font-size="10"> 
<g fill="#000">
 <g stroke="none"> <tspan font-family="cmr" font-size="7">340 &#8211;</tspan>  <tspan font-family="cmr" font-size="7">374</tspan></g> </g>
 </text> 
</g>
 </g>
 <g transform="matrix(0.0,1.0,-1.0,0.0,79.10004,-36.82478)">
 <g fill="#000">
 <text style="stroke:none" transform="scale(1,-1) translate(16.6459,0)" text-anchor="middle"  font-size="10"> 
<g fill="#000">
 <g stroke="none"> <tspan font-family="cmr" font-size="7">374 &#8211;</tspan>  <tspan font-family="cmr" font-size="7">408</tspan></g> </g>
 </text> 
</g>
 </g>
 <g transform="matrix(0.0,1.0,-1.0,0.0,85.78217,-36.82478)">
 <g fill="#000">
 <text style="stroke:none" transform="scale(1,-1) translate(16.6459,0)" text-anchor="middle"  font-size="10"> 
<g fill="#000">
 <g stroke="none"> <tspan font-family="cmr" font-size="7">408 &#8211;</tspan>  <tspan font-family="cmr" font-size="7">442</tspan></g> </g>
 </text> 
</g>
 </g>
 <g transform="matrix(0.0,1.0,-1.0,0.0,92.4643,-36.82478)">
 <g fill="#000">
 <text style="stroke:none" transform="scale(1,-1) translate(16.6459,0)" text-anchor="middle"  font-size="10"> 
<g fill="#000">
 <g stroke="none"> <tspan font-family="cmr" font-size="7">442 &#8211;</tspan>  <tspan font-family="cmr" font-size="7">476</tspan></g> </g>
 </text> 
</g>
 </g>
 <g transform="matrix(0.0,1.0,-1.0,0.0,99.14642,-36.82478)">
 <g fill="#000">
 <text style="stroke:none" transform="scale(1,-1) translate(16.6459,0)" text-anchor="middle"  font-size="10"> 
<g fill="#000">
 <g stroke="none"> <tspan font-family="cmr" font-size="7">476 &#8211;</tspan>  <tspan font-family="cmr" font-size="7">510</tspan></g> </g>
 </text> 
</g>
 </g>
 <g transform="matrix(0.0,1.0,-1.0,0.0,105.82855,-36.82478)">
 <g fill="#000">
 <text style="stroke:none" transform="scale(1,-1) translate(16.6459,0)" text-anchor="middle"  font-size="10"> 
<g fill="#000">
 <g stroke="none"> <tspan font-family="cmr" font-size="7">510 &#8211;</tspan>  <tspan font-family="cmr" font-size="7">544</tspan></g> </g>
 </text> 
</g>
 </g>
 <g transform="matrix(0.0,1.0,-1.0,0.0,112.51068,-36.82478)">
 <g fill="#000">
 <text style="stroke:none" transform="scale(1,-1) translate(16.6459,0)" text-anchor="middle"  font-size="10"> 
<g fill="#000">
 <g stroke="none"> <tspan font-family="cmr" font-size="7">544 &#8211;</tspan>  <tspan font-family="cmr" font-size="7">578</tspan></g> </g>
 </text> 
</g>
 </g>
 <g transform="matrix(0.0,1.0,-1.0,0.0,119.19281,-36.82478)">
 <g fill="#000">
 <text style="stroke:none" transform="scale(1,-1) translate(16.6459,0)" text-anchor="middle"  font-size="10"> 
<g fill="#000">
 <g stroke="none"> <tspan font-family="cmr" font-size="7">578 &#8211;</tspan>  <tspan font-family="cmr" font-size="7">612</tspan></g> </g>
 </text> 
</g>
 </g>
 <g transform="matrix(0.0,1.0,-1.0,0.0,125.87494,-36.82478)">
 <g fill="#000">
 <text style="stroke:none" transform="scale(1,-1) translate(16.6459,0)" text-anchor="middle"  font-size="10"> 
<g fill="#000">
 <g stroke="none"> <tspan font-family="cmr" font-size="7">612 &#8211;</tspan>  <tspan font-family="cmr" font-size="7">646</tspan></g> </g>
 </text> 
</g>
 </g>
 <g transform="matrix(0.0,1.0,-1.0,0.0,132.55707,-36.82478)">
 <g fill="#000">
 <text style="stroke:none" transform="scale(1,-1) translate(16.6459,0)" text-anchor="middle"  font-size="10"> 
<g fill="#000">
 <g stroke="none"> <tspan font-family="cmr" font-size="7">646 &#8211;</tspan>  <tspan font-family="cmr" font-size="7">680</tspan></g> </g>
 </text> 
</g>
 </g>
 <g transform="matrix(0.0,1.0,-1.0,0.0,139.2392,-36.82478)">
 <g fill="#000">
 <text style="stroke:none" transform="scale(1,-1) translate(16.6459,0)" text-anchor="middle"  font-size="10"> 
<g fill="#000">
 <g stroke="none"> <tspan font-family="cmr" font-size="7">680 &#8211;</tspan>  <tspan font-family="cmr" font-size="7">714</tspan></g> </g>
 </text> 
</g>
 </g>
 <g transform="translate(-21.55241,-2.25555)">
 <g fill="#000">
 <text style="stroke:none" transform="scale(1,-1) translate(1.99306,0)" text-anchor="middle"  font-size="10"> 
<g fill="#000">
 <g stroke="none"> <tspan font-family="cmr" font-size="7">0</tspan></g> </g>
 </text> 
</g>
 </g>
 <g transform="translate(-25.53856,30.49362)">
 <g fill="#000">
 <text style="stroke:none" transform="scale(1,-1) translate(3.98613,0)" text-anchor="middle"  font-size="10"> 
<g fill="#000">
 <g stroke="none"> <tspan font-family="cmr" font-size="7">50</tspan></g> </g>
 </text> 
</g>
 </g>
 <g transform="translate(-29.52467,63.2428)">
 <g fill="#000">
 <text style="stroke:none" transform="scale(1,-1) translate(5.97919,0)" text-anchor="middle"  font-size="10"> 
<g fill="#000">
 <g stroke="none"> <tspan font-family="cmr" font-size="7">100</tspan></g> </g>
 </text> 
</g>
 </g>
 <g transform="translate(-29.52467,95.99197)">
 <g fill="#000">
 <text style="stroke:none" transform="scale(1,-1) translate(5.97919,0)" text-anchor="middle"  font-size="10"> 
<g fill="#000">
 <g stroke="none"> <tspan font-family="cmr" font-size="7">150</tspan></g> </g>
 </text> 
</g>
 </g>
 <g transform="translate(-29.52467,128.74115)">
 <g fill="#000">
 <text style="stroke:none" transform="scale(1,-1) translate(5.97919,0)" text-anchor="middle"  font-size="10"> 
<g fill="#000">
 <g stroke="none"> <tspan font-family="cmr" font-size="7">200</tspan></g> </g>
 </text> 
</g>
 </g>
 <clipPath id="pgfcp1"><path d=" M -14.03333 0.0 L 154.35803 0.0 L 154.35803 139.05377 L -14.03333 139.05377 Z  "/> </clipPath>
 <g clip-path="url(#pgfcp1)">
 <g stroke="#00f" fill="#00f">
 <g fill="#b3b3ff">
 <path d=" M 0.0 0.0 h 6.68213 v 11.13472 h -6.68213 Z M 6.68213 0.0 h 6.68213 v 0.0 h -6.68213 Z M 13.36426 0.0 h 6.68213 v 1.96495 h -6.68213 Z M 20.04639 0.0 h 6.68213 v 1.30997 h -6.68213 Z M 26.72852 0.0 h 6.68213 v 1.96495 h -6.68213 Z M 33.41064 0.0 h 6.68213 v 3.27492 h -6.68213 Z M 40.09277 0.0 h 6.68213 v 3.9299 h -6.68213 Z M 46.7749 0.0 h 6.68213 v 9.82475 h -6.68213 Z M 53.45703 0.0 h 6.68213 v 14.40964 h -6.68213 Z M 60.13916 0.0 h 6.68213 v 41.26396 h -6.68213 Z M 66.82129 0.0 h 6.68213 v 71.3932 h -6.68213 Z M 73.50342 0.0 h 6.68213 v 106.10733 h -6.68213 Z M 80.18555 0.0 h 6.68213 v 126.41182 h -6.68213 Z M 86.86768 0.0 h 6.68213 v 123.79189 h -6.68213 Z M 93.5498 0.0 h 6.68213 v 108.72726 h -6.68213 Z M 100.23193 0.0 h 6.68213 v 85.14786 h -6.68213 Z M 106.91406 0.0 h 6.68213 v 72.04819 h -6.68213 Z M 113.59619 0.0 h 6.68213 v 54.36363 h -6.68213 Z M 120.27832 0.0 h 6.68213 v 34.05914 h -6.68213 Z M 126.96045 0.0 h 6.68213 v 16.37459 h -6.68213 Z M 133.64258 0.0 h 6.68213 v 2.61993 h -6.68213 Z  " />
 </g>
 </g>
 </g>
 </g>
 </g>
 
                                    </g> 
</svg> 
