<?xml version="1.0" encoding="iso-8859-1" standalone="no"?> 
<?xml-stylesheet href="SVGOut.css" type="text/css"?> 
<svg xmlns="http://www.w3.org/2000/svg" xmlns:xlink="http://www.w3.org/1999/xlink" width="184.41795pt" height="165.472pt" viewBox="-38.64357 -27.44908 184.41795 165.472 "> 
<g transform="translate(0,138.02292 ) scale(1,-1) translate(0,27.44908 )"> 
       <g stroke="#000" fill="#000">
 <g stroke-width="0.4">
 <g stroke-width="0.2">
 <g stroke="#808080" fill="#808080">
 <path d=" M 0.0 -2.13394 L 0.0 2.13394 M 34.98535 -2.13394 L 34.98535 2.13394 M 69.9707 -2.13394 L 69.9707 2.13394 M 104.95605 -2.13394 L 104.95605 2.13394 M 139.9414 -2.13394 L 139.9414 2.13394  " fill="none"/>
 </g>
 </g>
 <g stroke-width="0.2">
 <g stroke="#808080" fill="#808080">
 <path d=" M -2.13397 21.1942 L 2.13397 21.1942 M -2.13397 44.52489 L 2.13397 44.52489 M -2.13397 67.85558 L 2.13397 67.85558 M -2.13397 91.18626 L 2.13397 91.18626 M -2.13397 114.51695 L 2.13397 114.51695  " fill="none"/>
 </g>
 </g>
 <path d=" M 0.0 0.0 L 137.94083 0.0  " fill="none"/>
 <g transform="translate(137.94083,0.0)">
 <path d=" M 1.99997 0.0 L -1.19998 1.59998 L 0.0 0.0 L -1.19998 -1.59998  " stroke="none"/>
  </g>
 <path d=" M 0.0 0.0 L 0.0 112.51698  " fill="none"/>
 <g transform="matrix(0.0,1.0,-1.0,0.0,0.0,112.51698)">
 <path d=" M 1.99997 0.0 L -1.19998 1.59998 L 0.0 0.0 L -1.19998 -1.59998  " stroke="none"/>
  </g>
 <g transform="translate(-8.61107,-12.11136)">
 <g fill="#000">
 <text style="stroke:none" transform="scale(1,-1) translate(8.61107,0)" text-anchor="middle"  font-size="10"> 
<g fill="#000">
 <g stroke="none">  <tspan font-family="cmsy" font-size="10">- </tspan>2</g> </g>
 </text> 
</g>
 </g>
 <g transform="translate(26.37428,-12.11136)">
 <g fill="#000">
 <text style="stroke:none" transform="scale(1,-1) translate(8.61107,0)" text-anchor="middle"  font-size="10"> 
<g fill="#000">
 <g stroke="none">  <tspan font-family="cmsy" font-size="10">- </tspan>1</g> </g>
 </text> 
</g>
 </g>
 <g transform="translate(67.4707,-12.11134)">
 <g fill="#000">
 <text style="stroke:none" transform="scale(1,-1) translate(2.5,0)" text-anchor="middle"  font-size="10"> 
<g fill="#000">
 <g stroke="none"> 0 </g> </g>
 </text> 
</g>
 </g>
 <g transform="translate(102.45605,-12.11134)">
 <g fill="#000">
 <text style="stroke:none" transform="scale(1,-1) translate(2.5,0)" text-anchor="middle"  font-size="10"> 
<g fill="#000">
 <g stroke="none"> 1 </g> </g>
 </text> 
</g>
 </g>
 <g transform="translate(137.4414,-12.11134)">
 <g fill="#000">
 <text style="stroke:none" transform="scale(1,-1) translate(2.5,0)" text-anchor="middle"  font-size="10"> 
<g fill="#000">
 <g stroke="none"> 2 </g> </g>
 </text> 
</g>
 </g>
 <g transform="translate(-18.44475,17.97198)">
 <g fill="#000">
 <text style="stroke:none" transform="scale(1,-1) translate(6.3889,0)" text-anchor="middle"  font-size="10"> 
<g fill="#000">
 <g stroke="none"> 0<tspan font-family="cmmi" font-size="10">.</tspan>2 </g> </g>
 </text> 
</g>
 </g>
 <g transform="translate(-18.44475,41.30267)">
 <g fill="#000">
 <text style="stroke:none" transform="scale(1,-1) translate(6.3889,0)" text-anchor="middle"  font-size="10"> 
<g fill="#000">
 <g stroke="none"> 0<tspan font-family="cmmi" font-size="10">.</tspan>4 </g> </g>
 </text> 
</g>
 </g>
 <g transform="translate(-18.44475,64.63336)">
 <g fill="#000">
 <text style="stroke:none" transform="scale(1,-1) translate(6.3889,0)" text-anchor="middle"  font-size="10"> 
<g fill="#000">
 <g stroke="none"> 0<tspan font-family="cmmi" font-size="10">.</tspan>6 </g> </g>
 </text> 
</g>
 </g>
 <g transform="translate(-18.44475,87.96405)">
 <g fill="#000">
 <text style="stroke:none" transform="scale(1,-1) translate(6.3889,0)" text-anchor="middle"  font-size="10"> 
<g fill="#000">
 <g stroke="none"> 0<tspan font-family="cmmi" font-size="10">.</tspan>8 </g> </g>
 </text> 
</g>
 </g>
 <g transform="translate(-10.66695,111.29474)">
 <g fill="#000">
 <text style="stroke:none" transform="scale(1,-1) translate(2.5,0)" text-anchor="middle"  font-size="10"> 
<g fill="#000">
 <g stroke="none"> 1 </g> </g>
 </text> 
</g>
 </g>
 <clipPath id="pgfcp1"><path d=" M 0.0 0.0 L 139.9408 0.0 L 139.9408 114.51695 L 0.0 114.51695 Z  "/> </clipPath>
 <g clip-path="url(#pgfcp1)">
 <g stroke="#00f" fill="#00f">
 <path d=" M 0.0 0.0 C 0.0 0.0 4.21281 1.20097 5.83086 1.91084 C 7.4489 2.62071 10.04369 3.97162 11.66173 5.11632 C 13.27977 6.26102 15.87456 8.43146 17.4926 10.16112 C 19.11064 11.89078 21.70541 15.13974 23.32346 17.5826 C 24.9415 20.02545 27.53629 24.54948 29.15433 27.76762 C 30.77237 30.98576 33.36716 36.84262 34.9852 40.77681 C 36.60324 44.711 39.19801 51.6978 40.81606 56.12257 C 42.4341 60.54735 45.02888 68.14273 46.64693 72.66753 C 48.26497 77.19232 50.85976 84.62715 52.4778 88.7342 C 54.09584 92.84126 56.69063 99.13097 58.30867 102.26834 C 59.92671 105.40572 62.52148 109.64685 64.13953 111.34631 C 65.75757 113.04578 68.35236 114.51695 69.9704 114.51695 C 71.58844 114.51695 74.18323 113.04578 75.80127 111.34631 C 77.41931 109.64685 80.01408 105.40572 81.63213 102.26834 C 83.25017 99.13097 85.84496 92.8398 87.463 88.7342 C 89.08104 84.62862 91.67583 77.20282 93.29387 72.67802 C 94.91191 68.15323 97.50668 60.54703 99.12473 56.12257 C 100.74277 51.69812 103.33755 44.72383 104.9556 40.78964 C 106.57364 36.85545 109.16843 30.98755 110.78647 27.76762 C 112.40451 24.5477 114.9993 20.02545 116.61734 17.5826 C 118.23538 15.13974 120.83015 11.89072 122.4482 10.16112 C 124.06624 8.43152 126.66103 6.26141 128.27907 5.11674 C 129.89711 3.97208 132.4919 2.62103 134.10994 1.91112 C 135.72798 1.2012 139.9408 0.00012 139.9408 0.00012  " fill="none"/>
 </g>
 </g>
 <g stroke="#00f" fill="#00f">
 <g stroke="#00f" fill="#00f">
 <g fill="#00c">
 <path d=" M 2.0 0.0 C 2.0 1.10458 1.10458 2.0 0.0 2.0 C -1.10458 2.0 -2.0 1.10458 -2.0 0.0 C -2.0 -1.10458 -1.10458 -2.0 0.0 -2.0 C 1.10458 -2.0 2.0 -1.10458 2.0 0.0 Z M 0.0 0.0  " />
 <path d=" M 7.83086 1.91084 C 7.83086 3.01543 6.93544 3.91084 5.83086 3.91084 C 4.72627 3.91084 3.83086 3.01543 3.83086 1.91084 C 3.83086 0.80626 4.72627 -0.08916 5.83086 -0.08916 C 6.93544 -0.08916 7.83086 0.80626 7.83086 1.91084 Z M 5.83086 1.91084  " />
 <path d=" M 13.66173 5.11632 C 13.66173 6.2209 12.76631 7.11632 11.66173 7.11632 C 10.55714 7.11632 9.66173 6.2209 9.66173 5.11632 C 9.66173 4.01173 10.55714 3.11632 11.66173 3.11632 C 12.76631 3.11632 13.66173 4.01173 13.66173 5.11632 Z M 11.66173 5.11632  " />
 <path d=" M 19.4926 10.16112 C 19.4926 11.2657 18.59718 12.16112 17.4926 12.16112 C 16.38802 12.16112 15.4926 11.2657 15.4926 10.16112 C 15.4926 9.05653 16.38802 8.16112 17.4926 8.16112 C 18.59718 8.16112 19.4926 9.05653 19.4926 10.16112 Z M 17.4926 10.16112  " />
 <path d=" M 25.32346 17.5826 C 25.32346 18.68718 24.42804 19.5826 23.32346 19.5826 C 22.21887 19.5826 21.32346 18.68718 21.32346 17.5826 C 21.32346 16.47801 22.21887 15.5826 23.32346 15.5826 C 24.42804 15.5826 25.32346 16.47801 25.32346 17.5826 Z M 23.32346 17.5826  " />
 <path d=" M 31.15433 27.76762 C 31.15433 28.87221 30.25891 29.76762 29.15433 29.76762 C 28.04974 29.76762 27.15433 28.87221 27.15433 27.76762 C 27.15433 26.66304 28.04974 25.76762 29.15433 25.76762 C 30.25891 25.76762 31.15433 26.66304 31.15433 27.76762 Z M 29.15433 27.76762  " />
 <path d=" M 36.9852 40.77681 C 36.9852 41.8814 36.08978 42.77681 34.9852 42.77681 C 33.88062 42.77681 32.9852 41.8814 32.9852 40.77681 C 32.9852 39.67223 33.88062 38.77681 34.9852 38.77681 C 36.08978 38.77681 36.9852 39.67223 36.9852 40.77681 Z M 34.9852 40.77681  " />
 <path d=" M 42.81606 56.12257 C 42.81606 57.22716 41.92064 58.12257 40.81606 58.12257 C 39.71147 58.12257 38.81606 57.22716 38.81606 56.12257 C 38.81606 55.01799 39.71147 54.12257 40.81606 54.12257 C 41.92064 54.12257 42.81606 55.01799 42.81606 56.12257 Z M 40.81606 56.12257  " />
 <path d=" M 48.64693 72.66753 C 48.64693 73.77211 47.75151 74.66753 46.64693 74.66753 C 45.54234 74.66753 44.64693 73.77211 44.64693 72.66753 C 44.64693 71.56294 45.54234 70.66753 46.64693 70.66753 C 47.75151 70.66753 48.64693 71.56294 48.64693 72.66753 Z M 46.64693 72.66753  " />
 <path d=" M 54.4778 88.7342 C 54.4778 89.83879 53.58238 90.7342 52.4778 90.7342 C 51.37321 90.7342 50.4778 89.83879 50.4778 88.7342 C 50.4778 87.62962 51.37321 86.7342 52.4778 86.7342 C 53.58238 86.7342 54.4778 87.62962 54.4778 88.7342 Z M 52.4778 88.7342  " />
 <path d=" M 60.30867 102.26834 C 60.30867 103.37292 59.41325 104.26834 58.30867 104.26834 C 57.20409 104.26834 56.30867 103.37292 56.30867 102.26834 C 56.30867 101.16376 57.20409 100.26834 58.30867 100.26834 C 59.41325 100.26834 60.30867 101.16376 60.30867 102.26834 Z M 58.30867 102.26834  " />
 <path d=" M 66.13953 111.34631 C 66.13953 112.4509 65.24411 113.34631 64.13953 113.34631 C 63.03494 113.34631 62.13953 112.4509 62.13953 111.34631 C 62.13953 110.24173 63.03494 109.34631 64.13953 109.34631 C 65.24411 109.34631 66.13953 110.24173 66.13953 111.34631 Z M 64.13953 111.34631  " />
 <path d=" M 71.9704 114.51695 C 71.9704 115.62154 71.07498 116.51695 69.9704 116.51695 C 68.86581 116.51695 67.9704 115.62154 67.9704 114.51695 C 67.9704 113.41237 68.86581 112.51695 69.9704 112.51695 C 71.07498 112.51695 71.9704 113.41237 71.9704 114.51695 Z M 69.9704 114.51695  " />
 <path d=" M 77.80127 111.34631 C 77.80127 112.4509 76.90585 113.34631 75.80127 113.34631 C 74.69669 113.34631 73.80127 112.4509 73.80127 111.34631 C 73.80127 110.24173 74.69669 109.34631 75.80127 109.34631 C 76.90585 109.34631 77.80127 110.24173 77.80127 111.34631 Z M 75.80127 111.34631  " />
 <path d=" M 83.63213 102.26834 C 83.63213 103.37292 82.73671 104.26834 81.63213 104.26834 C 80.52754 104.26834 79.63213 103.37292 79.63213 102.26834 C 79.63213 101.16376 80.52754 100.26834 81.63213 100.26834 C 82.73671 100.26834 83.63213 101.16376 83.63213 102.26834 Z M 81.63213 102.26834  " />
 <path d=" M 89.463 88.7342 C 89.463 89.83879 88.56758 90.7342 87.463 90.7342 C 86.35841 90.7342 85.463 89.83879 85.463 88.7342 C 85.463 87.62962 86.35841 86.7342 87.463 86.7342 C 88.56758 86.7342 89.463 87.62962 89.463 88.7342 Z M 87.463 88.7342  " />
 <path d=" M 95.29387 72.67802 C 95.29387 73.78261 94.39845 74.67802 93.29387 74.67802 C 92.18929 74.67802 91.29387 73.78261 91.29387 72.67802 C 91.29387 71.57344 92.18929 70.67802 93.29387 70.67802 C 94.39845 70.67802 95.29387 71.57344 95.29387 72.67802 Z M 93.29387 72.67802  " />
 <path d=" M 101.12473 56.12257 C 101.12473 57.22716 100.22931 58.12257 99.12473 58.12257 C 98.02014 58.12257 97.12473 57.22716 97.12473 56.12257 C 97.12473 55.01799 98.02014 54.12257 99.12473 54.12257 C 100.22931 54.12257 101.12473 55.01799 101.12473 56.12257 Z M 99.12473 56.12257  " />
 <path d=" M 106.9556 40.78964 C 106.9556 41.89423 106.06018 42.78964 104.9556 42.78964 C 103.85101 42.78964 102.9556 41.89423 102.9556 40.78964 C 102.9556 39.68506 103.85101 38.78964 104.9556 38.78964 C 106.06018 38.78964 106.9556 39.68506 106.9556 40.78964 Z M 104.9556 40.78964  " />
 <path d=" M 112.78647 27.76762 C 112.78647 28.87221 111.89105 29.76762 110.78647 29.76762 C 109.68188 29.76762 108.78647 28.87221 108.78647 27.76762 C 108.78647 26.66304 109.68188 25.76762 110.78647 25.76762 C 111.89105 25.76762 112.78647 26.66304 112.78647 27.76762 Z M 110.78647 27.76762  " />
 <path d=" M 118.61734 17.5826 C 118.61734 18.68718 117.72192 19.5826 116.61734 19.5826 C 115.51276 19.5826 114.61734 18.68718 114.61734 17.5826 C 114.61734 16.47801 115.51276 15.5826 116.61734 15.5826 C 117.72192 15.5826 118.61734 16.47801 118.61734 17.5826 Z M 116.61734 17.5826  " />
 <path d=" M 124.4482 10.16112 C 124.4482 11.2657 123.55278 12.16112 122.4482 12.16112 C 121.34361 12.16112 120.4482 11.2657 120.4482 10.16112 C 120.4482 9.05653 121.34361 8.16112 122.4482 8.16112 C 123.55278 8.16112 124.4482 9.05653 124.4482 10.16112 Z M 122.4482 10.16112  " />
 <path d=" M 130.27907 5.11674 C 130.27907 6.22133 129.38365 7.11674 128.27907 7.11674 C 127.17448 7.11674 126.27907 6.22133 126.27907 5.11674 C 126.27907 4.01216 127.17448 3.11674 128.27907 3.11674 C 129.38365 3.11674 130.27907 4.01216 130.27907 5.11674 Z M 128.27907 5.11674  " />
 <path d=" M 136.10994 1.91112 C 136.10994 3.0157 135.21452 3.91112 134.10994 3.91112 C 133.00536 3.91112 132.10994 3.0157 132.10994 1.91112 C 132.10994 0.80653 133.00536 -0.08888 134.10994 -0.08888 C 135.21452 -0.08888 136.10994 0.80653 136.10994 1.91112 Z M 134.10994 1.91112  " />
 <path d=" M 141.9408 0.00012 C 141.9408 1.1047 141.04538 2.00012 139.9408 2.00012 C 138.83621 2.00012 137.9408 1.1047 137.9408 0.00012 C 137.9408 -1.10446 138.83621 -1.99988 139.9408 -1.99988 C 141.04538 -1.99988 141.9408 -1.10446 141.9408 0.00012 Z M 139.9408 0.00012  " />
 <path d="  " fill="none"/>
 </g>
 </g>
 </g>
 <g transform="translate(67.11276,-24.1161)">
 <g fill="#000">
 <text style="stroke:none" transform="scale(1,-1) translate(2.85764,0)" text-anchor="middle"  font-size="10"> 
<g fill="#000">
 <g stroke="none"> <tspan font-family="cmmi" font-size="10">x</tspan> </g> </g>
 </text> 
</g>
 </g>
 <g transform="matrix(0.0,1.0,-1.0,0.0,-27.8106,47.5258)">
 <g fill="#000">
 <text style="stroke:none" transform="scale(1,-1) translate(9.73267,0)" text-anchor="middle"  font-size="10"> 
<g fill="#000">
 <g stroke="none"> <tspan font-family="cmmi" font-size="10">f</tspan>(<tspan font-family="cmmi" font-size="10">x</tspan>)</g> </g>
 </text> 
</g>
 </g>
 <g transform="translate(33.05371,126.54993)">
 <g fill="#000">
 <text style="stroke:none" transform="scale(1,-1) translate(36.91669,0)" text-anchor="middle"  font-size="10"> 
<g fill="#000">
 <g stroke="none"> <tspan font-family="cmmi" font-size="10">f</tspan>(<tspan font-family="cmmi" font-size="10">x</tspan>) = exp(<tspan font-family="cmsy" font-size="10">-</tspan><tspan font-family="cmmi" font-size="10">x</tspan><tspan baseline-shift="sub"><tspan font-family="cmr" font-size="7">2</tspan></tspan>)</g> </g>
 </text> 
</g>
 </g>
 </g>
 </g>
 
                                   </g> 
</svg> 
