<?xml version="1.0" encoding="iso-8859-1" standalone="no"?> 
<?xml-stylesheet href="TE_export637511003395720764.css" type="text/css"?> 
<svg xmlns="http://www.w3.org/2000/svg" xmlns:xlink="http://www.w3.org/1999/xlink" width="181.11646pt" height="109.98459pt" viewBox="-62.10548 -47.8791 181.11646 109.98459 "> 
<g transform="translate(0, 62.10548 ) scale(1,-1) translate(0,47.8791 )"> 
                   <g stroke="#000" fill="#000">
 <g stroke-width="0.4">
 <g stroke="#808080">
 <g fill="#ccf">
 <g fill="#b3ffb3">
 <g stroke="#808080">
 <g fill="#ccf">
 <g fill="#b3ffb3">
 <path d=" M -51.90549 -14.22636 C -51.90549 -11.4649 -54.14403 -9.22636 -56.90549 -9.22636 C -59.66695 -9.22636 -61.90549 -11.4649 -61.90549 -14.22636 C -61.90549 -16.98782 -59.66695 -19.22636 -56.90549 -19.22636 C -54.14403 -19.22636 -51.90549 -16.98782 -51.90549 -14.22636 Z M -56.90549 -14.22636  " />
 </g>
 </g>
 </g>
 <g transform="translate(-56.90549,-14.22636)">
 <g fill="#000">
 <text style="stroke:none" transform="scale(1,-1) translate(0.0,0)" text-anchor="middle"  font-size="10"> 
<g fill="#000">
 <g stroke="none"> </g> </g>
 </text> 
</g>
 </g>
 </g>
 </g>
 </g>
 <g stroke="#808080">
 <g fill="#ccf">
 <g fill="#b3ffb3">
 <g stroke="#808080">
 <g fill="#ccf">
 <g fill="#b3ffb3">
 <path d=" M -51.90549 14.22636 C -51.90549 16.98782 -54.14403 19.22636 -56.90549 19.22636 C -59.66695 19.22636 -61.90549 16.98782 -61.90549 14.22636 C -61.90549 11.4649 -59.66695 9.22636 -56.90549 9.22636 C -54.14403 9.22636 -51.90549 11.4649 -51.90549 14.22636 Z M -56.90549 14.22636  " />
 </g>
 </g>
 </g>
 <g transform="translate(-56.90549,14.22636)">
 <g fill="#000">
 <text style="stroke:none" transform="scale(1,-1) translate(0.0,0)" text-anchor="middle"  font-size="10"> 
<g fill="#000">
 <g stroke="none"> </g> </g>
 </text> 
</g>
 </g>
 </g>
 </g>
 </g>
 <g stroke="#808080">
 <g fill="#ccf">
 <g fill="#b3ffb3">
 <g stroke="#808080">
 <g fill="#ccf">
 <g fill="#b3ffb3">
 <path d=" M -51.90549 42.67911 C -51.90549 45.44057 -54.14403 47.67911 -56.90549 47.67911 C -59.66695 47.67911 -61.90549 45.44057 -61.90549 42.67911 C -61.90549 39.91765 -59.66695 37.67911 -56.90549 37.67911 C -54.14403 37.67911 -51.90549 39.91765 -51.90549 42.67911 Z M -56.90549 42.67911  " />
 </g>
 </g>
 </g>
 <g transform="translate(-56.90549,42.67911)">
 <g fill="#000">
 <text style="stroke:none" transform="scale(1,-1) translate(0.0,0)" text-anchor="middle"  font-size="10"> 
<g fill="#000">
 <g stroke="none"> </g> </g>
 </text> 
</g>
 </g>
 </g>
 </g>
 </g>
 <g stroke="#808080">
 <g fill="#ccf">
 <g stroke="#808080">
 <g fill="#ccf">
 <path d=" M 5.0 -42.67911 C 5.0 -39.91765 2.76146 -37.67911 0.0 -37.67911 C -2.76146 -37.67911 -5.0 -39.91765 -5.0 -42.67911 C -5.0 -45.44057 -2.76146 -47.67911 0.0 -47.67911 C 2.76146 -47.67911 5.0 -45.44057 5.0 -42.67911 Z M 0.0 -42.67911  " />
 </g>
 </g>
 <g transform="translate(0.0,-42.67911)">
 <g fill="#000">
 <text style="stroke:none" transform="scale(1,-1) translate(0.0,0)" text-anchor="middle"  font-size="10"> 
<g fill="#000">
 <g stroke="none"> </g> </g>
 </text> 
</g>
 </g>
 </g>
 </g>
 <g stroke="#808080">
 <g fill="#ccf">
 <g stroke="#808080">
 <g fill="#ccf">
 <path d=" M 5.0 -28.45274 C 5.0 -25.69128 2.76146 -23.45274 0.0 -23.45274 C -2.76146 -23.45274 -5.0 -25.69128 -5.0 -28.45274 C -5.0 -31.2142 -2.76146 -33.45274 0.0 -33.45274 C 2.76146 -33.45274 5.0 -31.2142 5.0 -28.45274 Z M 0.0 -28.45274  " />
 </g>
 </g>
 <g transform="translate(0.0,-28.45274)">
 <g fill="#000">
 <text style="stroke:none" transform="scale(1,-1) translate(0.0,0)" text-anchor="middle"  font-size="10"> 
<g fill="#000">
 <g stroke="none"> </g> </g>
 </text> 
</g>
 </g>
 </g>
 </g>
 <g stroke="#808080">
 <g fill="#ccf">
 <g stroke="#808080">
 <g fill="#ccf">
 <path d=" M 5.0 -14.22636 C 5.0 -11.4649 2.76146 -9.22636 0.0 -9.22636 C -2.76146 -9.22636 -5.0 -11.4649 -5.0 -14.22636 C -5.0 -16.98782 -2.76146 -19.22636 0.0 -19.22636 C 2.76146 -19.22636 5.0 -16.98782 5.0 -14.22636 Z M 0.0 -14.22636  " />
 </g>
 </g>
 <g transform="translate(0.0,-14.22636)">
 <g fill="#000">
 <text style="stroke:none" transform="scale(1,-1) translate(0.0,0)" text-anchor="middle"  font-size="10"> 
<g fill="#000">
 <g stroke="none"> </g> </g>
 </text> 
</g>
 </g>
 </g>
 </g>
 <g stroke="#808080">
 <g fill="#ccf">
 <g stroke="#808080">
 <g fill="#ccf">
 <path d=" M 5.0 0.0 C 5.0 2.76146 2.76146 5.0 0.0 5.0 C -2.76146 5.0 -5.0 2.76146 -5.0 0.0 C -5.0 -2.76146 -2.76146 -5.0 0.0 -5.0 C 2.76146 -5.0 5.0 -2.76146 5.0 0.0 Z M 0.0 0.0  " />
 </g>
 </g>
 <g fill="#000">
 <text style="stroke:none" transform="scale(1,-1) translate(0.0,0)" text-anchor="middle"  font-size="10"> 
<g fill="#000">
 <g stroke="none"> </g> </g>
 </text> 
</g>
 </g>
 </g>
 <g stroke="#808080">
 <g fill="#ccf">
 <g stroke="#808080">
 <g fill="#ccf">
 <path d=" M 5.0 14.22636 C 5.0 16.98782 2.76146 19.22636 0.0 19.22636 C -2.76146 19.22636 -5.0 16.98782 -5.0 14.22636 C -5.0 11.4649 -2.76146 9.22636 0.0 9.22636 C 2.76146 9.22636 5.0 11.4649 5.0 14.22636 Z M 0.0 14.22636  " />
 </g>
 </g>
 <g transform="translate(0.0,14.22636)">
 <g fill="#000">
 <text style="stroke:none" transform="scale(1,-1) translate(0.0,0)" text-anchor="middle"  font-size="10"> 
<g fill="#000">
 <g stroke="none"> </g> </g>
 </text> 
</g>
 </g>
 </g>
 </g>
 <g stroke="#808080">
 <g fill="#ccf">
 <g stroke="#808080">
 <g fill="#ccf">
 <path d=" M 5.0 28.45274 C 5.0 31.2142 2.76146 33.45274 0.0 33.45274 C -2.76146 33.45274 -5.0 31.2142 -5.0 28.45274 C -5.0 25.69128 -2.76146 23.45274 0.0 23.45274 C 2.76146 23.45274 5.0 25.69128 5.0 28.45274 Z M 0.0 28.45274  " />
 </g>
 </g>
 <g transform="translate(0.0,28.45274)">
 <g fill="#000">
 <text style="stroke:none" transform="scale(1,-1) translate(0.0,0)" text-anchor="middle"  font-size="10"> 
<g fill="#000">
 <g stroke="none"> </g> </g>
 </text> 
</g>
 </g>
 </g>
 </g>
 <g stroke="#808080">
 <g fill="#ccf">
 <g stroke="#808080">
 <g fill="#ccf">
 <path d=" M 5.0 42.67911 C 5.0 45.44057 2.76146 47.67911 0.0 47.67911 C -2.76146 47.67911 -5.0 45.44057 -5.0 42.67911 C -5.0 39.91765 -2.76146 37.67911 0.0 37.67911 C 2.76146 37.67911 5.0 39.91765 5.0 42.67911 Z M 0.0 42.67911  " />
 </g>
 </g>
 <g transform="translate(0.0,42.67911)">
 <g fill="#000">
 <text style="stroke:none" transform="scale(1,-1) translate(0.0,0)" text-anchor="middle"  font-size="10"> 
<g fill="#000">
 <g stroke="none"> </g> </g>
 </text> 
</g>
 </g>
 </g>
 </g>
 <g stroke="#808080">
 <g fill="#ccf">
 <g stroke="#808080">
 <g fill="#ccf">
 <path d=" M 5.0 56.90549 C 5.0 59.66695 2.76146 61.90549 0.0 61.90549 C -2.76146 61.90549 -5.0 59.66695 -5.0 56.90549 C -5.0 54.14403 -2.76146 51.90549 0.0 51.90549 C 2.76146 51.90549 5.0 54.14403 5.0 56.90549 Z M 0.0 56.90549  " />
 </g>
 </g>
 <g transform="translate(0.0,56.90549)">
 <g fill="#000">
 <text style="stroke:none" transform="scale(1,-1) translate(0.0,0)" text-anchor="middle"  font-size="10"> 
<g fill="#000">
 <g stroke="none"> </g> </g>
 </text> 
</g>
 </g>
 </g>
 </g>
 <g stroke="#808080">
 <g fill="#ccf">
 <g stroke="#808080">
 <g fill="#ccf">
 <path d=" M 61.90549 -7.11317 C 61.90549 -4.35172 59.66695 -2.11317 56.90549 -2.11317 C 54.14403 -2.11317 51.90549 -4.35172 51.90549 -7.11317 C 51.90549 -9.87463 54.14403 -12.11317 56.90549 -12.11317 C 59.66695 -12.11317 61.90549 -9.87463 61.90549 -7.11317 Z M 56.90549 -7.11317  " />
 </g>
 </g>
 <g transform="translate(56.90549,-7.11317)">
 <g fill="#000">
 <text style="stroke:none" transform="scale(1,-1) translate(0.0,0)" text-anchor="middle"  font-size="10"> 
<g fill="#000">
 <g stroke="none"> </g> </g>
 </text> 
</g>
 </g>
 </g>
 </g>
 <g stroke="#808080">
 <g fill="#ccf">
 <g stroke="#808080">
 <g fill="#ccf">
 <path d=" M 61.90549 7.11317 C 61.90549 9.87463 59.66695 12.11317 56.90549 12.11317 C 54.14403 12.11317 51.90549 9.87463 51.90549 7.11317 C 51.90549 4.35172 54.14403 2.11317 56.90549 2.11317 C 59.66695 2.11317 61.90549 4.35172 61.90549 7.11317 Z M 56.90549 7.11317  " />
 </g>
 </g>
 <g transform="translate(56.90549,7.11317)">
 <g fill="#000">
 <text style="stroke:none" transform="scale(1,-1) translate(0.0,0)" text-anchor="middle"  font-size="10"> 
<g fill="#000">
 <g stroke="none"> </g> </g>
 </text> 
</g>
 </g>
 </g>
 </g>
 <g stroke="#808080">
 <g fill="#ccf">
 <g stroke="#808080">
 <g fill="#ccf">
 <path d=" M 61.90549 21.33955 C 61.90549 24.10101 59.66695 26.33955 56.90549 26.33955 C 54.14403 26.33955 51.90549 24.10101 51.90549 21.33955 C 51.90549 18.5781 54.14403 16.33955 56.90549 16.33955 C 59.66695 16.33955 61.90549 18.5781 61.90549 21.33955 Z M 56.90549 21.33955  " />
 </g>
 </g>
 <g transform="translate(56.90549,21.33955)">
 <g fill="#000">
 <text style="stroke:none" transform="scale(1,-1) translate(0.0,0)" text-anchor="middle"  font-size="10"> 
<g fill="#000">
 <g stroke="none"> </g> </g>
 </text> 
</g>
 </g>
 </g>
 </g>
 <g stroke="#808080">
 <g fill="#ccf">
 <g stroke="#808080">
 <g fill="#ccf">
 <path d=" M 61.90549 35.56592 C 61.90549 38.32738 59.66695 40.56592 56.90549 40.56592 C 54.14403 40.56592 51.90549 38.32738 51.90549 35.56592 C 51.90549 32.80446 54.14403 30.56592 56.90549 30.56592 C 59.66695 30.56592 61.90549 32.80446 61.90549 35.56592 Z M 56.90549 35.56592  " />
 </g>
 </g>
 <g transform="translate(56.90549,35.56592)">
 <g fill="#000">
 <text style="stroke:none" transform="scale(1,-1) translate(0.0,0)" text-anchor="middle"  font-size="10"> 
<g fill="#000">
 <g stroke="none"> </g> </g>
 </text> 
</g>
 </g>
 </g>
 </g>
 <g stroke="#808080">
 <g fill="#ccf">
 <g fill="#ffb3b3">
 <g stroke="#808080">
 <g fill="#ccf">
 <g fill="#ffb3b3">
 <path d=" M 118.81097 0.0 C 118.81097 2.76146 116.57243 5.0 113.81097 5.0 C 111.04951 5.0 108.81097 2.76146 108.81097 0.0 C 108.81097 -2.76146 111.04951 -5.0 113.81097 -5.0 C 116.57243 -5.0 118.81097 -2.76146 118.81097 0.0 Z M 113.81097 0.0  " />
 </g>
 </g>
 </g>
 <g transform="translate(113.81097,0.0)">
 <g fill="#000">
 <text style="stroke:none" transform="scale(1,-1) translate(0.0,0)" text-anchor="middle"  font-size="10"> 
<g fill="#000">
 <g stroke="none"> </g> </g>
 </text> 
</g>
 </g>
 </g>
 </g>
 </g>
 <g stroke="#808080">
 <g fill="#ccf">
 <g fill="#ffb3b3">
 <g stroke="#808080">
 <g fill="#ccf">
 <g fill="#ffb3b3">
 <path d=" M 118.81097 28.45274 C 118.81097 31.2142 116.57243 33.45274 113.81097 33.45274 C 111.04951 33.45274 108.81097 31.2142 108.81097 28.45274 C 108.81097 25.69128 111.04951 23.45274 113.81097 23.45274 C 116.57243 23.45274 118.81097 25.69128 118.81097 28.45274 Z M 113.81097 28.45274  " />
 </g>
 </g>
 </g>
 <g transform="translate(113.81097,28.45274)">
 <g fill="#000">
 <text style="stroke:none" transform="scale(1,-1) translate(0.0,0)" text-anchor="middle"  font-size="10"> 
<g fill="#000">
 <g stroke="none"> </g> </g>
 </text> 
</g>
 </g>
 </g>
 </g>
 </g>
 <g stroke="#c0c0c0" fill="#c0c0c0">
 <path d="  " fill="none"/>
 <path d=" M -52.2548 -16.55167 L -5.95644 -39.70094  " fill="none"/>
 <g transform="matrix(0.89436,-0.44717,0.44717,0.89436,-5.95645,-39.70093)">
 <g stroke-width="0.31999">
 <g stroke-dasharray="none" stroke-dashoffset="0.0">
 <g stroke-linecap="round">
 <g stroke-linejoin="round">
 <path d=" M -1.19998 1.59998 C -1.09998 0.99998 0.0 0.09999 0.29999 0.0 C 0.0 -0.09999 -1.09998 -0.99998 -1.19998 -1.59998  " fill="none"/>
 </g>
 </g>
 </g>
 </g>
  </g>
 </g>
 <g stroke="#c0c0c0" fill="#c0c0c0">
 <path d="  " fill="none"/>
 <path d=" M -51.86078 -15.4874 L -6.46109 -26.83766  " fill="none"/>
 <g transform="matrix(0.97014,-0.24251,0.24251,0.97014,-6.4611,-26.83766)">
 <g stroke-width="0.31999">
 <g stroke-dasharray="none" stroke-dashoffset="0.0">
 <g stroke-linecap="round">
 <g stroke-linejoin="round">
 <path d=" M -1.19998 1.59998 C -1.09998 0.99998 0.0 0.09999 0.29999 0.0 C 0.0 -0.09999 -1.09998 -0.99998 -1.19998 -1.59998  " fill="none"/>
 </g>
 </g>
 </g>
 </g>
  </g>
 </g>
 <g stroke="#c0c0c0" fill="#c0c0c0">
 <path d="  " fill="none"/>
 <path d=" M -51.70549 -14.22636 L -6.65999 -14.22636  " fill="none"/>
 <g transform="translate(-6.65999,-14.22636)">
 <g stroke-width="0.31999">
 <g stroke-dasharray="none" stroke-dashoffset="0.0">
 <g stroke-linecap="round">
 <g stroke-linejoin="round">
 <path d=" M -1.19998 1.59998 C -1.09998 0.99998 0.0 0.09999 0.29999 0.0 C 0.0 -0.09999 -1.09998 -0.99998 -1.19998 -1.59998  " fill="none"/>
 </g>
 </g>
 </g>
 </g>
  </g>
 </g>
 <g stroke="#c0c0c0" fill="#c0c0c0">
 <path d="  " fill="none"/>
 <path d=" M -51.86078 -12.96533 L -6.46109 -1.61508  " fill="none"/>
 <g transform="matrix(0.97014,0.24251,-0.24251,0.97014,-6.4611,-1.61508)">
 <g stroke-width="0.31999">
 <g stroke-dasharray="none" stroke-dashoffset="0.0">
 <g stroke-linecap="round">
 <g stroke-linejoin="round">
 <path d=" M -1.19998 1.59998 C -1.09998 0.99998 0.0 0.09999 0.29999 0.0 C 0.0 -0.09999 -1.09998 -0.99998 -1.19998 -1.59998  " fill="none"/>
 </g>
 </g>
 </g>
 </g>
  </g>
 </g>
 <g stroke="#c0c0c0" fill="#c0c0c0">
 <path d="  " fill="none"/>
 <path d=" M -52.2548 -11.90106 L -5.95644 11.2482  " fill="none"/>
 <g transform="matrix(0.89436,0.44717,-0.44717,0.89436,-5.95645,11.24818)">
 <g stroke-width="0.31999">
 <g stroke-dasharray="none" stroke-dashoffset="0.0">
 <g stroke-linecap="round">
 <g stroke-linejoin="round">
 <path d=" M -1.19998 1.59998 C -1.09998 0.99998 0.0 0.09999 0.29999 0.0 C 0.0 -0.09999 -1.09998 -0.99998 -1.19998 -1.59998  " fill="none"/>
 </g>
 </g>
 </g>
 </g>
  </g>
 </g>
 <g stroke="#c0c0c0" fill="#c0c0c0">
 <path d="  " fill="none"/>
 <path d=" M -52.74564 -11.10641 L -5.32779 24.45682  " fill="none"/>
 <g transform="matrix(0.79997,0.59999,-0.59999,0.79997,-5.3278,24.4568)">
 <g stroke-width="0.31999">
 <g stroke-dasharray="none" stroke-dashoffset="0.0">
 <g stroke-linecap="round">
 <g stroke-linejoin="round">
 <path d=" M -1.19998 1.59998 C -1.09998 0.99998 0.0 0.09999 0.29999 0.0 C 0.0 -0.09999 -1.09998 -0.99998 -1.19998 -1.59998  " fill="none"/>
 </g>
 </g>
 </g>
 </g>
  </g>
 </g>
 <g stroke="#c0c0c0" fill="#c0c0c0">
 <path d="  " fill="none"/>
 <path d=" M -53.22853 -10.54941 L -4.70932 37.96979  " fill="none"/>
 <g transform="matrix(0.7071,0.7071,-0.7071,0.7071,-4.70932,37.96979)">
 <g stroke-width="0.31999">
 <g stroke-dasharray="none" stroke-dashoffset="0.0">
 <g stroke-linecap="round">
 <g stroke-linejoin="round">
 <path d=" M -1.19998 1.59998 C -1.09998 0.99998 0.0 0.09999 0.29999 0.0 C 0.0 -0.09999 -1.09998 -0.99998 -1.19998 -1.59998  " fill="none"/>
 </g>
 </g>
 </g>
 </g>
  </g>
 </g>
 <g stroke="#c0c0c0" fill="#c0c0c0">
 <path d="  " fill="none"/>
 <path d=" M -53.65724 -10.16609 L -4.16022 51.70523  " fill="none"/>
 <g transform="matrix(0.62465,0.78082,-0.78082,0.62465,-4.16023,51.70523)">
 <g stroke-width="0.31999">
 <g stroke-dasharray="none" stroke-dashoffset="0.0">
 <g stroke-linecap="round">
 <g stroke-linejoin="round">
 <path d=" M -1.19998 1.59998 C -1.09998 0.99998 0.0 0.09999 0.29999 0.0 C 0.0 -0.09999 -1.09998 -0.99998 -1.19998 -1.59998  " fill="none"/>
 </g>
 </g>
 </g>
 </g>
  </g>
 </g>
 <g stroke="#c0c0c0" fill="#c0c0c0">
 <path d="  " fill="none"/>
 <path d=" M -53.22853 10.54941 L -4.70932 -37.96979  " fill="none"/>
 <g transform="matrix(0.7071,-0.7071,0.7071,0.7071,-4.70932,-37.96979)">
 <g stroke-width="0.31999">
 <g stroke-dasharray="none" stroke-dashoffset="0.0">
 <g stroke-linecap="round">
 <g stroke-linejoin="round">
 <path d=" M -1.19998 1.59998 C -1.09998 0.99998 0.0 0.09999 0.29999 0.0 C 0.0 -0.09999 -1.09998 -0.99998 -1.19998 -1.59998  " fill="none"/>
 </g>
 </g>
 </g>
 </g>
  </g>
 </g>
 <g stroke="#c0c0c0" fill="#c0c0c0">
 <path d="  " fill="none"/>
 <path d=" M -52.74564 11.10641 L -5.32779 -24.45682  " fill="none"/>
 <g transform="matrix(0.79997,-0.59999,0.59999,0.79997,-5.3278,-24.4568)">
 <g stroke-width="0.31999">
 <g stroke-dasharray="none" stroke-dashoffset="0.0">
 <g stroke-linecap="round">
 <g stroke-linejoin="round">
 <path d=" M -1.19998 1.59998 C -1.09998 0.99998 0.0 0.09999 0.29999 0.0 C 0.0 -0.09999 -1.09998 -0.99998 -1.19998 -1.59998  " fill="none"/>
 </g>
 </g>
 </g>
 </g>
  </g>
 </g>
 <g stroke="#c0c0c0" fill="#c0c0c0">
 <path d="  " fill="none"/>
 <path d=" M -52.2548 11.90106 L -5.95644 -11.2482  " fill="none"/>
 <g transform="matrix(0.89436,-0.44717,0.44717,0.89436,-5.95645,-11.24818)">
 <g stroke-width="0.31999">
 <g stroke-dasharray="none" stroke-dashoffset="0.0">
 <g stroke-linecap="round">
 <g stroke-linejoin="round">
 <path d=" M -1.19998 1.59998 C -1.09998 0.99998 0.0 0.09999 0.29999 0.0 C 0.0 -0.09999 -1.09998 -0.99998 -1.19998 -1.59998  " fill="none"/>
 </g>
 </g>
 </g>
 </g>
  </g>
 </g>
 <g stroke="#c0c0c0" fill="#c0c0c0">
 <path d="  " fill="none"/>
 <path d=" M -51.86078 12.96533 L -6.46109 1.61508  " fill="none"/>
 <g transform="matrix(0.97014,-0.24251,0.24251,0.97014,-6.4611,1.61508)">
 <g stroke-width="0.31999">
 <g stroke-dasharray="none" stroke-dashoffset="0.0">
 <g stroke-linecap="round">
 <g stroke-linejoin="round">
 <path d=" M -1.19998 1.59998 C -1.09998 0.99998 0.0 0.09999 0.29999 0.0 C 0.0 -0.09999 -1.09998 -0.99998 -1.19998 -1.59998  " fill="none"/>
 </g>
 </g>
 </g>
 </g>
  </g>
 </g>
 <g stroke="#c0c0c0" fill="#c0c0c0">
 <path d="  " fill="none"/>
 <path d=" M -51.70549 14.22636 L -6.65999 14.22636  " fill="none"/>
 <g transform="translate(-6.65999,14.22636)">
 <g stroke-width="0.31999">
 <g stroke-dasharray="none" stroke-dashoffset="0.0">
 <g stroke-linecap="round">
 <g stroke-linejoin="round">
 <path d=" M -1.19998 1.59998 C -1.09998 0.99998 0.0 0.09999 0.29999 0.0 C 0.0 -0.09999 -1.09998 -0.99998 -1.19998 -1.59998  " fill="none"/>
 </g>
 </g>
 </g>
 </g>
  </g>
 </g>
 <g stroke="#c0c0c0" fill="#c0c0c0">
 <path d="  " fill="none"/>
 <path d=" M -51.86078 15.4874 L -6.46109 26.83766  " fill="none"/>
 <g transform="matrix(0.97014,0.24251,-0.24251,0.97014,-6.4611,26.83766)">
 <g stroke-width="0.31999">
 <g stroke-dasharray="none" stroke-dashoffset="0.0">
 <g stroke-linecap="round">
 <g stroke-linejoin="round">
 <path d=" M -1.19998 1.59998 C -1.09998 0.99998 0.0 0.09999 0.29999 0.0 C 0.0 -0.09999 -1.09998 -0.99998 -1.19998 -1.59998  " fill="none"/>
 </g>
 </g>
 </g>
 </g>
  </g>
 </g>
 <g stroke="#c0c0c0" fill="#c0c0c0">
 <path d="  " fill="none"/>
 <path d=" M -52.2548 16.55167 L -5.95644 39.70094  " fill="none"/>
 <g transform="matrix(0.89436,0.44717,-0.44717,0.89436,-5.95645,39.70093)">
 <g stroke-width="0.31999">
 <g stroke-dasharray="none" stroke-dashoffset="0.0">
 <g stroke-linecap="round">
 <g stroke-linejoin="round">
 <path d=" M -1.19998 1.59998 C -1.09998 0.99998 0.0 0.09999 0.29999 0.0 C 0.0 -0.09999 -1.09998 -0.99998 -1.19998 -1.59998  " fill="none"/>
 </g>
 </g>
 </g>
 </g>
  </g>
 </g>
 <g stroke="#c0c0c0" fill="#c0c0c0">
 <path d="  " fill="none"/>
 <path d=" M -52.74564 17.34631 L -5.32779 52.90956  " fill="none"/>
 <g transform="matrix(0.79997,0.59999,-0.59999,0.79997,-5.3278,52.90955)">
 <g stroke-width="0.31999">
 <g stroke-dasharray="none" stroke-dashoffset="0.0">
 <g stroke-linecap="round">
 <g stroke-linejoin="round">
 <path d=" M -1.19998 1.59998 C -1.09998 0.99998 0.0 0.09999 0.29999 0.0 C 0.0 -0.09999 -1.09998 -0.99998 -1.19998 -1.59998  " fill="none"/>
 </g>
 </g>
 </g>
 </g>
  </g>
 </g>
 <g stroke="#c0c0c0" fill="#c0c0c0">
 <path d="  " fill="none"/>
 <path d=" M -54.0212 38.35263 L -3.6941 -37.13791  " fill="none"/>
 <g transform="matrix(0.55467,-0.83202,0.83202,0.55467,-3.6941,-37.1379)">
 <g stroke-width="0.31999">
 <g stroke-dasharray="none" stroke-dashoffset="0.0">
 <g stroke-linecap="round">
 <g stroke-linejoin="round">
 <path d=" M -1.19998 1.59998 C -1.09998 0.99998 0.0 0.09999 0.29999 0.0 C 0.0 -0.09999 -1.09998 -0.99998 -1.19998 -1.59998  " fill="none"/>
 </g>
 </g>
 </g>
 </g>
  </g>
 </g>
 <g stroke="#c0c0c0" fill="#c0c0c0">
 <path d="  " fill="none"/>
 <path d=" M -53.65724 38.61884 L -4.16022 -23.25249  " fill="none"/>
 <g transform="matrix(0.62465,-0.78082,0.78082,0.62465,-4.16023,-23.25249)">
 <g stroke-width="0.31999">
 <g stroke-dasharray="none" stroke-dashoffset="0.0">
 <g stroke-linecap="round">
 <g stroke-linejoin="round">
 <path d=" M -1.19998 1.59998 C -1.09998 0.99998 0.0 0.09999 0.29999 0.0 C 0.0 -0.09999 -1.09998 -0.99998 -1.19998 -1.59998  " fill="none"/>
 </g>
 </g>
 </g>
 </g>
  </g>
 </g>
 <g stroke="#c0c0c0" fill="#c0c0c0">
 <path d="  " fill="none"/>
 <path d=" M -53.22853 39.00215 L -4.70932 -9.51704  " fill="none"/>
 <g transform="matrix(0.7071,-0.7071,0.7071,0.7071,-4.70932,-9.51704)">
 <g stroke-width="0.31999">
 <g stroke-dasharray="none" stroke-dashoffset="0.0">
 <g stroke-linecap="round">
 <g stroke-linejoin="round">
 <path d=" M -1.19998 1.59998 C -1.09998 0.99998 0.0 0.09999 0.29999 0.0 C 0.0 -0.09999 -1.09998 -0.99998 -1.19998 -1.59998  " fill="none"/>
 </g>
 </g>
 </g>
 </g>
  </g>
 </g>
 <g stroke="#c0c0c0" fill="#c0c0c0">
 <path d="  " fill="none"/>
 <path d=" M -52.74564 39.55916 L -5.32779 3.99593  " fill="none"/>
 <g transform="matrix(0.79997,-0.59999,0.59999,0.79997,-5.3278,3.99594)">
 <g stroke-width="0.31999">
 <g stroke-dasharray="none" stroke-dashoffset="0.0">
 <g stroke-linecap="round">
 <g stroke-linejoin="round">
 <path d=" M -1.19998 1.59998 C -1.09998 0.99998 0.0 0.09999 0.29999 0.0 C 0.0 -0.09999 -1.09998 -0.99998 -1.19998 -1.59998  " fill="none"/>
 </g>
 </g>
 </g>
 </g>
  </g>
 </g>
 <g stroke="#c0c0c0" fill="#c0c0c0">
 <path d="  " fill="none"/>
 <path d=" M -52.2548 40.3538 L -5.95644 17.20453  " fill="none"/>
 <g transform="matrix(0.89436,-0.44717,0.44717,0.89436,-5.95645,17.20454)">
 <g stroke-width="0.31999">
 <g stroke-dasharray="none" stroke-dashoffset="0.0">
 <g stroke-linecap="round">
 <g stroke-linejoin="round">
 <path d=" M -1.19998 1.59998 C -1.09998 0.99998 0.0 0.09999 0.29999 0.0 C 0.0 -0.09999 -1.09998 -0.99998 -1.19998 -1.59998  " fill="none"/>
 </g>
 </g>
 </g>
 </g>
  </g>
 </g>
 <g stroke="#c0c0c0" fill="#c0c0c0">
 <path d="  " fill="none"/>
 <path d=" M -51.86078 41.41808 L -6.46109 30.06783  " fill="none"/>
 <g transform="matrix(0.97014,-0.24251,0.24251,0.97014,-6.4611,30.06783)">
 <g stroke-width="0.31999">
 <g stroke-dasharray="none" stroke-dashoffset="0.0">
 <g stroke-linecap="round">
 <g stroke-linejoin="round">
 <path d=" M -1.19998 1.59998 C -1.09998 0.99998 0.0 0.09999 0.29999 0.0 C 0.0 -0.09999 -1.09998 -0.99998 -1.19998 -1.59998  " fill="none"/>
 </g>
 </g>
 </g>
 </g>
  </g>
 </g>
 <g stroke="#c0c0c0" fill="#c0c0c0">
 <path d="  " fill="none"/>
 <path d=" M -51.70549 42.67911 L -6.65999 42.67911  " fill="none"/>
 <g transform="translate(-6.65999,42.67911)">
 <g stroke-width="0.31999">
 <g stroke-dasharray="none" stroke-dashoffset="0.0">
 <g stroke-linecap="round">
 <g stroke-linejoin="round">
 <path d=" M -1.19998 1.59998 C -1.09998 0.99998 0.0 0.09999 0.29999 0.0 C 0.0 -0.09999 -1.09998 -0.99998 -1.19998 -1.59998  " fill="none"/>
 </g>
 </g>
 </g>
 </g>
  </g>
 </g>
 <g stroke="#c0c0c0" fill="#c0c0c0">
 <path d="  " fill="none"/>
 <path d=" M -51.86078 43.94014 L -6.46109 55.2904  " fill="none"/>
 <g transform="matrix(0.97014,0.24251,-0.24251,0.97014,-6.4611,55.2904)">
 <g stroke-width="0.31999">
 <g stroke-dasharray="none" stroke-dashoffset="0.0">
 <g stroke-linecap="round">
 <g stroke-linejoin="round">
 <path d=" M -1.19998 1.59998 C -1.09998 0.99998 0.0 0.09999 0.29999 0.0 C 0.0 -0.09999 -1.09998 -0.99998 -1.19998 -1.59998  " fill="none"/>
 </g>
 </g>
 </g>
 </g>
  </g>
 </g>
 <g stroke="#c0c0c0" fill="#c0c0c0">
 <path d="  " fill="none"/>
 <path d=" M 4.40955 -39.9232 L 51.25789 -10.64284  " fill="none"/>
 <g transform="matrix(0.84799,0.52998,-0.52998,0.84799,51.25787,-10.64285)">
 <g stroke-width="0.31999">
 <g stroke-dasharray="none" stroke-dashoffset="0.0">
 <g stroke-linecap="round">
 <g stroke-linejoin="round">
 <path d=" M -1.19998 1.59998 C -1.09998 0.99998 0.0 0.09999 0.29999 0.0 C 0.0 -0.09999 -1.09998 -0.99998 -1.19998 -1.59998  " fill="none"/>
 </g>
 </g>
 </g>
 </g>
  </g>
 </g>
 <g stroke="#c0c0c0" fill="#c0c0c0">
 <path d="  " fill="none"/>
 <path d=" M 3.91324 -39.25504 L 51.89354 2.72774  " fill="none"/>
 <g transform="matrix(0.75255,0.65848,-0.65848,0.75255,51.89354,2.72772)">
 <g stroke-width="0.31999">
 <g stroke-dasharray="none" stroke-dashoffset="0.0">
 <g stroke-linecap="round">
 <g stroke-linejoin="round">
 <path d=" M -1.19998 1.59998 C -1.09998 0.99998 0.0 0.09999 0.29999 0.0 C 0.0 -0.09999 -1.09998 -0.99998 -1.19998 -1.59998  " fill="none"/>
 </g>
 </g>
 </g>
 </g>
  </g>
 </g>
 <g stroke="#c0c0c0" fill="#c0c0c0">
 <path d="  " fill="none"/>
 <path d=" M 3.45447 -38.79285 L 52.48112 16.36217  " fill="none"/>
 <g transform="matrix(0.66432,0.74736,-0.74736,0.66432,52.48111,16.36215)">
 <g stroke-width="0.31999">
 <g stroke-dasharray="none" stroke-dashoffset="0.0">
 <g stroke-linecap="round">
 <g stroke-linejoin="round">
 <path d=" M -1.19998 1.59998 C -1.09998 0.99998 0.0 0.09999 0.29999 0.0 C 0.0 -0.09999 -1.09998 -0.99998 -1.19998 -1.59998  " fill="none"/>
 </g>
 </g>
 </g>
 </g>
  </g>
 </g>
 <g stroke="#c0c0c0" fill="#c0c0c0">
 <path d="  " fill="none"/>
 <path d=" M 3.05836 -38.4738 L 52.98843 30.17981  " fill="none"/>
 <g transform="matrix(0.58815,0.80872,-0.80872,0.58815,52.98842,30.17981)">
 <g stroke-width="0.31999">
 <g stroke-dasharray="none" stroke-dashoffset="0.0">
 <g stroke-linecap="round">
 <g stroke-linejoin="round">
 <path d=" M -1.19998 1.59998 C -1.09998 0.99998 0.0 0.09999 0.29999 0.0 C 0.0 -0.09999 -1.09998 -0.99998 -1.19998 -1.59998  " fill="none"/>
 </g>
 </g>
 </g>
 </g>
  </g>
 </g>
 <g stroke="#c0c0c0" fill="#c0c0c0">
 <path d="  " fill="none"/>
 <path d=" M 4.86864 -26.62701 L 50.66989 -9.4515  " fill="none"/>
 <g transform="matrix(0.93628,0.3511,-0.3511,0.93628,50.66989,-9.4515)">
 <g stroke-width="0.31999">
 <g stroke-dasharray="none" stroke-dashoffset="0.0">
 <g stroke-linecap="round">
 <g stroke-linejoin="round">
 <path d=" M -1.19998 1.59998 C -1.09998 0.99998 0.0 0.09999 0.29999 0.0 C 0.0 -0.09999 -1.09998 -0.99998 -1.19998 -1.59998  " fill="none"/>
 </g>
 </g>
 </g>
 </g>
  </g>
 </g>
 <g stroke="#c0c0c0" fill="#c0c0c0">
 <path d="  " fill="none"/>
 <path d=" M 4.40955 -25.69684 L 51.25789 3.58351  " fill="none"/>
 <g transform="matrix(0.84799,0.52998,-0.52998,0.84799,51.25787,3.5835)">
 <g stroke-width="0.31999">
 <g stroke-dasharray="none" stroke-dashoffset="0.0">
 <g stroke-linecap="round">
 <g stroke-linejoin="round">
 <path d=" M -1.19998 1.59998 C -1.09998 0.99998 0.0 0.09999 0.29999 0.0 C 0.0 -0.09999 -1.09998 -0.99998 -1.19998 -1.59998  " fill="none"/>
 </g>
 </g>
 </g>
 </g>
  </g>
 </g>
 <g stroke="#c0c0c0" fill="#c0c0c0">
 <path d="  " fill="none"/>
 <path d=" M 3.91324 -25.02867 L 51.89354 16.95412  " fill="none"/>
 <g transform="matrix(0.75255,0.65848,-0.65848,0.75255,51.89354,16.9541)">
 <g stroke-width="0.31999">
 <g stroke-dasharray="none" stroke-dashoffset="0.0">
 <g stroke-linecap="round">
 <g stroke-linejoin="round">
 <path d=" M -1.19998 1.59998 C -1.09998 0.99998 0.0 0.09999 0.29999 0.0 C 0.0 -0.09999 -1.09998 -0.99998 -1.19998 -1.59998  " fill="none"/>
 </g>
 </g>
 </g>
 </g>
  </g>
 </g>
 <g stroke="#c0c0c0" fill="#c0c0c0">
 <path d="  " fill="none"/>
 <path d=" M 3.45447 -24.56648 L 52.48112 30.58853  " fill="none"/>
 <g transform="matrix(0.66432,0.74736,-0.74736,0.66432,52.48111,30.58852)">
 <g stroke-width="0.31999">
 <g stroke-dasharray="none" stroke-dashoffset="0.0">
 <g stroke-linecap="round">
 <g stroke-linejoin="round">
 <path d=" M -1.19998 1.59998 C -1.09998 0.99998 0.0 0.09999 0.29999 0.0 C 0.0 -0.09999 -1.09998 -0.99998 -1.19998 -1.59998  " fill="none"/>
 </g>
 </g>
 </g>
 </g>
  </g>
 </g>
 <g stroke="#c0c0c0" fill="#c0c0c0">
 <path d="  " fill="none"/>
 <path d=" M 5.15976 -13.58145 L 50.29704 -7.93915  " fill="none"/>
 <g transform="matrix(0.99226,0.12402,-0.12402,0.99226,50.29703,-7.93916)">
 <g stroke-width="0.31999">
 <g stroke-dasharray="none" stroke-dashoffset="0.0">
 <g stroke-linecap="round">
 <g stroke-linejoin="round">
 <path d=" M -1.19998 1.59998 C -1.09998 0.99998 0.0 0.09999 0.29999 0.0 C 0.0 -0.09999 -1.09998 -0.99998 -1.19998 -1.59998  " fill="none"/>
 </g>
 </g>
 </g>
 </g>
  </g>
 </g>
 <g stroke="#c0c0c0" fill="#c0c0c0">
 <path d="  " fill="none"/>
 <path d=" M 4.86864 -12.40063 L 50.66989 4.77484  " fill="none"/>
 <g transform="matrix(0.93628,0.3511,-0.3511,0.93628,50.66989,4.77484)">
 <g stroke-width="0.31999">
 <g stroke-dasharray="none" stroke-dashoffset="0.0">
 <g stroke-linecap="round">
 <g stroke-linejoin="round">
 <path d=" M -1.19998 1.59998 C -1.09998 0.99998 0.0 0.09999 0.29999 0.0 C 0.0 -0.09999 -1.09998 -0.99998 -1.19998 -1.59998  " fill="none"/>
 </g>
 </g>
 </g>
 </g>
  </g>
 </g>
 <g stroke="#c0c0c0" fill="#c0c0c0">
 <path d="  " fill="none"/>
 <path d=" M 4.40955 -11.47046 L 51.25789 17.80989  " fill="none"/>
 <g transform="matrix(0.84799,0.52998,-0.52998,0.84799,51.25787,17.80988)">
 <g stroke-width="0.31999">
 <g stroke-dasharray="none" stroke-dashoffset="0.0">
 <g stroke-linecap="round">
 <g stroke-linejoin="round">
 <path d=" M -1.19998 1.59998 C -1.09998 0.99998 0.0 0.09999 0.29999 0.0 C 0.0 -0.09999 -1.09998 -0.99998 -1.19998 -1.59998  " fill="none"/>
 </g>
 </g>
 </g>
 </g>
  </g>
 </g>
 <g stroke="#c0c0c0" fill="#c0c0c0">
 <path d="  " fill="none"/>
 <path d=" M 3.91324 -10.80229 L 51.89354 31.18048  " fill="none"/>
 <g transform="matrix(0.75255,0.65848,-0.65848,0.75255,51.89354,31.18047)">
 <g stroke-width="0.31999">
 <g stroke-dasharray="none" stroke-dashoffset="0.0">
 <g stroke-linecap="round">
 <g stroke-linejoin="round">
 <path d=" M -1.19998 1.59998 C -1.09998 0.99998 0.0 0.09999 0.29999 0.0 C 0.0 -0.09999 -1.09998 -0.99998 -1.19998 -1.59998  " fill="none"/>
 </g>
 </g>
 </g>
 </g>
  </g>
 </g>
 <g stroke="#c0c0c0" fill="#c0c0c0">
 <path d="  " fill="none"/>
 <path d=" M 5.15976 -0.64491 L 50.29704 -6.2872  " fill="none"/>
 <g transform="matrix(0.99226,-0.12402,0.12402,0.99226,50.29703,-6.28719)">
 <g stroke-width="0.31999">
 <g stroke-dasharray="none" stroke-dashoffset="0.0">
 <g stroke-linecap="round">
 <g stroke-linejoin="round">
 <path d=" M -1.19998 1.59998 C -1.09998 0.99998 0.0 0.09999 0.29999 0.0 C 0.0 -0.09999 -1.09998 -0.99998 -1.19998 -1.59998  " fill="none"/>
 </g>
 </g>
 </g>
 </g>
  </g>
 </g>
 <g stroke="#c0c0c0" fill="#c0c0c0">
 <path d="  " fill="none"/>
 <path d=" M 5.15976 0.64491 L 50.29704 6.2872  " fill="none"/>
 <g transform="matrix(0.99226,0.12402,-0.12402,0.99226,50.29703,6.28719)">
 <g stroke-width="0.31999">
 <g stroke-dasharray="none" stroke-dashoffset="0.0">
 <g stroke-linecap="round">
 <g stroke-linejoin="round">
 <path d=" M -1.19998 1.59998 C -1.09998 0.99998 0.0 0.09999 0.29999 0.0 C 0.0 -0.09999 -1.09998 -0.99998 -1.19998 -1.59998  " fill="none"/>
 </g>
 </g>
 </g>
 </g>
  </g>
 </g>
 <g stroke="#c0c0c0" fill="#c0c0c0">
 <path d="  " fill="none"/>
 <path d=" M 4.86864 1.82573 L 50.66989 19.00122  " fill="none"/>
 <g transform="matrix(0.93628,0.3511,-0.3511,0.93628,50.66989,19.00122)">
 <g stroke-width="0.31999">
 <g stroke-dasharray="none" stroke-dashoffset="0.0">
 <g stroke-linecap="round">
 <g stroke-linejoin="round">
 <path d=" M -1.19998 1.59998 C -1.09998 0.99998 0.0 0.09999 0.29999 0.0 C 0.0 -0.09999 -1.09998 -0.99998 -1.19998 -1.59998  " fill="none"/>
 </g>
 </g>
 </g>
 </g>
  </g>
 </g>
 <g stroke="#c0c0c0" fill="#c0c0c0">
 <path d="  " fill="none"/>
 <path d=" M 4.40955 2.7559 L 51.25789 32.03625  " fill="none"/>
 <g transform="matrix(0.84799,0.52998,-0.52998,0.84799,51.25787,32.03624)">
 <g stroke-width="0.31999">
 <g stroke-dasharray="none" stroke-dashoffset="0.0">
 <g stroke-linecap="round">
 <g stroke-linejoin="round">
 <path d=" M -1.19998 1.59998 C -1.09998 0.99998 0.0 0.09999 0.29999 0.0 C 0.0 -0.09999 -1.09998 -0.99998 -1.19998 -1.59998  " fill="none"/>
 </g>
 </g>
 </g>
 </g>
  </g>
 </g>
 <g stroke="#c0c0c0" fill="#c0c0c0">
 <path d="  " fill="none"/>
 <path d=" M 4.86864 12.40063 L 50.66989 -4.77484  " fill="none"/>
 <g transform="matrix(0.93628,-0.3511,0.3511,0.93628,50.66989,-4.77484)">
 <g stroke-width="0.31999">
 <g stroke-dasharray="none" stroke-dashoffset="0.0">
 <g stroke-linecap="round">
 <g stroke-linejoin="round">
 <path d=" M -1.19998 1.59998 C -1.09998 0.99998 0.0 0.09999 0.29999 0.0 C 0.0 -0.09999 -1.09998 -0.99998 -1.19998 -1.59998  " fill="none"/>
 </g>
 </g>
 </g>
 </g>
  </g>
 </g>
 <g stroke="#c0c0c0" fill="#c0c0c0">
 <path d="  " fill="none"/>
 <path d=" M 5.15976 13.58145 L 50.29704 7.93915  " fill="none"/>
 <g transform="matrix(0.99226,-0.12402,0.12402,0.99226,50.29703,7.93916)">
 <g stroke-width="0.31999">
 <g stroke-dasharray="none" stroke-dashoffset="0.0">
 <g stroke-linecap="round">
 <g stroke-linejoin="round">
 <path d=" M -1.19998 1.59998 C -1.09998 0.99998 0.0 0.09999 0.29999 0.0 C 0.0 -0.09999 -1.09998 -0.99998 -1.19998 -1.59998  " fill="none"/>
 </g>
 </g>
 </g>
 </g>
  </g>
 </g>
 <g stroke="#c0c0c0" fill="#c0c0c0">
 <path d="  " fill="none"/>
 <path d=" M 5.15976 14.87128 L 50.29704 20.51358  " fill="none"/>
 <g transform="matrix(0.99226,0.12402,-0.12402,0.99226,50.29703,20.51357)">
 <g stroke-width="0.31999">
 <g stroke-dasharray="none" stroke-dashoffset="0.0">
 <g stroke-linecap="round">
 <g stroke-linejoin="round">
 <path d=" M -1.19998 1.59998 C -1.09998 0.99998 0.0 0.09999 0.29999 0.0 C 0.0 -0.09999 -1.09998 -0.99998 -1.19998 -1.59998  " fill="none"/>
 </g>
 </g>
 </g>
 </g>
  </g>
 </g>
 <g stroke="#c0c0c0" fill="#c0c0c0">
 <path d="  " fill="none"/>
 <path d=" M 4.86864 16.0521 L 50.66989 33.22758  " fill="none"/>
 <g transform="matrix(0.93628,0.3511,-0.3511,0.93628,50.66989,33.22758)">
 <g stroke-width="0.31999">
 <g stroke-dasharray="none" stroke-dashoffset="0.0">
 <g stroke-linecap="round">
 <g stroke-linejoin="round">
 <path d=" M -1.19998 1.59998 C -1.09998 0.99998 0.0 0.09999 0.29999 0.0 C 0.0 -0.09999 -1.09998 -0.99998 -1.19998 -1.59998  " fill="none"/>
 </g>
 </g>
 </g>
 </g>
  </g>
 </g>
 <g stroke="#c0c0c0" fill="#c0c0c0">
 <path d="  " fill="none"/>
 <path d=" M 4.40955 25.69684 L 51.25789 -3.58351  " fill="none"/>
 <g transform="matrix(0.84799,-0.52998,0.52998,0.84799,51.25787,-3.5835)">
 <g stroke-width="0.31999">
 <g stroke-dasharray="none" stroke-dashoffset="0.0">
 <g stroke-linecap="round">
 <g stroke-linejoin="round">
 <path d=" M -1.19998 1.59998 C -1.09998 0.99998 0.0 0.09999 0.29999 0.0 C 0.0 -0.09999 -1.09998 -0.99998 -1.19998 -1.59998  " fill="none"/>
 </g>
 </g>
 </g>
 </g>
  </g>
 </g>
 <g stroke="#c0c0c0" fill="#c0c0c0">
 <path d="  " fill="none"/>
 <path d=" M 4.86864 26.62701 L 50.66989 9.4515  " fill="none"/>
 <g transform="matrix(0.93628,-0.3511,0.3511,0.93628,50.66989,9.4515)">
 <g stroke-width="0.31999">
 <g stroke-dasharray="none" stroke-dashoffset="0.0">
 <g stroke-linecap="round">
 <g stroke-linejoin="round">
 <path d=" M -1.19998 1.59998 C -1.09998 0.99998 0.0 0.09999 0.29999 0.0 C 0.0 -0.09999 -1.09998 -0.99998 -1.19998 -1.59998  " fill="none"/>
 </g>
 </g>
 </g>
 </g>
  </g>
 </g>
 <g stroke="#c0c0c0" fill="#c0c0c0">
 <path d="  " fill="none"/>
 <path d=" M 5.15976 27.80783 L 50.29704 22.16553  " fill="none"/>
 <g transform="matrix(0.99226,-0.12402,0.12402,0.99226,50.29703,22.16554)">
 <g stroke-width="0.31999">
 <g stroke-dasharray="none" stroke-dashoffset="0.0">
 <g stroke-linecap="round">
 <g stroke-linejoin="round">
 <path d=" M -1.19998 1.59998 C -1.09998 0.99998 0.0 0.09999 0.29999 0.0 C 0.0 -0.09999 -1.09998 -0.99998 -1.19998 -1.59998  " fill="none"/>
 </g>
 </g>
 </g>
 </g>
  </g>
 </g>
 <g stroke="#c0c0c0" fill="#c0c0c0">
 <path d="  " fill="none"/>
 <path d=" M 5.15976 29.09766 L 50.29704 34.73994  " fill="none"/>
 <g transform="matrix(0.99226,0.12402,-0.12402,0.99226,50.29703,34.73993)">
 <g stroke-width="0.31999">
 <g stroke-dasharray="none" stroke-dashoffset="0.0">
 <g stroke-linecap="round">
 <g stroke-linejoin="round">
 <path d=" M -1.19998 1.59998 C -1.09998 0.99998 0.0 0.09999 0.29999 0.0 C 0.0 -0.09999 -1.09998 -0.99998 -1.19998 -1.59998  " fill="none"/>
 </g>
 </g>
 </g>
 </g>
  </g>
 </g>
 <g stroke="#c0c0c0" fill="#c0c0c0">
 <path d="  " fill="none"/>
 <path d=" M 3.91324 39.25504 L 51.89354 -2.72774  " fill="none"/>
 <g transform="matrix(0.75255,-0.65848,0.65848,0.75255,51.89354,-2.72772)">
 <g stroke-width="0.31999">
 <g stroke-dasharray="none" stroke-dashoffset="0.0">
 <g stroke-linecap="round">
 <g stroke-linejoin="round">
 <path d=" M -1.19998 1.59998 C -1.09998 0.99998 0.0 0.09999 0.29999 0.0 C 0.0 -0.09999 -1.09998 -0.99998 -1.19998 -1.59998  " fill="none"/>
 </g>
 </g>
 </g>
 </g>
  </g>
 </g>
 <g stroke="#c0c0c0" fill="#c0c0c0">
 <path d="  " fill="none"/>
 <path d=" M 4.40955 39.9232 L 51.25789 10.64284  " fill="none"/>
 <g transform="matrix(0.84799,-0.52998,0.52998,0.84799,51.25787,10.64285)">
 <g stroke-width="0.31999">
 <g stroke-dasharray="none" stroke-dashoffset="0.0">
 <g stroke-linecap="round">
 <g stroke-linejoin="round">
 <path d=" M -1.19998 1.59998 C -1.09998 0.99998 0.0 0.09999 0.29999 0.0 C 0.0 -0.09999 -1.09998 -0.99998 -1.19998 -1.59998  " fill="none"/>
 </g>
 </g>
 </g>
 </g>
  </g>
 </g>
 <g stroke="#c0c0c0" fill="#c0c0c0">
 <path d="  " fill="none"/>
 <path d=" M 4.86864 40.85338 L 50.66989 23.67789  " fill="none"/>
 <g transform="matrix(0.93628,-0.3511,0.3511,0.93628,50.66989,23.67789)">
 <g stroke-width="0.31999">
 <g stroke-dasharray="none" stroke-dashoffset="0.0">
 <g stroke-linecap="round">
 <g stroke-linejoin="round">
 <path d=" M -1.19998 1.59998 C -1.09998 0.99998 0.0 0.09999 0.29999 0.0 C 0.0 -0.09999 -1.09998 -0.99998 -1.19998 -1.59998  " fill="none"/>
 </g>
 </g>
 </g>
 </g>
  </g>
 </g>
 <g stroke="#c0c0c0" fill="#c0c0c0">
 <path d="  " fill="none"/>
 <path d=" M 5.15976 42.0342 L 50.29704 36.39189  " fill="none"/>
 <g transform="matrix(0.99226,-0.12402,0.12402,0.99226,50.29703,36.3919)">
 <g stroke-width="0.31999">
 <g stroke-dasharray="none" stroke-dashoffset="0.0">
 <g stroke-linecap="round">
 <g stroke-linejoin="round">
 <path d=" M -1.19998 1.59998 C -1.09998 0.99998 0.0 0.09999 0.29999 0.0 C 0.0 -0.09999 -1.09998 -0.99998 -1.19998 -1.59998  " fill="none"/>
 </g>
 </g>
 </g>
 </g>
  </g>
 </g>
 <g stroke="#c0c0c0" fill="#c0c0c0">
 <path d="  " fill="none"/>
 <path d=" M 3.45447 53.01923 L 52.48112 -2.13579  " fill="none"/>
 <g transform="matrix(0.66432,-0.74736,0.74736,0.66432,52.48111,-2.13577)">
 <g stroke-width="0.31999">
 <g stroke-dasharray="none" stroke-dashoffset="0.0">
 <g stroke-linecap="round">
 <g stroke-linejoin="round">
 <path d=" M -1.19998 1.59998 C -1.09998 0.99998 0.0 0.09999 0.29999 0.0 C 0.0 -0.09999 -1.09998 -0.99998 -1.19998 -1.59998  " fill="none"/>
 </g>
 </g>
 </g>
 </g>
  </g>
 </g>
 <g stroke="#c0c0c0" fill="#c0c0c0">
 <path d="  " fill="none"/>
 <path d=" M 3.91324 53.48141 L 51.89354 11.49861  " fill="none"/>
 <g transform="matrix(0.75255,-0.65848,0.65848,0.75255,51.89354,11.49863)">
 <g stroke-width="0.31999">
 <g stroke-dasharray="none" stroke-dashoffset="0.0">
 <g stroke-linecap="round">
 <g stroke-linejoin="round">
 <path d=" M -1.19998 1.59998 C -1.09998 0.99998 0.0 0.09999 0.29999 0.0 C 0.0 -0.09999 -1.09998 -0.99998 -1.19998 -1.59998  " fill="none"/>
 </g>
 </g>
 </g>
 </g>
  </g>
 </g>
 <g stroke="#c0c0c0" fill="#c0c0c0">
 <path d="  " fill="none"/>
 <path d=" M 4.40955 54.14958 L 51.25789 24.86922  " fill="none"/>
 <g transform="matrix(0.84799,-0.52998,0.52998,0.84799,51.25787,24.86923)">
 <g stroke-width="0.31999">
 <g stroke-dasharray="none" stroke-dashoffset="0.0">
 <g stroke-linecap="round">
 <g stroke-linejoin="round">
 <path d=" M -1.19998 1.59998 C -1.09998 0.99998 0.0 0.09999 0.29999 0.0 C 0.0 -0.09999 -1.09998 -0.99998 -1.19998 -1.59998  " fill="none"/>
 </g>
 </g>
 </g>
 </g>
  </g>
 </g>
 <g stroke="#c0c0c0" fill="#c0c0c0">
 <path d="  " fill="none"/>
 <path d=" M 4.86864 55.07976 L 50.66989 37.90425  " fill="none"/>
 <g transform="matrix(0.93628,-0.3511,0.3511,0.93628,50.66989,37.90425)">
 <g stroke-width="0.31999">
 <g stroke-dasharray="none" stroke-dashoffset="0.0">
 <g stroke-linecap="round">
 <g stroke-linejoin="round">
 <path d=" M -1.19998 1.59998 C -1.09998 0.99998 0.0 0.09999 0.29999 0.0 C 0.0 -0.09999 -1.09998 -0.99998 -1.19998 -1.59998  " fill="none"/>
 </g>
 </g>
 </g>
 </g>
  </g>
 </g>
 <g stroke="#c0c0c0" fill="#c0c0c0">
 <path d="  " fill="none"/>
 <path d=" M 62.06525 -6.46826 L 107.20253 -0.82597  " fill="none"/>
 <g transform="matrix(0.99226,0.12402,-0.12402,0.99226,107.20251,-0.82599)">
 <g stroke-width="0.31999">
 <g stroke-dasharray="none" stroke-dashoffset="0.0">
 <g stroke-linecap="round">
 <g stroke-linejoin="round">
 <path d=" M -1.19998 1.59998 C -1.09998 0.99998 0.0 0.09999 0.29999 0.0 C 0.0 -0.09999 -1.09998 -0.99998 -1.19998 -1.59998  " fill="none"/>
 </g>
 </g>
 </g>
 </g>
  </g>
 </g>
 <g stroke="#c0c0c0" fill="#c0c0c0">
 <path d="  " fill="none"/>
 <path d=" M 61.31503 -4.35727 L 108.16338 24.92308  " fill="none"/>
 <g transform="matrix(0.84799,0.52998,-0.52998,0.84799,108.16336,24.92307)">
 <g stroke-width="0.31999">
 <g stroke-dasharray="none" stroke-dashoffset="0.0">
 <g stroke-linecap="round">
 <g stroke-linejoin="round">
 <path d=" M -1.19998 1.59998 C -1.09998 0.99998 0.0 0.09999 0.29999 0.0 C 0.0 -0.09999 -1.09998 -0.99998 -1.19998 -1.59998  " fill="none"/>
 </g>
 </g>
 </g>
 </g>
  </g>
 </g>
 <g stroke="#c0c0c0" fill="#c0c0c0">
 <path d="  " fill="none"/>
 <path d=" M 62.06525 6.46826 L 107.20253 0.82597  " fill="none"/>
 <g transform="matrix(0.99226,-0.12402,0.12402,0.99226,107.20251,0.82599)">
 <g stroke-width="0.31999">
 <g stroke-dasharray="none" stroke-dashoffset="0.0">
 <g stroke-linecap="round">
 <g stroke-linejoin="round">
 <path d=" M -1.19998 1.59998 C -1.09998 0.99998 0.0 0.09999 0.29999 0.0 C 0.0 -0.09999 -1.09998 -0.99998 -1.19998 -1.59998  " fill="none"/>
 </g>
 </g>
 </g>
 </g>
  </g>
 </g>
 <g stroke="#c0c0c0" fill="#c0c0c0">
 <path d="  " fill="none"/>
 <path d=" M 61.77412 8.9389 L 107.57538 26.11441  " fill="none"/>
 <g transform="matrix(0.93628,0.3511,-0.3511,0.93628,107.57538,26.11441)">
 <g stroke-width="0.31999">
 <g stroke-dasharray="none" stroke-dashoffset="0.0">
 <g stroke-linecap="round">
 <g stroke-linejoin="round">
 <path d=" M -1.19998 1.59998 C -1.09998 0.99998 0.0 0.09999 0.29999 0.0 C 0.0 -0.09999 -1.09998 -0.99998 -1.19998 -1.59998  " fill="none"/>
 </g>
 </g>
 </g>
 </g>
  </g>
 </g>
 <g stroke="#c0c0c0" fill="#c0c0c0">
 <path d="  " fill="none"/>
 <path d=" M 61.77412 19.51382 L 107.57538 2.33833  " fill="none"/>
 <g transform="matrix(0.93628,-0.3511,0.3511,0.93628,107.57538,2.33833)">
 <g stroke-width="0.31999">
 <g stroke-dasharray="none" stroke-dashoffset="0.0">
 <g stroke-linecap="round">
 <g stroke-linejoin="round">
 <path d=" M -1.19998 1.59998 C -1.09998 0.99998 0.0 0.09999 0.29999 0.0 C 0.0 -0.09999 -1.09998 -0.99998 -1.19998 -1.59998  " fill="none"/>
 </g>
 </g>
 </g>
 </g>
  </g>
 </g>
 <g stroke="#c0c0c0" fill="#c0c0c0">
 <path d="  " fill="none"/>
 <path d=" M 62.06525 21.98447 L 107.20253 27.62677  " fill="none"/>
 <g transform="matrix(0.99226,0.12402,-0.12402,0.99226,107.20251,27.62675)">
 <g stroke-width="0.31999">
 <g stroke-dasharray="none" stroke-dashoffset="0.0">
 <g stroke-linecap="round">
 <g stroke-linejoin="round">
 <path d=" M -1.19998 1.59998 C -1.09998 0.99998 0.0 0.09999 0.29999 0.0 C 0.0 -0.09999 -1.09998 -0.99998 -1.19998 -1.59998  " fill="none"/>
 </g>
 </g>
 </g>
 </g>
  </g>
 </g>
 <g stroke="#c0c0c0" fill="#c0c0c0">
 <path d="  " fill="none"/>
 <path d=" M 61.31503 32.81001 L 108.16338 3.52966  " fill="none"/>
 <g transform="matrix(0.84799,-0.52998,0.52998,0.84799,108.16336,3.52968)">
 <g stroke-width="0.31999">
 <g stroke-dasharray="none" stroke-dashoffset="0.0">
 <g stroke-linecap="round">
 <g stroke-linejoin="round">
 <path d=" M -1.19998 1.59998 C -1.09998 0.99998 0.0 0.09999 0.29999 0.0 C 0.0 -0.09999 -1.09998 -0.99998 -1.19998 -1.59998  " fill="none"/>
 </g>
 </g>
 </g>
 </g>
  </g>
 </g>
 <g stroke="#c0c0c0" fill="#c0c0c0">
 <path d="  " fill="none"/>
 <path d=" M 62.06525 34.921 L 107.20253 29.27872  " fill="none"/>
 <g transform="matrix(0.99226,-0.12402,0.12402,0.99226,107.20251,29.27873)">
 <g stroke-width="0.31999">
 <g stroke-dasharray="none" stroke-dashoffset="0.0">
 <g stroke-linecap="round">
 <g stroke-linejoin="round">
 <path d=" M -1.19998 1.59998 C -1.09998 0.99998 0.0 0.09999 0.29999 0.0 C 0.0 -0.09999 -1.09998 -0.99998 -1.19998 -1.59998  " fill="none"/>
 </g>
 </g>
 </g>
 </g>
  </g>
 </g>
 </g>
 </g>
 
                                                      </g> 
</svg> 
