<?xml version="1.0" encoding="iso-8859-1" standalone="no"?> 
<?xml-stylesheet href="SVGOut.css" type="text/css"?> 
<svg xmlns="http://www.w3.org/2000/svg" xmlns:xlink="http://www.w3.org/1999/xlink" width="162.01248pt" height="128.02538pt" viewBox="-33.52878 -22.85378 162.01248 128.02538 "> 
<g transform="translate(0,105.1716 ) scale(1,-1) translate(0,22.85378 )"> 
<g stroke="#000" fill="#000">
 <g stroke-width="0.4">
 <g stroke-width="0.2">
 <g stroke="#808080" fill="#808080">
 <path d=" M 12.24902 -9.5434 L 12.24902 -5.27577 M 63.28662 -9.5434 L 63.28662 -5.27577 M 114.32422 -9.5434 L 114.32422 -5.27577 M 12.24902 104.9716 L 12.24902 100.70398 M 63.28662 104.9716 L 63.28662 100.70398 M 114.32422 104.9716 L 114.32422 100.70398  " fill="none"/>
 </g>
 </g>
 <g stroke-width="0.2">
 <g stroke="#808080" fill="#808080">
 <path d=" M -11.6628 21.35152 L -7.39493 21.35152 M -11.6628 64.92604 L -7.39493 64.92604 M 128.2837 21.35152 L 124.01584 21.35152 M 128.2837 64.92604 L 124.01584 64.92604  " fill="none"/>
 </g>
 </g>
 <path d=" M -11.6628 -9.5434 L -11.6628 104.9716 L 128.2837 104.9716 L 128.2837 -9.5434 L -11.6628 -9.5434 Z  " fill="none"/>
 <g transform="translate(4.74901,-19.5208)">
 <g fill="#000">
 <text style="stroke:none" transform="scale(1,-1) translate(7.50002,0)" text-anchor="middle"  font-size="10"> 
<g fill="#000">
 <g stroke="none"> 200</g> </g>
 </text> 
</g>
 </g>
 <g transform="translate(55.7866,-19.5208)">
 <g fill="#000">
 <text style="stroke:none" transform="scale(1,-1) translate(7.50002,0)" text-anchor="middle"  font-size="10"> 
<g fill="#000">
 <g stroke="none"> 400</g> </g>
 </text> 
</g>
 </g>
 <g transform="translate(106.8242,-19.5208)">
 <g fill="#000">
 <text style="stroke:none" transform="scale(1,-1) translate(7.50002,0)" text-anchor="middle"  font-size="10"> 
<g fill="#000">
 <g stroke="none"> 600</g> </g>
 </text> 
</g>
 </g>
 <g transform="translate(-30.1958,18.1293)">
 <g fill="#000">
 <text style="stroke:none" transform="scale(1,-1) translate(7.50002,0)" text-anchor="middle"  font-size="10"> 
<g fill="#000">
 <g stroke="none"> 500</g> </g>
 </text> 
</g>
 </g>
 <g transform="translate(-30.1958,61.70383)">
 <g fill="#000">
 <text style="stroke:none" transform="scale(1,-1) translate(7.50002,0)" text-anchor="middle"  font-size="10"> 
<g fill="#000">
 <g stroke="none"> 600</g> </g>
 </text> 
</g>
 </g>
 <clipPath id="pgfcp1"><path d=" M -11.6628 -9.5434 L 128.2837 -9.5434 L 128.2837 104.9716 L -11.6628 104.9716 Z  "/> </clipPath>
 <g clip-path="url(#pgfcp1)">
 </g>
 <g stroke="#c00">
 <g fill="#f00">
 <path d=" M 118.62091 95.4282 C 118.62091 96.53279 117.7255 97.4282 116.62091 97.4282 C 115.51633 97.4282 114.62091 96.53279 114.62091 95.4282 C 114.62091 94.32362 115.51633 93.4282 116.62091 93.4282 C 117.7255 93.4282 118.62091 94.32362 118.62091 95.4282 Z M 116.62091 95.4282  " fill="none"/>
 </g>
 </g>
 <g stroke="#cca600">
 <g fill="#ffd000">
 <path d=" M 86.72241 43.57452 C 86.72241 44.67911 85.827 45.57452 84.72241 45.57452 C 83.61783 45.57452 82.72241 44.67911 82.72241 43.57452 C 82.72241 42.46994 83.61783 41.57452 84.72241 41.57452 C 85.827 41.57452 86.72241 42.46994 86.72241 43.57452 Z M 84.72241 43.57452  " fill="none"/>
 </g>
 </g>
 <g stroke="#cc2d00">
 <g fill="#ff3900">
 <path d=" M 75.49414 81.04861 C 75.49414 82.1532 74.59872 83.04861 73.49414 83.04861 C 72.38956 83.04861 71.49414 82.1532 71.49414 81.04861 C 71.49414 79.94403 72.38956 79.04861 73.49414 79.04861 C 74.59872 79.04861 75.49414 79.94403 75.49414 81.04861 Z M 73.49414 81.04861  " fill="none"/>
 </g>
 </g>
 <g stroke="#cc4200">
 <g fill="#ff5300">
 <path d=" M 73.70782 74.51244 C 73.70782 75.61702 72.81241 76.51244 71.70782 76.51244 C 70.60324 76.51244 69.70782 75.61702 69.70782 74.51244 C 69.70782 73.40785 70.60324 72.51244 71.70782 72.51244 C 72.81241 72.51244 73.70782 73.40785 73.70782 74.51244 Z M 71.70782 74.51244  " fill="none"/>
 </g>
 </g>
 <g stroke="#cc6b00">
 <g fill="#ff8600">
 <path d=" M 73.19745 61.87582 C 73.19745 62.98041 72.30203 63.87582 71.19745 63.87582 C 70.09286 63.87582 69.19745 62.98041 69.19745 61.87582 C 69.19745 60.77124 70.09286 59.87582 71.19745 59.87582 C 72.30203 59.87582 73.19745 60.77124 73.19745 61.87582 Z M 71.19745 61.87582  " fill="none"/>
 </g>
 </g>
 <g stroke="#ccb600">
 <g fill="#ffe300">
 <path d=" M 71.15594 38.78133 C 71.15594 39.88591 70.26053 40.78133 69.15594 40.78133 C 68.05136 40.78133 67.15594 39.88591 67.15594 38.78133 C 67.15594 37.67674 68.05136 36.78133 69.15594 36.78133 C 70.26053 36.78133 71.15594 37.67674 71.15594 38.78133 Z M 69.15594 38.78133  " fill="none"/>
 </g>
 </g>
 <g stroke="#cc6400">
 <g fill="#ff7d00">
 <path d=" M 69.88 64.05455 C 69.88 65.15913 68.98459 66.05455 67.88 66.05455 C 66.77542 66.05455 65.88 65.15913 65.88 64.05455 C 65.88 62.94997 66.77542 62.05455 67.88 62.05455 C 68.98459 62.05455 69.88 62.94997 69.88 64.05455 Z M 67.88 64.05455  " fill="none"/>
 </g>
 </g>
 <g stroke="#81814b">
 <g fill="#a1a15e">
 <path d=" M 67.32813 20.04428 C 67.32813 21.14886 66.43271 22.04428 65.32813 22.04428 C 64.22354 22.04428 63.32813 21.14886 63.32813 20.04428 C 63.32813 18.9397 64.22354 18.04428 65.32813 18.04428 C 66.43271 18.04428 67.32813 18.9397 67.32813 20.04428 Z M 65.32813 20.04428  " fill="none"/>
 </g>
 </g>
 <g stroke="#cc8000">
 <g fill="#ffa000">
 <path d=" M 66.81775 55.33965 C 66.81775 56.44423 65.92233 57.33965 64.81775 57.33965 C 63.71317 57.33965 62.81775 56.44423 62.81775 55.33965 C 62.81775 54.23506 63.71317 53.33965 64.81775 53.33965 C 65.92233 53.33965 66.81775 54.23506 66.81775 55.33965 Z M 64.81775 55.33965  " fill="none"/>
 </g>
 </g>
 <g stroke="#cc8400">
 <g fill="#ffa600">
 <path d=" M 65.03143 54.03241 C 65.03143 55.137 64.13602 56.03241 63.03143 56.03241 C 61.92685 56.03241 61.03143 55.137 61.03143 54.03241 C 61.03143 52.92783 61.92685 52.03241 63.03143 52.03241 C 64.13602 52.03241 65.03143 52.92783 65.03143 54.03241 Z M 63.03143 54.03241  " fill="none"/>
 </g>
 </g>
 <g stroke="#cc4800">
 <g fill="#ff5a00">
 <path d=" M 64.39346 72.76945 C 64.39346 73.87404 63.49805 74.76945 62.39346 74.76945 C 61.28888 74.76945 60.39346 73.87404 60.39346 72.76945 C 60.39346 71.66487 61.28888 70.76945 62.39346 70.76945 C 63.49805 70.76945 64.39346 71.66487 64.39346 72.76945 Z M 62.39346 72.76945  " fill="none"/>
 </g>
 </g>
 <g stroke="#cc9700">
 <g fill="#ffbc00">
 <path d=" M 63.5003 48.36772 C 63.5003 49.4723 62.60489 50.36772 61.5003 50.36772 C 60.39572 50.36772 59.5003 49.4723 59.5003 48.36772 C 59.5003 47.26314 60.39572 46.36772 61.5003 46.36772 C 62.60489 46.36772 63.5003 47.26314 63.5003 48.36772 Z M 61.5003 48.36772  " fill="none"/>
 </g>
 </g>
 <g stroke="#cc4100">
 <g fill="#ff5100">
 <path d=" M 62.98993 74.94818 C 62.98993 76.05276 62.09451 76.94818 60.98993 76.94818 C 59.88535 76.94818 58.98993 76.05276 58.98993 74.94818 C 58.98993 73.8436 59.88535 72.94818 60.98993 72.94818 C 62.09451 72.94818 62.98993 73.8436 62.98993 74.94818 Z M 60.98993 74.94818  " fill="none"/>
 </g>
 </g>
 <g stroke="#cc9200">
 <g fill="#ffb700">
 <path d=" M 62.60715 49.67496 C 62.60715 50.77954 61.71173 51.67496 60.60715 51.67496 C 59.50256 51.67496 58.60715 50.77954 58.60715 49.67496 C 58.60715 48.57037 59.50256 47.67496 60.60715 47.67496 C 61.71173 47.67496 62.60715 48.57037 62.60715 49.67496 Z M 60.60715 49.67496  " fill="none"/>
 </g>
 </g>
 <g stroke="#cc9b00">
 <g fill="#ffc200">
 <path d=" M 62.47955 47.06049 C 62.47955 48.16507 61.58414 49.06049 60.47955 49.06049 C 59.37497 49.06049 58.47955 48.16507 58.47955 47.06049 C 58.47955 45.9559 59.37497 45.06049 60.47955 45.06049 C 61.58414 45.06049 62.47955 45.9559 62.47955 47.06049 Z M 60.47955 47.06049  " fill="none"/>
 </g>
 </g>
 <g stroke="#cc9200">
 <g fill="#ffb700">
 <path d=" M 61.96918 49.67496 C 61.96918 50.77954 61.07376 51.67496 59.96918 51.67496 C 58.8646 51.67496 57.96918 50.77954 57.96918 49.67496 C 57.96918 48.57037 58.8646 47.67496 59.96918 47.67496 C 61.07376 47.67496 61.96918 48.57037 61.96918 49.67496 Z M 59.96918 49.67496  " fill="none"/>
 </g>
 </g>
 <g stroke="#cc7b00">
 <g fill="#f90">
 <path d=" M 58.39655 57.08263 C 58.39655 58.18721 57.50113 59.08263 56.39655 59.08263 C 55.29196 59.08263 54.39655 58.18721 54.39655 57.08263 C 54.39655 55.97804 55.29196 55.08263 56.39655 55.08263 C 57.50113 55.08263 58.39655 55.97804 58.39655 57.08263 Z M 56.39655 57.08263  " fill="none"/>
 </g>
 </g>
 <g stroke="#ccbf00">
 <g fill="#ffef00">
 <path d=" M 57.88617 35.73111 C 57.88617 36.8357 56.99075 37.73111 55.88617 37.73111 C 54.78159 37.73111 53.88617 36.8357 53.88617 35.73111 C 53.88617 34.62653 54.78159 33.73111 55.88617 33.73111 C 56.99075 33.73111 57.88617 34.62653 57.88617 35.73111 Z M 55.88617 35.73111  " fill="none"/>
 </g>
 </g>
 <g stroke="#cc4f00">
 <g fill="#ff6300">
 <path d=" M 57.1206 70.59073 C 57.1206 71.69531 56.22519 72.59073 55.1206 72.59073 C 54.01602 72.59073 53.1206 71.69531 53.1206 70.59073 C 53.1206 69.48615 54.01602 68.59073 55.1206 68.59073 C 56.22519 68.59073 57.1206 69.48615 57.1206 70.59073 Z M 55.1206 70.59073  " fill="none"/>
 </g>
 </g>
 <g stroke="#cc2f00">
 <g fill="#ff3a00">
 <path d=" M 56.48264 80.61287 C 56.48264 81.71745 55.58722 82.61287 54.48264 82.61287 C 53.37805 82.61287 52.48264 81.71745 52.48264 80.61287 C 52.48264 79.50829 53.37805 78.61287 54.48264 78.61287 C 55.58722 78.61287 56.48264 79.50829 56.48264 80.61287 Z M 54.48264 80.61287  " fill="none"/>
 </g>
 </g>
 <g stroke="#cc0c00">
 <g fill="#ff0f00">
 <path d=" M 54.56873 91.5065 C 54.56873 92.61108 53.67331 93.5065 52.56873 93.5065 C 51.46414 93.5065 50.56873 92.61108 50.56873 91.5065 C 50.56873 90.40192 51.46414 89.5065 52.56873 89.5065 C 53.67331 89.5065 54.56873 90.40192 54.56873 91.5065 Z M 52.56873 91.5065  " fill="none"/>
 </g>
 </g>
 <g stroke="#686864">
 <g fill="#82827d">
 <path d=" M 53.80316 16.12257 C 53.80316 17.22716 52.90775 18.12257 51.80316 18.12257 C 50.69858 18.12257 49.80316 17.22716 49.80316 16.12257 C 49.80316 15.01799 50.69858 14.12257 51.80316 14.12257 C 52.90775 14.12257 53.80316 15.01799 53.80316 16.12257 Z M 51.80316 16.12257  " fill="none"/>
 </g>
 </g>
 <g stroke="#c90">
 <g fill="#ffc000">
 <path d=" M 53.29279 47.49623 C 53.29279 48.60081 52.39737 49.49623 51.29279 49.49623 C 50.1882 49.49623 49.29279 48.60081 49.29279 47.49623 C 49.29279 46.39165 50.1882 45.49623 51.29279 45.49623 C 52.39737 45.49623 53.29279 46.39165 53.29279 47.49623 Z M 51.29279 47.49623  " fill="none"/>
 </g>
 </g>
 <g stroke="#7e7e4e">
 <g fill="#9e9e61">
 <path d=" M 52.01685 19.60854 C 52.01685 20.71312 51.12143 21.60854 50.01685 21.60854 C 48.91226 21.60854 48.01685 20.71312 48.01685 19.60854 C 48.01685 18.50395 48.91226 17.60854 50.01685 17.60854 C 51.12143 17.60854 52.01685 18.50395 52.01685 19.60854 Z M 50.01685 19.60854  " fill="none"/>
 </g>
 </g>
 <g stroke="#cc9800">
 <g fill="#ffbe00">
 <path d=" M 51.76166 47.93198 C 51.76166 49.03656 50.86624 49.93198 49.76166 49.93198 C 48.65707 49.93198 47.76166 49.03656 47.76166 47.93198 C 47.76166 46.8274 48.65707 45.93198 49.76166 45.93198 C 50.86624 45.93198 51.76166 46.8274 51.76166 47.93198 Z M 49.76166 47.93198  " fill="none"/>
 </g>
 </g>
 <g stroke="#cc7c00">
 <g fill="#ff9b00">
 <path d=" M 51.37888 56.64688 C 51.37888 57.75146 50.48346 58.64688 49.37888 58.64688 C 48.27429 58.64688 47.37888 57.75146 47.37888 56.64688 C 47.37888 55.5423 48.27429 54.64688 49.37888 54.64688 C 50.48346 54.64688 51.37888 55.5423 51.37888 56.64688 Z M 49.37888 56.64688  " fill="none"/>
 </g>
 </g>
 <g stroke="#cc6700">
 <g fill="#ff8100">
 <path d=" M 50.23053 63.18306 C 50.23053 64.28764 49.33511 65.18306 48.23053 65.18306 C 47.12595 65.18306 46.23053 64.28764 46.23053 63.18306 C 46.23053 62.07848 47.12595 61.18306 48.23053 61.18306 C 49.33511 61.18306 50.23053 62.07848 50.23053 63.18306 Z M 48.23053 63.18306  " fill="none"/>
 </g>
 </g>
 <g stroke="#cc1b00">
 <g fill="#f20">
 <path d=" M 49.72015 86.7133 C 49.72015 87.81789 48.82474 88.7133 47.72015 88.7133 C 46.61557 88.7133 45.72015 87.81789 45.72015 86.7133 C 45.72015 85.60872 46.61557 84.7133 47.72015 84.7133 C 48.82474 84.7133 49.72015 85.60872 49.72015 86.7133 Z M 47.72015 86.7133  " fill="none"/>
 </g>
 </g>
 <g stroke="#cca600">
 <g fill="#ffd000">
 <path d=" M 48.6994 43.57452 C 48.6994 44.67911 47.80399 45.57452 46.6994 45.57452 C 45.59482 45.57452 44.6994 44.67911 44.6994 43.57452 C 44.6994 42.46994 45.59482 41.57452 46.6994 41.57452 C 47.80399 41.57452 48.6994 42.46994 48.6994 43.57452 Z M 46.6994 43.57452  " fill="none"/>
 </g>
 </g>
 <g stroke="#00c">
 <g fill="#00f">
 <path d=" M 46.91309 0.0 C 46.91309 1.10458 46.01767 2.0 44.91309 2.0 C 43.8085 2.0 42.91309 1.10458 42.91309 0.0 C 42.91309 -1.10458 43.8085 -2.0 44.91309 -2.0 C 46.01767 -2.0 46.91309 -1.10458 46.91309 0.0 Z M 44.91309 0.0  " fill="none"/>
 </g>
 </g>
 <g stroke="#cc9800">
 <g fill="#ffbe00">
 <path d=" M 46.14752 47.93198 C 46.14752 49.03656 45.2521 49.93198 44.14752 49.93198 C 43.04294 49.93198 42.14752 49.03656 42.14752 47.93198 C 42.14752 46.8274 43.04294 45.93198 44.14752 45.93198 C 45.2521 45.93198 46.14752 46.8274 46.14752 47.93198 Z M 44.14752 47.93198  " fill="none"/>
 </g>
 </g>
 <g stroke="#cc4e00">
 <g fill="#ff6100">
 <path d=" M 45.89233 71.02647 C 45.89233 72.13106 44.99692 73.02647 43.89233 73.02647 C 42.78775 73.02647 41.89233 72.13106 41.89233 71.02647 C 41.89233 69.92189 42.78775 69.02647 43.89233 69.02647 C 44.99692 69.02647 45.89233 69.92189 45.89233 71.02647 Z M 43.89233 71.02647  " fill="none"/>
 </g>
 </g>
 <g stroke="#cb0">
 <g fill="#ffea00">
 <path d=" M 44.87158 37.03835 C 44.87158 38.14293 43.97617 39.03835 42.87158 39.03835 C 41.767 39.03835 40.87158 38.14293 40.87158 37.03835 C 40.87158 35.93376 41.767 35.03835 42.87158 35.03835 C 43.97617 35.03835 44.87158 35.93376 44.87158 37.03835 Z M 42.87158 37.03835  " fill="none"/>
 </g>
 </g>
 <g stroke="#62626a">
 <g fill="#7a7a85">
 <path d=" M 44.6164 15.25108 C 44.6164 16.35567 43.72098 17.25108 42.6164 17.25108 C 41.51181 17.25108 40.6164 16.35567 40.6164 15.25108 C 40.6164 14.1465 41.51181 13.25108 42.6164 13.25108 C 43.72098 13.25108 44.6164 14.1465 44.6164 15.25108 Z M 42.6164 15.25108  " fill="none"/>
 </g>
 </g>
 <g stroke="#656567">
 <g fill="#7e7e81">
 <path d=" M 41.55414 15.68683 C 41.55414 16.79141 40.65872 17.68683 39.55414 17.68683 C 38.44955 17.68683 37.55414 16.79141 37.55414 15.68683 C 37.55414 14.58224 38.44955 13.68683 39.55414 13.68683 C 40.65872 13.68683 41.55414 14.58224 41.55414 15.68683 Z M 39.55414 15.68683  " fill="none"/>
 </g>
 </g>
 <g stroke="#cc5700">
 <g fill="#ff6d00">
 <path d=" M 41.29895 67.97626 C 41.29895 69.08084 40.40353 69.97626 39.29895 69.97626 C 38.19437 69.97626 37.29895 69.08084 37.29895 67.97626 C 37.29895 66.87167 38.19437 65.97626 39.29895 65.97626 C 40.40353 65.97626 41.29895 66.87167 41.29895 67.97626 Z M 39.29895 67.97626  " fill="none"/>
 </g>
 </g>
 <g stroke="#cc7500">
 <g fill="#ff9200">
 <path d=" M 41.04376 58.8256 C 41.04376 59.93019 40.14835 60.8256 39.04376 60.8256 C 37.93918 60.8256 37.04376 59.93019 37.04376 58.8256 C 37.04376 57.72102 37.93918 56.8256 39.04376 56.8256 C 40.14835 56.8256 41.04376 57.72102 41.04376 58.8256 Z M 39.04376 58.8256  " fill="none"/>
 </g>
 </g>
 <g stroke="#ccbf00">
 <g fill="#ffef00">
 <path d=" M 40.78857 35.73111 C 40.78857 36.8357 39.89316 37.73111 38.78857 37.73111 C 37.68399 37.73111 36.78857 36.8357 36.78857 35.73111 C 36.78857 34.62653 37.68399 33.73111 38.78857 33.73111 C 39.89316 33.73111 40.78857 34.62653 40.78857 35.73111 Z M 38.78857 35.73111  " fill="none"/>
 </g>
 </g>
 <g stroke="#cc7c00">
 <g fill="#ff9b00">
 <path d=" M 40.1506 56.64688 C 40.1506 57.75146 39.25519 58.64688 38.1506 58.64688 C 37.04602 58.64688 36.1506 57.75146 36.1506 56.64688 C 36.1506 55.5423 37.04602 54.64688 38.1506 54.64688 C 39.25519 54.64688 40.1506 55.5423 40.1506 56.64688 Z M 38.1506 56.64688  " fill="none"/>
 </g>
 </g>
 <g stroke="#bfbf0d">
 <g fill="#ee1">
 <path d=" M 38.74707 29.63068 C 38.74707 30.73526 37.85165 31.63068 36.74707 31.63068 C 35.64249 31.63068 34.74707 30.73526 34.74707 29.63068 C 34.74707 28.5261 35.64249 27.63068 36.74707 27.63068 C 37.85165 27.63068 38.74707 28.5261 38.74707 29.63068 Z M 36.74707 29.63068  " fill="none"/>
 </g>
 </g>
 <g stroke="#cc7d00">
 <g fill="#ff9d00">
 <path d=" M 36.70557 56.21114 C 36.70557 57.31572 35.81015 58.21114 34.70557 58.21114 C 33.60098 58.21114 32.70557 57.31572 32.70557 56.21114 C 32.70557 55.10655 33.60098 54.21114 34.70557 54.21114 C 35.81015 54.21114 36.70557 55.10655 36.70557 56.21114 Z M 34.70557 56.21114  " fill="none"/>
 </g>
 </g>
 <g stroke="#cc2100">
 <g fill="#ff2900">
 <path d=" M 35.42963 84.97032 C 35.42963 86.0749 34.53421 86.97032 33.42963 86.97032 C 32.32504 86.97032 31.42963 86.0749 31.42963 84.97032 C 31.42963 83.86574 32.32504 82.97032 33.42963 82.97032 C 34.53421 82.97032 35.42963 83.86574 35.42963 84.97032 Z M 33.42963 84.97032  " fill="none"/>
 </g>
 </g>
 <g stroke="#cc7500">
 <g fill="#ff9200">
 <path d=" M 33.13293 58.8256 C 33.13293 59.93019 32.23752 60.8256 31.13293 60.8256 C 30.02835 60.8256 29.13293 59.93019 29.13293 58.8256 C 29.13293 57.72102 30.02835 56.8256 31.13293 56.8256 C 32.23752 56.8256 33.13293 57.72102 33.13293 58.8256 Z M 31.13293 58.8256  " fill="none"/>
 </g>
 </g>
 <g stroke="#cc6400">
 <g fill="#ff7d00">
 <path d=" M 30.83624 64.05455 C 30.83624 65.15913 29.94083 66.05455 28.83624 66.05455 C 27.73166 66.05455 26.83624 65.15913 26.83624 64.05455 C 26.83624 62.94997 27.73166 62.05455 28.83624 62.05455 C 29.94083 62.05455 30.83624 62.94997 30.83624 64.05455 Z M 28.83624 64.05455  " fill="none"/>
 </g>
 </g>
 <g stroke="#cc6a00">
 <g fill="#ff8400">
 <path d=" M 25.98767 62.31157 C 25.98767 63.41615 25.09225 64.31157 23.98767 64.31157 C 22.88309 64.31157 21.98767 63.41615 21.98767 62.31157 C 21.98767 61.20699 22.88309 60.31157 23.98767 60.31157 C 25.09225 60.31157 25.98767 61.20699 25.98767 62.31157 Z M 23.98767 62.31157  " fill="none"/>
 </g>
 </g>
 <g stroke="#c90">
 <g fill="#ffc000">
 <path d=" M 21.2667 47.49623 C 21.2667 48.60081 20.37128 49.49623 19.2667 49.49623 C 18.16211 49.49623 17.2667 48.60081 17.2667 47.49623 C 17.2667 46.39165 18.16211 45.49623 19.2667 45.49623 C 20.37128 45.49623 21.2667 46.39165 21.2667 47.49623 Z M 19.2667 47.49623  " fill="none"/>
 </g>
 </g>
 <g stroke="#ccbd00">
 <g fill="#ffec00">
 <path d=" M 20.37354 36.6026 C 20.37354 37.70718 19.47812 38.6026 18.37354 38.6026 C 17.26895 38.6026 16.37354 37.70718 16.37354 36.6026 C 16.37354 35.49802 17.26895 34.6026 18.37354 34.6026 C 19.47812 34.6026 20.37354 35.49802 20.37354 36.6026 Z M 18.37354 36.6026  " fill="none"/>
 </g>
 </g>
 <g stroke="#ccb300">
 <g fill="#ffe000">
 <path d=" M 17.56647 39.65282 C 17.56647 40.7574 16.67105 41.65282 15.56647 41.65282 C 14.46188 41.65282 13.56647 40.7574 13.56647 39.65282 C 13.56647 38.54823 14.46188 37.65282 15.56647 37.65282 C 16.67105 37.65282 17.56647 38.54823 17.56647 39.65282 Z M 15.56647 39.65282  " fill="none"/>
 </g>
 </g>
 <g stroke="#cc2500">
 <g fill="#ff2e00">
 <path d=" M 12.7179 83.66309 C 12.7179 84.76767 11.82248 85.66309 10.7179 85.66309 C 9.61331 85.66309 8.7179 84.76767 8.7179 83.66309 C 8.7179 82.5585 9.61331 81.66309 10.7179 81.66309 C 11.82248 81.66309 12.7179 82.5585 12.7179 83.66309 Z M 10.7179 83.66309  " fill="none"/>
 </g>
 </g>
 <g stroke="#92923a">
 <g fill="#b6b649">
 <path d=" M 10.67639 22.65875 C 10.67639 23.76334 9.78098 24.65875 8.67639 24.65875 C 7.57181 24.65875 6.67639 23.76334 6.67639 22.65875 C 6.67639 21.55417 7.57181 20.65875 8.67639 20.65875 C 9.78098 20.65875 10.67639 21.55417 10.67639 22.65875 Z M 8.67639 22.65875  " fill="none"/>
 </g>
 </g>
 <g stroke="#cca600">
 <g fill="#ffd000">
 <path d=" M 2.0 43.57452 C 2.0 44.67911 1.10458 45.57452 0.0 45.57452 C -1.10458 45.57452 -2.0 44.67911 -2.0 43.57452 C -2.0 42.46994 -1.10458 41.57452 0.0 41.57452 C 1.10458 41.57452 2.0 42.46994 2.0 43.57452 Z M 0.0 43.57452  " fill="none"/>
 </g>
 </g>
 <path d="  " fill="none"/>
 </g>
 </g>
 
                               </g> 
</svg> 
