<?xml version="1.0" encoding="iso-8859-1" standalone="no"?> 
<?xml-stylesheet href="SVGOut.css" type="text/css"?> 
<svg xmlns="http://www.w3.org/2000/svg" xmlns:xlink="http://www.w3.org/1999/xlink" width="93.07613pt" height="61.94078pt" viewBox="-1.7 -30.65788 93.07613 61.94078 "> 
<g transform="translate(0, 31.2829 ) scale(1,-1) translate(0,30.65788 )"> 
 <g stroke="#000" fill="#000">
 <g stroke-width="0.4">
 <g stroke-width="0.6">
 <g stroke="#000" fill="#000">
 <g stroke-dasharray="none" stroke-dashoffset="0.0">
 <g stroke="#f00" fill="#f00">
 <path d=" M 60.71825 0.0 M 91.07613 0.0 C 91.07613 16.7664 77.48465 30.35788 60.71825 30.35788 C 43.95184 30.35788 30.36037 16.7664 30.36037 0.0 C 30.36037 -16.7664 43.95184 -30.35788 60.71825 -30.35788 C 77.48465 -30.35788 91.07613 -16.7664 91.07613 0.0 Z M 60.71825 0.0  " fill="none"/>
 </g>
 </g>
 </g>
 </g>
 <g stroke="#000">
 <g fill="#000">
 <g stroke="#000">
 <g fill="#000">
 <path d=" M 1.5 0.0 C 1.5 0.82843 0.82843 1.5 0.0 1.5 C -0.82843 1.5 -1.5 0.82843 -1.5 0.0 C -1.5 -0.82843 -0.82843 -1.5 0.0 -1.5 C 0.82843 -1.5 1.5 -0.82843 1.5 0.0 Z M 0.0 0.0  " />
 </g>
 </g>
 <g fill="#000">
 <text style="stroke:none" transform="scale(1,-1) translate(0.0,0)" text-anchor="middle"  font-size="10"> 
<g fill="#000">
 <g stroke="none"> </g> </g>
 </text> 
</g>
 </g>
 </g>
 <g stroke="#000">
 <g fill="#000">
 <g stroke="#000">
 <g fill="#000">
 <path d=" M 47.02931 0.0 C 47.02931 0.82843 46.35774 1.5 45.52931 1.5 C 44.70088 1.5 44.02931 0.82843 44.02931 0.0 C 44.02931 -0.82843 44.70088 -1.5 45.52931 -1.5 C 46.35774 -1.5 47.02931 -0.82843 47.02931 0.0 Z M 45.52931 0.0  " />
 </g>
 </g>
 <g transform="translate(45.52931,0.0)">
 <g fill="#000">
 <text style="stroke:none" transform="scale(1,-1) translate(0.0,0)" text-anchor="middle"  font-size="10"> 
<g fill="#000">
 <g stroke="none"> </g> </g>
 </text> 
</g>
 </g>
 </g>
 </g>
 <g stroke="#000">
 <g fill="#000">
 <g stroke="#000">
 <g fill="#000">
 <path d=" M 62.21507 0.0 C 62.21507 0.82843 61.5435 1.5 60.71507 1.5 C 59.88664 1.5 59.21507 0.82843 59.21507 0.0 C 59.21507 -0.82843 59.88664 -1.5 60.71507 -1.5 C 61.5435 -1.5 62.21507 -0.82843 62.21507 0.0 Z M 60.71507 0.0  " />
 </g>
 </g>
 <g transform="translate(60.71507,0.0)">
 <g fill="#000">
 <text style="stroke:none" transform="scale(1,-1) translate(0.0,0)" text-anchor="middle"  font-size="10"> 
<g fill="#000">
 <g stroke="none"> </g> </g>
 </text> 
</g>
 </g>
 </g>
 </g>
 <g stroke="#000">
 <g fill="#000">
 <g stroke="#000">
 <g fill="#000">
 <path d=" M 69.0512 29.5829 C 69.0512 30.41133 68.37962 31.0829 67.5512 31.0829 C 66.72276 31.0829 66.0512 30.41133 66.0512 29.5829 C 66.0512 28.75447 66.72276 28.0829 67.5512 28.0829 C 68.37962 28.0829 69.0512 28.75447 69.0512 29.5829 Z M 67.5512 29.5829  " />
 </g>
 </g>
 <g transform="translate(67.5512,29.5829)">
 <g fill="#000">
 <text style="stroke:none" transform="scale(1,-1) translate(0.0,0)" text-anchor="middle"  font-size="10"> 
<g fill="#000">
 <g stroke="none"> </g> </g>
 </text> 
</g>
 </g>
 </g>
 </g>
 <g stroke-width="0.6">
 <g stroke="#000" fill="#000">
 <g stroke-dasharray="none" stroke-dashoffset="0.0">
 <path d=" M 0.0 0.0 M 0.0 0.0 L 45.52931 0.0  " fill="none"/>
 </g>
 </g>
 </g>
 <g stroke-width="0.6">
 <g stroke="#000" fill="#000">
 <g stroke-dasharray="none" stroke-dashoffset="0.0">
 <path d=" M 67.5512 29.5829 M 67.5512 29.5829 L 0.0 0.0  " fill="none"/>
 </g>
 </g>
 </g>
 <g stroke-width="0.6">
 <g stroke="#000" fill="#000">
 <g stroke-dasharray="none" stroke-dashoffset="0.0">
 <path d=" M 67.5512 29.5829 M 67.5512 29.5829 L 45.52931 0.0  " fill="none"/>
 </g>
 </g>
 </g>
 <g stroke="#000" fill="#000">
 <g stroke="#000" fill="#000">
 </g>
 <g transform="translate(64.24805,-10.36629)">
 <g fill="#000">
 <text style="stroke:none" transform="scale(1,-1) translate(3.95277,0)" text-anchor="middle"  font-size="10"> 
<g fill="#000">
 <g stroke="none"> <tspan font-family="cmmi" font-size="10">O</tspan></g> </g>
 </text> 
</g>
 </g>
 </g>
 <g stroke="#000" fill="#000">
 <g stroke="#000" fill="#000">
 </g>
 <g transform="translate(3.53297,-10.36629)">
 <g fill="#000">
 <text style="stroke:none" transform="scale(1,-1) translate(3.75,0)" text-anchor="middle"  font-size="10"> 
<g fill="#000">
 <g stroke="none"> <tspan font-family="cmmi" font-size="10">A</tspan> </g> </g>
 </text> 
</g>
 </g>
 </g>
 <g stroke="#000" fill="#000">
 <g stroke="#000" fill="#000">
 </g>
 <g transform="translate(49.06229,-10.36629)">
 <g fill="#000">
 <text style="stroke:none" transform="scale(1,-1) translate(4.0434,0)" text-anchor="middle"  font-size="10"> 
<g fill="#000">
 <g stroke="none"> <tspan font-family="cmmi" font-size="10">B</tspan></g> </g>
 </text> 
</g>
 </g>
 </g>
 <g stroke="#000" fill="#000">
 <g stroke="#000" fill="#000">
 </g>
 <g transform="translate(71.08417,19.21661)">
 <g fill="#000">
 <text style="stroke:none" transform="scale(1,-1) translate(3.90451,0)" text-anchor="middle"  font-size="10"> 
<g fill="#000">
 <g stroke="none"> <tspan font-family="cmmi" font-size="10">P</tspan> </g> </g>
 </text> 
</g>
 </g>
 </g>
 </g>
 </g>
 
                        </g> 
</svg> 
