<?xml version="1.0" encoding="iso-8859-1" standalone="no"?> 
<?xml-stylesheet href="SVGOut.css" type="text/css"?> 
<svg xmlns="http://www.w3.org/2000/svg" xmlns:xlink="http://www.w3.org/1999/xlink" width="112.62077pt" height="101.11809pt" viewBox="-13.48457 -31.06137 112.62077 101.11809 "> 
<g transform="translate(0,70.05672 ) scale(1,-1) translate(0,31.06137 )"> 
<g stroke="#000" fill="#000">
 <g stroke-width="0.4">
 <g stroke-width="0.6">
 <g stroke="#000" fill="#000">
 <g stroke-dasharray="none" stroke-dashoffset="0.0">
 <path d=" M 0.0 0.0 M 0.0 0.0 L 85.35823 0.0  " fill="none"/>
 </g>
 </g>
 </g>
 <g stroke-width="0.6">
 <g stroke="#000" fill="#000">
 <g stroke-dasharray="none" stroke-dashoffset="0.0">
 <path d=" M 85.35823 0.0 M 85.35823 0.0 L 56.90549 56.90549  " fill="none"/>
 </g>
 </g>
 </g>
 <g stroke-width="0.6">
 <g stroke="#000" fill="#000">
 <g stroke-dasharray="none" stroke-dashoffset="0.0">
 <path d=" M 56.90549 56.90549 M 56.90549 56.90549 L 0.0 0.0  " fill="none"/>
 </g>
 </g>
 </g>
 <g stroke="#000" fill="#000">
 <g stroke="#000" fill="#000">
 </g>
 <g transform="translate(46.21208,3.86008)">
 <g fill="#000">
 <text style="stroke:none" transform="scale(1,-1) translate(3.95277,0)" text-anchor="middle"  font-size="10"> 
<g fill="#000">
 <g stroke="none"> <tspan font-family="cmmi" font-size="10">O</tspan></g> </g>
 </text> 
</g>
 </g>
 </g>
 <g transform="translate(-10.1516,-5.55052)">
 <g fill="#000">
 <text style="stroke:none" transform="scale(1,-1) translate(3.75,0)" text-anchor="middle"  font-size="10"> 
<g fill="#000">
 <g stroke="none"> <tspan font-family="cmmi" font-size="10">A</tspan></g> </g>
 </text> 
</g>
 </g>
 <g transform="translate(87.71643,-5.55052)">
 <g fill="#000">
 <text style="stroke:none" transform="scale(1,-1) translate(4.0434,0)" text-anchor="middle"  font-size="10"> 
<g fill="#000">
 <g stroke="none"> <tspan font-family="cmmi" font-size="10">B</tspan></g> </g>
 </text> 
</g>
 </g>
 <g transform="translate(55.10811,59.89043)">
 <g fill="#000">
 <text style="stroke:none" transform="scale(1,-1) translate(3.93124,0)" text-anchor="middle"  font-size="10"> 
<g fill="#000">
 <g stroke="none"> <tspan font-family="cmmi" font-size="10">C</tspan></g> </g>
 </text> 
</g>
 </g>
 <g stroke-width="0.6">
 <g stroke="#000" fill="#000">
 <g stroke-dasharray="none" stroke-dashoffset="0.0">
 <g stroke="#f00" fill="#f00">
 <path d=" M 42.67911 14.22636 M 87.66684 14.22636 C 87.66684 39.07271 67.52545 59.2141 42.67911 59.2141 C 17.83276 59.2141 -2.30862 39.07271 -2.30862 14.22636 C -2.30862 -10.61998 17.83276 -30.76137 42.67911 -30.76137 C 67.52545 -30.76137 87.66684 -10.61998 87.66684 14.22636 Z M 42.67911 14.22636  " fill="none"/>
 </g>
 </g>
 </g>
 </g>
 <g stroke="#000">
 <g fill="#000">
 <g stroke="#000">
 <g fill="#000">
 <path d=" M 44.17911 14.22636 C 44.17911 15.0548 43.50754 15.72636 42.67911 15.72636 C 41.85068 15.72636 41.17911 15.0548 41.17911 14.22636 C 41.17911 13.39793 41.85068 12.72636 42.67911 12.72636 C 43.50754 12.72636 44.17911 13.39793 44.17911 14.22636 Z M 42.67911 14.22636  " />
 </g>
 </g>
 <g transform="translate(42.67911,14.22636)">
 <g fill="#000">
 <text style="stroke:none" transform="scale(1,-1) translate(0.0,0)" text-anchor="middle"  font-size="10"> 
<g fill="#000">
 <g stroke="none"> </g> </g>
 </text> 
</g>
 </g>
 </g>
 </g>
 <g stroke="#000">
 <g fill="#000">
 <g stroke="#000">
 <g fill="#000">
 <path d=" M 1.5 0.0 C 1.5 0.82843 0.82843 1.5 0.0 1.5 C -0.82843 1.5 -1.5 0.82843 -1.5 0.0 C -1.5 -0.82843 -0.82843 -1.5 0.0 -1.5 C 0.82843 -1.5 1.5 -0.82843 1.5 0.0 Z M 0.0 0.0  " />
 </g>
 </g>
 <g fill="#000">
 <text style="stroke:none" transform="scale(1,-1) translate(0.0,0)" text-anchor="middle"  font-size="10"> 
<g fill="#000">
 <g stroke="none"> </g> </g>
 </text> 
</g>
 </g>
 </g>
 <g stroke="#000">
 <g fill="#000">
 <g stroke="#000">
 <g fill="#000">
 <path d=" M 86.85823 0.0 C 86.85823 0.82843 86.18666 1.5 85.35823 1.5 C 84.5298 1.5 83.85823 0.82843 83.85823 0.0 C 83.85823 -0.82843 84.5298 -1.5 85.35823 -1.5 C 86.18666 -1.5 86.85823 -0.82843 86.85823 0.0 Z M 85.35823 0.0  " />
 </g>
 </g>
 <g transform="translate(85.35823,0.0)">
 <g fill="#000">
 <text style="stroke:none" transform="scale(1,-1) translate(0.0,0)" text-anchor="middle"  font-size="10"> 
<g fill="#000">
 <g stroke="none"> </g> </g>
 </text> 
</g>
 </g>
 </g>
 </g>
 <g stroke="#000">
 <g fill="#000">
 <g stroke="#000">
 <g fill="#000">
 <path d=" M 58.40549 56.90549 C 58.40549 57.73392 57.73392 58.40549 56.90549 58.40549 C 56.07706 58.40549 55.40549 57.73392 55.40549 56.90549 C 55.40549 56.07706 56.07706 55.40549 56.90549 55.40549 C 57.73392 55.40549 58.40549 56.07706 58.40549 56.90549 Z M 56.90549 56.90549  " />
 </g>
 </g>
 <g transform="translate(56.90549,56.90549)">
 <g fill="#000">
 <text style="stroke:none" transform="scale(1,-1) translate(0.0,0)" text-anchor="middle"  font-size="10"> 
<g fill="#000">
 <g stroke="none"> </g> </g>
 </text> 
</g>
 </g>
 </g>
 </g>
 </g>
 </g>
 
                     </g> 
</svg> 
