<?xml version="1.0" encoding="iso-8859-1" standalone="no"?> 
<?xml-stylesheet href="SVGOut.css" type="text/css"?> 
<svg xmlns="http://www.w3.org/2000/svg" xmlns:xlink="http://www.w3.org/1999/xlink" width="112.62077pt" height="78.94022pt" viewBox="-14.19586 -9.59479 112.62077 78.94022 "> 
<g transform="translate(0,69.34543 ) scale(1,-1) translate(0,9.59479 )"> 
<g stroke="#000" fill="#000">
 <g stroke-width="0.4">
 <g stroke="#000">
 <g fill="#000">
 <g stroke="#000">
 <g fill="#000">
 <path d=" M 1.5 0.0 C 1.5 0.82843 0.82843 1.5 0.0 1.5 C -0.82843 1.5 -1.5 0.82843 -1.5 0.0 C -1.5 -0.82843 -0.82843 -1.5 0.0 -1.5 C 0.82843 -1.5 1.5 -0.82843 1.5 0.0 Z M 0.0 0.0  " />
 </g>
 </g>
 <g fill="#000">
 <text style="stroke:none" transform="scale(1,-1) translate(0.0,0)" text-anchor="middle"  font-size="10"> 
<g fill="#000">
 <g stroke="none"> </g> </g>
 </text> 
</g>
 </g>
 </g>
 <g stroke="#000">
 <g fill="#000">
 <g stroke="#000">
 <g fill="#000">
 <path d=" M 86.85823 0.0 C 86.85823 0.82843 86.18666 1.5 85.35823 1.5 C 84.5298 1.5 83.85823 0.82843 83.85823 0.0 C 83.85823 -0.82843 84.5298 -1.5 85.35823 -1.5 C 86.18666 -1.5 86.85823 -0.82843 86.85823 0.0 Z M 85.35823 0.0  " />
 </g>
 </g>
 <g transform="translate(85.35823,0.0)">
 <g fill="#000">
 <text style="stroke:none" transform="scale(1,-1) translate(0.0,0)" text-anchor="middle"  font-size="10"> 
<g fill="#000">
 <g stroke="none"> </g> </g>
 </text> 
</g>
 </g>
 </g>
 </g>
 <g stroke="#000">
 <g fill="#000">
 <g stroke="#000">
 <g fill="#000">
 <path d=" M 58.40549 56.90549 C 58.40549 57.73392 57.73392 58.40549 56.90549 58.40549 C 56.07706 58.40549 55.40549 57.73392 55.40549 56.90549 C 55.40549 56.07706 56.07706 55.40549 56.90549 55.40549 C 57.73392 55.40549 58.40549 56.07706 58.40549 56.90549 Z M 56.90549 56.90549  " />
 </g>
 </g>
 <g transform="translate(56.90549,56.90549)">
 <g fill="#000">
 <text style="stroke:none" transform="scale(1,-1) translate(0.0,0)" text-anchor="middle"  font-size="10"> 
<g fill="#000">
 <g stroke="none"> </g> </g>
 </text> 
</g>
 </g>
 </g>
 </g>
 <g stroke="#000">
 <g fill="#000">
 <g stroke="#ccf" fill="#ccf">
 <g stroke="#000">
 <g fill="#000">
 <g stroke="#ccf" fill="#ccf">
 <path d=" M 48.92123 18.96849 C 48.92123 19.79692 48.24966 20.46849 47.42123 20.46849 C 46.5928 20.46849 45.92123 19.79692 45.92123 18.96849 C 45.92123 18.14006 46.5928 17.46849 47.42123 17.46849 C 48.24966 17.46849 48.92123 18.14006 48.92123 18.96849 Z M 47.42123 18.96849  " />
 </g>
 </g>
 </g>
 <g transform="translate(47.42123,18.96849)">
 <g fill="#ccf">
 <text style="stroke:none" transform="scale(1,-1) translate(0.0,0)" text-anchor="middle"  font-size="10"> 
<g fill="#ccf">
 <g stroke="none"> </g> </g>
 </text> 
</g>
 </g>
 </g>
 </g>
 </g>
 <g stroke-width="0.6">
 <g stroke="#000" fill="#000">
 <g stroke-dasharray="none" stroke-dashoffset="0.0">
 <path d=" M 0.0 0.0 M 0.0 0.0 L 85.35823 0.0  " fill="none"/>
 </g>
 </g>
 </g>
 <g stroke-width="0.6">
 <g stroke="#000" fill="#000">
 <g stroke-dasharray="none" stroke-dashoffset="0.0">
 <path d=" M 85.35823 0.0 M 85.35823 0.0 L 56.90549 56.90549  " fill="none"/>
 </g>
 </g>
 </g>
 <g stroke-width="0.6">
 <g stroke="#000" fill="#000">
 <g stroke-dasharray="none" stroke-dashoffset="0.0">
 <path d=" M 56.90549 56.90549 M 56.90549 56.90549 L 0.0 0.0  " fill="none"/>
 </g>
 </g>
 </g>
 <g stroke="#000" fill="#000">
 <g stroke="#000" fill="#000">
 </g>
 <g transform="translate(50.95421,8.6022)">
 <g fill="#000">
 <text style="stroke:none" transform="scale(1,-1) translate(3.93124,0)" text-anchor="middle"  font-size="10"> 
<g fill="#000">
 <g stroke="none"> <tspan font-family="cmmi" font-size="10">G</tspan></g> </g>
 </text> 
</g>
 </g>
 </g>
 <g transform="translate(-10.86288,-6.26181)">
 <g fill="#000">
 <text style="stroke:none" transform="scale(1,-1) translate(3.75,0)" text-anchor="middle"  font-size="10"> 
<g fill="#000">
 <g stroke="none"> <tspan font-family="cmmi" font-size="10">A</tspan></g> </g>
 </text> 
</g>
 </g>
 <g transform="translate(87.00514,-6.26181)">
 <g fill="#000">
 <text style="stroke:none" transform="scale(1,-1) translate(4.0434,0)" text-anchor="middle"  font-size="10"> 
<g fill="#000">
 <g stroke="none"> <tspan font-family="cmmi" font-size="10">B</tspan></g> </g>
 </text> 
</g>
 </g>
 <g transform="translate(54.39682,59.17914)">
 <g fill="#000">
 <text style="stroke:none" transform="scale(1,-1) translate(3.93124,0)" text-anchor="middle"  font-size="10"> 
<g fill="#000">
 <g stroke="none"> <tspan font-family="cmmi" font-size="10">C</tspan></g> </g>
 </text> 
</g>
 </g>
 <g stroke-width="0.6">
 <g stroke="#000" fill="#000">
 <g stroke-dasharray="none" stroke-dashoffset="0.0">
 <g stroke-dasharray="3.0,3.0" stroke-dashoffset="0.0">
 <g stroke="#00f" fill="#00f">
 <path d=" M 56.90549 56.90549 M 56.90549 56.90549 L 42.67911 0.0  " fill="none"/>
 </g>
 </g>
 </g>
 </g>
 </g>
 <g stroke-width="0.6">
 <g stroke="#000" fill="#000">
 <g stroke-dasharray="none" stroke-dashoffset="0.0">
 <g stroke-dasharray="3.0,3.0" stroke-dashoffset="0.0">
 <g stroke="#00f" fill="#00f">
 <path d=" M 0.0 0.0 M 0.0 0.0 L 71.13185 28.45274  " fill="none"/>
 </g>
 </g>
 </g>
 </g>
 </g>
 <g stroke-width="0.6">
 <g stroke="#000" fill="#000">
 <g stroke-dasharray="none" stroke-dashoffset="0.0">
 <g stroke-dasharray="3.0,3.0" stroke-dashoffset="0.0">
 <g stroke="#00f" fill="#00f">
 <path d=" M 85.35823 0.0 M 85.35823 0.0 L 28.45274 28.45274  " fill="none"/>
 </g>
 </g>
 </g>
 </g>
 </g>
 <g stroke="#000" fill="#000">
 <path d=" M 21.33954 4.0 L 21.33954 -4.0  " fill="none"/>
 </g>
 <g stroke="#000" fill="#000">
 <path d=" M 64.01865 4.0 L 64.01865 -4.0  " fill="none"/>
 </g>
 </g>
 </g>
 
                     </g> 
</svg> 
