<?xml version="1.0" encoding="iso-8859-1" standalone="no"?> 
<?xml-stylesheet href="SVGOut.css" type="text/css"?> 
<svg xmlns="http://www.w3.org/2000/svg" xmlns:xlink="http://www.w3.org/1999/xlink" width="73.55823pt" height="76.68025pt" viewBox="-1.7 -13.69926 73.55823 76.68025 "> 
<g transform="translate(0,62.98099 ) scale(1,-1) translate(0,13.69926 )"> 
<g stroke="#000" fill="#000">
 <g stroke-width="0.4">
 <g stroke="#000">
 <g fill="#000">
 <g stroke="#000">
 <g fill="#000">
 <path d=" M 1.5 0.0 C 1.5 0.82843 0.82843 1.5 0.0 1.5 C -0.82843 1.5 -1.5 0.82843 -1.5 0.0 C -1.5 -0.82843 -0.82843 -1.5 0.0 -1.5 C 0.82843 -1.5 1.5 -0.82843 1.5 0.0 Z M 0.0 0.0  " />
 </g>
 </g>
 <g fill="#000">
 <text style="stroke:none" transform="scale(1,-1) translate(0.0,0)" text-anchor="middle"  font-size="10"> 
<g fill="#000">
 <g stroke="none"> </g> </g>
 </text> 
</g>
 </g>
 </g>
 <g stroke="#000">
 <g fill="#000">
 <g stroke="#000">
 <g fill="#000">
 <path d=" M 58.40549 0.0 C 58.40549 0.82843 57.73392 1.5 56.90549 1.5 C 56.07706 1.5 55.40549 0.82843 55.40549 0.0 C 55.40549 -0.82843 56.07706 -1.5 56.90549 -1.5 C 57.73392 -1.5 58.40549 -0.82843 58.40549 0.0 Z M 56.90549 0.0  " />
 </g>
 </g>
 <g transform="translate(56.90549,0.0)">
 <g fill="#000">
 <text style="stroke:none" transform="scale(1,-1) translate(0.0,0)" text-anchor="middle"  font-size="10"> 
<g fill="#000">
 <g stroke="none"> </g> </g>
 </text> 
</g>
 </g>
 </g>
 </g>
 <g stroke="#000">
 <g fill="#000">
 <g stroke="#ffb3b3" fill="#ffb3b3">
 <g stroke="#000">
 <g fill="#000">
 <g stroke="#ffb3b3" fill="#ffb3b3">
 <path d=" M 29.95274 49.28172 C 29.95274 50.11015 29.28117 50.78172 28.45274 50.78172 C 27.62431 50.78172 26.95274 50.11015 26.95274 49.28172 C 26.95274 48.4533 27.62431 47.78172 28.45274 47.78172 C 29.28117 47.78172 29.95274 48.4533 29.95274 49.28172 Z M 28.45274 49.28172  " />
 </g>
 </g>
 </g>
 <g transform="translate(28.45274,49.28172)">
 <g fill="#ffb3b3">
 <text style="stroke:none" transform="scale(1,-1) translate(0.0,0)" text-anchor="middle"  font-size="10"> 
<g fill="#ffb3b3">
 <g stroke="none"> </g> </g>
 </text> 
</g>
 </g>
 </g>
 </g>
 </g>
 <g stroke-width="0.6">
 <g stroke="#000" fill="#000">
 <g stroke-dasharray="none" stroke-dashoffset="0.0">
 <path d=" M 0.0 0.0 M 0.0 0.0 L 56.90549 0.0  " fill="none"/>
 </g>
 </g>
 </g>
 <g stroke-width="0.6">
 <g stroke="#000" fill="#000">
 <g stroke-dasharray="none" stroke-dashoffset="0.0">
 <path d=" M 56.90549 0.0 M 56.90549 0.0 L 28.45274 49.28172  " fill="none"/>
 </g>
 </g>
 </g>
 <g stroke-width="0.6">
 <g stroke="#000" fill="#000">
 <g stroke-dasharray="none" stroke-dashoffset="0.0">
 <path d=" M 28.45274 49.28172 M 28.45274 49.28172 L 0.0 0.0  " fill="none"/>
 </g>
 </g>
 </g>
 <g stroke="#000" fill="#000">
 <g stroke="#000" fill="#000">
 </g>
 <g transform="translate(3.53297,-10.36629)">
 <g fill="#000">
 <text style="stroke:none" transform="scale(1,-1) translate(3.75,0)" text-anchor="middle"  font-size="10"> 
<g fill="#000">
 <g stroke="none"> <tspan font-family="cmmi" font-size="10">A</tspan></g> </g>
 </text> 
</g>
 </g>
 </g>
 <g stroke="#000" fill="#000">
 <g stroke="#000" fill="#000">
 </g>
 <g transform="translate(60.43846,-10.36629)">
 <g fill="#000">
 <text style="stroke:none" transform="scale(1,-1) translate(4.0434,0)" text-anchor="middle"  font-size="10"> 
<g fill="#000">
 <g stroke="none"> <tspan font-family="cmmi" font-size="10">B</tspan></g> </g>
 </text> 
</g>
 </g>
 </g>
 <g stroke="#000" fill="#000">
 <g stroke="#000" fill="#000">
 </g>
 <g transform="translate(24.47359,52.8147)">
 <g fill="#000">
 <text style="stroke:none" transform="scale(1,-1) translate(3.97916,0)" text-anchor="middle"  font-size="10"> 
<g fill="#000">
 <g stroke="none"> <tspan font-family="cmmi" font-size="10">E</tspan></g> </g>
 </text> 
</g>
 </g>
 </g>
 <g stroke="#000" fill="#000">
 <g stroke="#00f" fill="#00f">
 <path d=" M 28.45273 4.0 L 28.45273 -4.0  " fill="none"/>
 </g>
 </g>
 <g stroke="#000" fill="#000">
 <g stroke="#00f" fill="#00f">
 <path d=" M 39.23097 22.6137 L 46.15907 26.61357  " fill="none"/>
 </g>
 </g>
 <g stroke="#000" fill="#000">
 <g stroke="#00f" fill="#00f">
 <path d=" M 17.70633 22.66815 L 10.77823 26.66803  " fill="none"/>
 </g>
 </g>
 </g>
 </g>
 
              </g> 
</svg> 
