<?xml version="1.0" encoding="iso-8859-1" standalone="no"?> 
<?xml-stylesheet href="SVGOut.css" type="text/css"?> 
<svg xmlns="http://www.w3.org/2000/svg" xmlns:xlink="http://www.w3.org/1999/xlink" width="112.62079pt" height="78.94022pt" viewBox="-14.55151 -9.95042 112.62079 78.94022 "> 
<g transform="translate(0,68.98979 ) scale(1,-1) translate(0,9.95042 )"> 
<g stroke="#000" fill="#000">
 <g stroke-width="0.4">
 <g stroke-width="0.6">
 <g stroke="#000" fill="#000">
 <g stroke-dasharray="none" stroke-dashoffset="0.0">
 <g stroke="#00f" fill="#00f">
 <path d=" M 49.7923 21.33955 M 72.28616 21.33955 C 72.28616 33.76273 62.21547 43.83342 49.7923 43.83342 C 37.36913 43.83342 27.29843 33.76273 27.29843 21.33955 C 27.29843 8.91638 37.36913 -1.15431 49.7923 -1.15431 C 62.21547 -1.15431 72.28616 8.91638 72.28616 21.33955 Z M 49.7923 21.33955  " fill="none"/>
 </g>
 </g>
 </g>
 </g>
 <g stroke="#000">
 <g fill="#000">
 <g stroke="#000">
 <g fill="#000">
 <path d=" M 1.5 0.0 C 1.5 0.82843 0.82843 1.5 0.0 1.5 C -0.82843 1.5 -1.5 0.82843 -1.5 0.0 C -1.5 -0.82843 -0.82843 -1.5 0.0 -1.5 C 0.82843 -1.5 1.5 -0.82843 1.5 0.0 Z M 0.0 0.0  " />
 </g>
 </g>
 <g fill="#000">
 <text style="stroke:none" transform="scale(1,-1) translate(0.0,0)" text-anchor="middle"  font-size="10"> 
<g fill="#000">
 <g stroke="none"> </g> </g>
 </text> 
</g>
 </g>
 </g>
 <g stroke="#000">
 <g fill="#000">
 <g stroke="#000">
 <g fill="#000">
 <path d=" M 86.85823 0.0 C 86.85823 0.82843 86.18666 1.5 85.35823 1.5 C 84.5298 1.5 83.85823 0.82843 83.85823 0.0 C 83.85823 -0.82843 84.5298 -1.5 85.35823 -1.5 C 86.18666 -1.5 86.85823 -0.82843 86.85823 0.0 Z M 85.35823 0.0  " />
 </g>
 </g>
 <g transform="translate(85.35823,0.0)">
 <g fill="#000">
 <text style="stroke:none" transform="scale(1,-1) translate(0.0,0)" text-anchor="middle"  font-size="10"> 
<g fill="#000">
 <g stroke="none"> </g> </g>
 </text> 
</g>
 </g>
 </g>
 </g>
 <g stroke="#000">
 <g fill="#000">
 <g stroke="#000">
 <g fill="#000">
 <path d=" M 58.40549 56.90549 C 58.40549 57.73392 57.73392 58.40549 56.90549 58.40549 C 56.07706 58.40549 55.40549 57.73392 55.40549 56.90549 C 55.40549 56.07706 56.07706 55.40549 56.90549 55.40549 C 57.73392 55.40549 58.40549 56.07706 58.40549 56.90549 Z M 56.90549 56.90549  " />
 </g>
 </g>
 <g transform="translate(56.90549,56.90549)">
 <g fill="#000">
 <text style="stroke:none" transform="scale(1,-1) translate(0.0,0)" text-anchor="middle"  font-size="10"> 
<g fill="#000">
 <g stroke="none"> </g> </g>
 </text> 
</g>
 </g>
 </g>
 </g>
 <g stroke="#000">
 <g fill="#000">
 <g stroke="#66f" fill="#66f">
 <g stroke="#000">
 <g fill="#000">
 <g stroke="#66f" fill="#66f">
 <path d=" M 51.2923 21.33955 C 51.2923 22.16798 50.62073 22.83955 49.7923 22.83955 C 48.96387 22.83955 48.2923 22.16798 48.2923 21.33955 C 48.2923 20.51112 48.96387 19.83955 49.7923 19.83955 C 50.62073 19.83955 51.2923 20.51112 51.2923 21.33955 Z M 49.7923 21.33955  " />
 </g>
 </g>
 </g>
 <g transform="translate(49.7923,21.33955)">
 <g fill="#66f">
 <text style="stroke:none" transform="scale(1,-1) translate(0.0,0)" text-anchor="middle"  font-size="10"> 
<g fill="#66f">
 <g stroke="none"> </g> </g>
 </text> 
</g>
 </g>
 </g>
 </g>
 </g>
 <g stroke="#000">
 <g fill="#000">
 <g stroke="#f00" fill="#f00">
 <g stroke="#000">
 <g fill="#000">
 <g stroke="#f00" fill="#f00">
 <path d=" M 72.63185 28.45274 C 72.63185 29.28117 71.96028 29.95274 71.13185 29.95274 C 70.30342 29.95274 69.63185 29.28117 69.63185 28.45274 C 69.63185 27.62431 70.30342 26.95274 71.13185 26.95274 C 71.96028 26.95274 72.63185 27.62431 72.63185 28.45274 Z M 71.13185 28.45274  " />
 </g>
 </g>
 </g>
 <g transform="translate(71.13185,28.45274)">
 <g fill="#f00">
 <text style="stroke:none" transform="scale(1,-1) translate(0.0,0)" text-anchor="middle"  font-size="10"> 
<g fill="#f00">
 <g stroke="none"> </g> </g>
 </text> 
</g>
 </g>
 </g>
 </g>
 </g>
 <g stroke="#000">
 <g fill="#000">
 <g stroke="#f00" fill="#f00">
 <g stroke="#000">
 <g fill="#000">
 <g stroke="#f00" fill="#f00">
 <path d=" M 29.95274 28.45274 C 29.95274 29.28117 29.28117 29.95274 28.45274 29.95274 C 27.62431 29.95274 26.95274 29.28117 26.95274 28.45274 C 26.95274 27.62431 27.62431 26.95274 28.45274 26.95274 C 29.28117 26.95274 29.95274 27.62431 29.95274 28.45274 Z M 28.45274 28.45274  " />
 </g>
 </g>
 </g>
 <g transform="translate(28.45274,28.45274)">
 <g fill="#f00">
 <text style="stroke:none" transform="scale(1,-1) translate(0.0,0)" text-anchor="middle"  font-size="10"> 
<g fill="#f00">
 <g stroke="none"> </g> </g>
 </text> 
</g>
 </g>
 </g>
 </g>
 </g>
 <g stroke="#000">
 <g fill="#000">
 <g stroke="#f00" fill="#f00">
 <g stroke="#000">
 <g fill="#000">
 <g stroke="#f00" fill="#f00">
 <path d=" M 44.17911 0.0 C 44.17911 0.82843 43.50754 1.5 42.67911 1.5 C 41.85068 1.5 41.17911 0.82843 41.17911 0.0 C 41.17911 -0.82843 41.85068 -1.5 42.67911 -1.5 C 43.50754 -1.5 44.17911 -0.82843 44.17911 0.0 Z M 42.67911 0.0  " />
 </g>
 </g>
 </g>
 <g transform="translate(42.67911,0.0)">
 <g fill="#f00">
 <text style="stroke:none" transform="scale(1,-1) translate(0.0,0)" text-anchor="middle"  font-size="10"> 
<g fill="#f00">
 <g stroke="none"> </g> </g>
 </text> 
</g>
 </g>
 </g>
 </g>
 </g>
 <g stroke-width="0.6">
 <g stroke="#000" fill="#000">
 <g stroke-dasharray="none" stroke-dashoffset="0.0">
 <path d=" M 0.0 0.0 M 0.0 0.0 L 85.35823 0.0  " fill="none"/>
 </g>
 </g>
 </g>
 <g stroke-width="0.6">
 <g stroke="#000" fill="#000">
 <g stroke-dasharray="none" stroke-dashoffset="0.0">
 <path d=" M 85.35823 0.0 M 85.35823 0.0 L 56.90549 56.90549  " fill="none"/>
 </g>
 </g>
 </g>
 <g stroke-width="0.6">
 <g stroke="#000" fill="#000">
 <g stroke-dasharray="none" stroke-dashoffset="0.0">
 <path d=" M 0.0 0.0 M 0.0 0.0 L 56.90549 56.90549  " fill="none"/>
 </g>
 </g>
 </g>
 <g stroke="#000" fill="#000">
 <g stroke="#000" fill="#000">
 </g>
 <g transform="translate(53.32527,10.97327)">
 <g fill="#000">
 <text style="stroke:none" transform="scale(1,-1) translate(3.97916,0)" text-anchor="middle"  font-size="10"> 
<g fill="#000">
 <g stroke="none"> <tspan font-family="cmmi" font-size="10">E</tspan></g> </g>
 </text> 
</g>
 </g>
 </g>
 <g transform="translate(-11.21854,-6.61745)">
 <g fill="#000">
 <text style="stroke:none" transform="scale(1,-1) translate(3.75,0)" text-anchor="middle"  font-size="10"> 
<g fill="#000">
 <g stroke="none"> <tspan font-family="cmmi" font-size="10">A</tspan></g> </g>
 </text> 
</g>
 </g>
 <g transform="translate(86.6495,-6.61745)">
 <g fill="#000">
 <text style="stroke:none" transform="scale(1,-1) translate(4.0434,0)" text-anchor="middle"  font-size="10"> 
<g fill="#000">
 <g stroke="none"> <tspan font-family="cmmi" font-size="10">B</tspan></g> </g>
 </text> 
</g>
 </g>
 <g transform="translate(54.04117,58.8235)">
 <g fill="#000">
 <text style="stroke:none" transform="scale(1,-1) translate(3.93124,0)" text-anchor="middle"  font-size="10"> 
<g fill="#000">
 <g stroke="none"> <tspan font-family="cmmi" font-size="10">C</tspan></g> </g>
 </text> 
</g>
 </g>
 <g stroke="#000">
 <g fill="#000">
 <g stroke="#00f" fill="#00f">
 <g stroke="#000">
 <g fill="#000">
 <g stroke="#00f" fill="#00f">
 <path d=" M 69.7864 34.1432 C 69.7864 34.97163 69.11484 35.6432 68.2864 35.6432 C 67.45798 35.6432 66.7864 34.97163 66.7864 34.1432 C 66.7864 33.31477 67.45798 32.6432 68.2864 32.6432 C 69.11484 32.6432 69.7864 33.31477 69.7864 34.1432 Z M 68.2864 34.1432  " />
 </g>
 </g>
 </g>
 <g transform="translate(68.2864,34.1432)">
 <g fill="#00f">
 <text style="stroke:none" transform="scale(1,-1) translate(0.0,0)" text-anchor="middle"  font-size="10"> 
<g fill="#00f">
 <g stroke="none"> </g> </g>
 </text> 
</g>
 </g>
 </g>
 </g>
 </g>
 <g stroke="#000">
 <g fill="#000">
 <g stroke="#00f" fill="#00f">
 <g stroke="#000">
 <g fill="#000">
 <g stroke="#00f" fill="#00f">
 <path d=" M 44.17911 42.67911 C 44.17911 43.50754 43.50754 44.17911 42.67911 44.17911 C 41.85068 44.17911 41.17911 43.50754 41.17911 42.67911 C 41.17911 41.85068 41.85068 41.17911 42.67911 41.17911 C 43.50754 41.17911 44.17911 41.85068 44.17911 42.67911 Z M 42.67911 42.67911  " />
 </g>
 </g>
 </g>
 <g transform="translate(42.67911,42.67911)">
 <g fill="#00f">
 <text style="stroke:none" transform="scale(1,-1) translate(0.0,0)" text-anchor="middle"  font-size="10"> 
<g fill="#00f">
 <g stroke="none"> </g> </g>
 </text> 
</g>
 </g>
 </g>
 </g>
 </g>
 <g stroke="#000">
 <g fill="#000">
 <g stroke="#00f" fill="#00f">
 <g stroke="#000">
 <g fill="#000">
 <g stroke="#00f" fill="#00f">
 <path d=" M 58.40549 0.0 C 58.40549 0.82843 57.73392 1.5 56.90549 1.5 C 56.07706 1.5 55.40549 0.82843 55.40549 0.0 C 55.40549 -0.82843 56.07706 -1.5 56.90549 -1.5 C 57.73392 -1.5 58.40549 -0.82843 58.40549 0.0 Z M 56.90549 0.0  " />
 </g>
 </g>
 </g>
 <g transform="translate(56.90549,0.0)">
 <g fill="#00f">
 <text style="stroke:none" transform="scale(1,-1) translate(0.0,0)" text-anchor="middle"  font-size="10"> 
<g fill="#00f">
 <g stroke="none"> </g> </g>
 </text> 
</g>
 </g>
 </g>
 </g>
 </g>
 <g stroke-width="0.6">
 <g stroke="#000" fill="#000">
 <g stroke-dasharray="none" stroke-dashoffset="0.0">
 <g stroke="#00f" fill="#00f">
 <g stroke-dasharray="3.0,3.0" stroke-dashoffset="0.0">
 <path d=" M 0.0 0.0 M 0.0 0.0 L 68.2864 34.1432  " fill="none"/>
 </g>
 </g>
 </g>
 </g>
 </g>
 <g stroke-width="0.6">
 <g stroke="#000" fill="#000">
 <g stroke-dasharray="none" stroke-dashoffset="0.0">
 <g stroke="#00f" fill="#00f">
 <g stroke-dasharray="3.0,3.0" stroke-dashoffset="0.0">
 <path d=" M 85.35823 0.0 M 85.35823 0.0 L 42.67911 42.67911  " fill="none"/>
 </g>
 </g>
 </g>
 </g>
 </g>
 <g stroke-width="0.6">
 <g stroke="#000" fill="#000">
 <g stroke-dasharray="none" stroke-dashoffset="0.0">
 <g stroke="#00f" fill="#00f">
 <g stroke-dasharray="3.0,3.0" stroke-dashoffset="0.0">
 <path d=" M 56.90549 56.90549 M 56.90549 56.90549 L 56.90549 0.0  " fill="none"/>
 </g>
 </g>
 </g>
 </g>
 </g>
 <g stroke="#000">
 <g fill="#000">
 <g stroke="#ff0" fill="#ff0">
 <g stroke="#000">
 <g fill="#000">
 <g stroke="#ff0" fill="#ff0">
 <path d=" M 29.95274 14.22636 C 29.95274 15.0548 29.28117 15.72636 28.45274 15.72636 C 27.62431 15.72636 26.95274 15.0548 26.95274 14.22636 C 26.95274 13.39793 27.62431 12.72636 28.45274 12.72636 C 29.28117 12.72636 29.95274 13.39793 29.95274 14.22636 Z M 28.45274 14.22636  " />
 </g>
 </g>
 </g>
 <g transform="translate(28.45274,14.22636)">
 <g fill="#ff0">
 <text style="stroke:none" transform="scale(1,-1) translate(0.0,0)" text-anchor="middle"  font-size="10"> 
<g fill="#ff0">
 <g stroke="none"> </g> </g>
 </text> 
</g>
 </g>
 </g>
 </g>
 </g>
 <g stroke="#000">
 <g fill="#000">
 <g stroke="#ff0" fill="#ff0">
 <g stroke="#000">
 <g fill="#000">
 <g stroke="#ff0" fill="#ff0">
 <path d=" M 72.63185 14.22636 C 72.63185 15.0548 71.96028 15.72636 71.13185 15.72636 C 70.30342 15.72636 69.63185 15.0548 69.63185 14.22636 C 69.63185 13.39793 70.30342 12.72636 71.13185 12.72636 C 71.96028 12.72636 72.63185 13.39793 72.63185 14.22636 Z M 71.13185 14.22636  " />
 </g>
 </g>
 </g>
 <g transform="translate(71.13185,14.22636)">
 <g fill="#ff0">
 <text style="stroke:none" transform="scale(1,-1) translate(0.0,0)" text-anchor="middle"  font-size="10"> 
<g fill="#ff0">
 <g stroke="none"> </g> </g>
 </text> 
</g>
 </g>
 </g>
 </g>
 </g>
 <g stroke="#000">
 <g fill="#000">
 <g stroke="#ff0" fill="#ff0">
 <g stroke="#000">
 <g fill="#000">
 <g stroke="#ff0" fill="#ff0">
 <path d=" M 58.40549 42.67911 C 58.40549 43.50754 57.73392 44.17911 56.90549 44.17911 C 56.07706 44.17911 55.40549 43.50754 55.40549 42.67911 C 55.40549 41.85068 56.07706 41.17911 56.90549 41.17911 C 57.73392 41.17911 58.40549 41.85068 58.40549 42.67911 Z M 56.90549 42.67911  " />
 </g>
 </g>
 </g>
 <g transform="translate(56.90549,42.67911)">
 <g fill="#ff0">
 <text style="stroke:none" transform="scale(1,-1) translate(0.0,0)" text-anchor="middle"  font-size="10"> 
<g fill="#ff0">
 <g stroke="none"> </g> </g>
 </text> 
</g>
 </g>
 </g>
 </g>
 </g>
 </g>
 </g>
 
                     </g> 
</svg> 
