<?xml version="1.0" encoding="iso-8859-1" standalone="no"?> 
<?xml-stylesheet href="SVGOut.css" type="text/css"?> 
<svg xmlns="http://www.w3.org/2000/svg" xmlns:xlink="http://www.w3.org/1999/xlink" width="128.83942pt" height="68.4096pt" viewBox="-28.75275 -38.66646 128.83942 68.4096 "> 
<g transform="translate(0,29.74315 ) scale(1,-1) translate(0,38.66646 )"> 
<g stroke="#000" fill="#000">
 <g stroke-width="0.4">
 <g stroke-width="0.6">
 <g stroke="#000" fill="#000">
 <g stroke-dasharray="none" stroke-dashoffset="0.0">
 <path d=" M 0.0 0.0 M 28.45274 0.0 C 28.45274 15.71422 15.71422 28.45274 0.0 28.45274 C -15.71422 28.45274 -28.45274 15.71422 -28.45274 0.0 C -28.45274 -15.71422 -15.71422 -28.45274 0.0 -28.45274 C 15.71422 -28.45274 28.45274 -15.71422 28.45274 0.0 Z M 0.0 0.0  " fill="none"/>
 </g>
 </g>
 </g>
 <g stroke="#000">
 <g fill="#000">
 <g stroke="#000">
 <g fill="#000">
 <path d=" M 1.5 0.0 C 1.5 0.82843 0.82843 1.5 0.0 1.5 C -0.82843 1.5 -1.5 0.82843 -1.5 0.0 C -1.5 -0.82843 -0.82843 -1.5 0.0 -1.5 C 0.82843 -1.5 1.5 -0.82843 1.5 0.0 Z M 0.0 0.0  " />
 </g>
 </g>
 <g fill="#000">
 <text style="stroke:none" transform="scale(1,-1) translate(0.0,0)" text-anchor="middle"  font-size="10"> 
<g fill="#000">
 <g stroke="none"> </g> </g>
 </text> 
</g>
 </g>
 </g>
 <g stroke="#000">
 <g fill="#000">
 <g stroke="#000">
 <g fill="#000">
 <path d=" M 29.95274 0.0 C 29.95274 0.82843 29.28117 1.5 28.45274 1.5 C 27.62431 1.5 26.95274 0.82843 26.95274 0.0 C 26.95274 -0.82843 27.62431 -1.5 28.45274 -1.5 C 29.28117 -1.5 29.95274 -0.82843 29.95274 0.0 Z M 28.45274 0.0  " />
 </g>
 </g>
 <g transform="translate(28.45274,0.0)">
 <g fill="#000">
 <text style="stroke:none" transform="scale(1,-1) translate(0.0,0)" text-anchor="middle"  font-size="10"> 
<g fill="#000">
 <g stroke="none"> </g> </g>
 </text> 
</g>
 </g>
 </g>
 </g>
 <g stroke="#000">
 <g fill="#000">
 <g stroke="#000">
 <g fill="#000">
 <path d=" M 86.85823 14.22636 C 86.85823 15.0548 86.18666 15.72636 85.35823 15.72636 C 84.5298 15.72636 83.85823 15.0548 83.85823 14.22636 C 83.85823 13.39793 84.5298 12.72636 85.35823 12.72636 C 86.18666 12.72636 86.85823 13.39793 86.85823 14.22636 Z M 85.35823 14.22636  " />
 </g>
 </g>
 <g transform="translate(85.35823,14.22636)">
 <g fill="#000">
 <text style="stroke:none" transform="scale(1,-1) translate(0.0,0)" text-anchor="middle"  font-size="10"> 
<g fill="#000">
 <g stroke="none"> </g> </g>
 </text> 
</g>
 </g>
 </g>
 </g>
 <g stroke="#000">
 <g fill="#000">
 <g stroke="#f00" fill="#f00">
 <g stroke="#000">
 <g fill="#000">
 <g stroke="#f00" fill="#f00">
 <path d=" M 6.3104 28.04315 C 6.3104 28.87158 5.63882 29.54315 4.8104 29.54315 C 3.98196 29.54315 3.3104 28.87158 3.3104 28.04315 C 3.3104 27.21472 3.98196 26.54315 4.8104 26.54315 C 5.63882 26.54315 6.3104 27.21472 6.3104 28.04315 Z M 4.8104 28.04315  " />
 </g>
 </g>
 </g>
 <g transform="translate(4.8104,28.04315)">
 <g fill="#f00">
 <text style="stroke:none" transform="scale(1,-1) translate(0.0,0)" text-anchor="middle"  font-size="10"> 
<g fill="#f00">
 <g stroke="none"> </g> </g>
 </text> 
</g>
 </g>
 </g>
 </g>
 </g>
 <g stroke="#000">
 <g fill="#000">
 <g stroke="#f00" fill="#f00">
 <g stroke="#000">
 <g fill="#000">
 <g stroke="#f00" fill="#f00">
 <path d=" M 15.14545 -24.9672 C 15.14545 -24.13876 14.47388 -23.4672 13.64545 -23.4672 C 12.81702 -23.4672 12.14545 -24.13876 12.14545 -24.9672 C 12.14545 -25.79562 12.81702 -26.4672 13.64545 -26.4672 C 14.47388 -26.4672 15.14545 -25.79562 15.14545 -24.9672 Z M 13.64545 -24.9672  " />
 </g>
 </g>
 </g>
 <g transform="translate(13.64545,-24.9672)">
 <g fill="#f00">
 <text style="stroke:none" transform="scale(1,-1) translate(0.0,0)" text-anchor="middle"  font-size="10"> 
<g fill="#f00">
 <g stroke="none"> </g> </g>
 </text> 
</g>
 </g>
 </g>
 </g>
 </g>
 <g stroke="#000" fill="#000">
 <g stroke="#000" fill="#000">
 </g>
 <g transform="translate(3.53297,-10.36629)">
 <g fill="#000">
 <text style="stroke:none" transform="scale(1,-1) translate(3.95277,0)" text-anchor="middle"  font-size="10"> 
<g fill="#000">
 <g stroke="none"> <tspan font-family="cmmi" font-size="10">O</tspan></g> </g>
 </text> 
</g>
 </g>
 </g>
 <g stroke="#000" fill="#000">
 <g stroke="#000" fill="#000">
 </g>
 <g transform="translate(31.98572,-10.36629)">
 <g fill="#000">
 <text style="stroke:none" transform="scale(1,-1) translate(3.75,0)" text-anchor="middle"  font-size="10"> 
<g fill="#000">
 <g stroke="none"> <tspan font-family="cmmi" font-size="10">A</tspan></g> </g>
 </text> 
</g>
 </g>
 </g>
 <g stroke="#000" fill="#000">
 <g stroke="#000" fill="#000">
 </g>
 <g transform="translate(88.8912,3.86008)">
 <g fill="#000">
 <text style="stroke:none" transform="scale(1,-1) translate(3.93124,0)" text-anchor="middle"  font-size="10"> 
<g fill="#000">
 <g stroke="none"> <tspan font-family="cmmi" font-size="10">C</tspan></g> </g>
 </text> 
</g>
 </g>
 </g>
 <g stroke="#000" fill="#000">
 <g stroke="#000" fill="#000">
 </g>
 <g transform="translate(8.34337,17.67686)">
 <g fill="#000">
 <text style="stroke:none" transform="scale(1,-1) translate(4.27847,0)" text-anchor="middle"  font-size="10"> 
<g fill="#000">
 <g stroke="none"> <tspan font-family="cmmi" font-size="10">D</tspan></g> </g>
 </text> 
</g>
 </g>
 </g>
 <g stroke="#000" fill="#000">
 <g stroke="#000" fill="#000">
 </g>
 <g transform="translate(17.17842,-35.33348)">
 <g fill="#000">
 <text style="stroke:none" transform="scale(1,-1) translate(3.97916,0)" text-anchor="middle"  font-size="10"> 
<g fill="#000">
 <g stroke="none"> <tspan font-family="cmmi" font-size="10">E</tspan></g> </g>
 </text> 
</g>
 </g>
 </g>
 <g stroke-width="0.6">
 <g stroke="#000" fill="#000">
 <g stroke-dasharray="none" stroke-dashoffset="0.0">
 <g stroke="#f00" fill="#f00">
 <path d=" M 85.35823 14.22636 M 85.35823 14.22636 L 4.8104 28.04315  " fill="none"/>
 </g>
 </g>
 </g>
 </g>
 <g stroke-width="0.6">
 <g stroke="#000" fill="#000">
 <g stroke-dasharray="none" stroke-dashoffset="0.0">
 <g stroke="#f00" fill="#f00">
 <path d=" M 85.35823 14.22636 M 85.35823 14.22636 L 13.64545 -24.9672  " fill="none"/>
 </g>
 </g>
 </g>
 </g>
 <g stroke-width="0.6">
 <g stroke="#000" fill="#000">
 <g stroke-dasharray="none" stroke-dashoffset="0.0">
 <g stroke="#f00" fill="#f00">
 <g stroke-dasharray="3.0,3.0" stroke-dashoffset="0.0">
 <path d=" M 0.0 0.0 M 0.0 0.0 L 4.8104 28.04315  " fill="none"/>
 </g>
 </g>
 </g>
 </g>
 </g>
 <g stroke-width="0.6">
 <g stroke="#000" fill="#000">
 <g stroke-dasharray="none" stroke-dashoffset="0.0">
 <g stroke="#f00" fill="#f00">
 <g stroke-dasharray="3.0,3.0" stroke-dashoffset="0.0">
 <path d=" M 0.0 0.0 M 0.0 0.0 L 13.64545 -24.9672  " fill="none"/>
 </g>
 </g>
 </g>
 </g>
 </g>
 <g stroke="#f00" fill="#f00">
 <path d=" M 4.8104 28.04315 L 11.8211 26.84055 L 10.6185 19.82983 L 3.60779 21.03244 L 4.8104 28.04315  " fill="none"/>
 </g>
 <g stroke="#f00" fill="#f00">
 <path d=" M 13.64545 -24.9672 L 19.88728 -21.55605 L 16.47614 -15.31421 L 10.2343 -18.72536 L 13.64545 -24.9672  " fill="none"/>
 </g>
 </g>
 </g>
 
                         </g> 
</svg> 
