<?xml version="1.0" encoding="iso-8859-1" standalone="no"?> 
<?xml-stylesheet href="SVGOut.css" type="text/css"?> 
<svg xmlns="http://www.w3.org/2000/svg" xmlns:xlink="http://www.w3.org/1999/xlink" width="73.55823pt" height="60.84665pt" viewBox="-1.7 -13.69926 73.55823 60.84665 "> 
<g transform="translate(0, 47.14738 ) scale(1,-1) translate(0,13.69926 )"> 
 <g stroke="#000" fill="#000">
 <g stroke-width="0.4">
 <g stroke="#000">
 <g fill="#000">
 <g stroke="#000">
 <g fill="#000">
 <path d=" M 1.5 0.0 C 1.5 0.82843 0.82843 1.5 0.0 1.5 C -0.82843 1.5 -1.5 0.82843 -1.5 0.0 C -1.5 -0.82843 -0.82843 -1.5 0.0 -1.5 C 0.82843 -1.5 1.5 -0.82843 1.5 0.0 Z M 0.0 0.0  " />
 </g>
 </g>
 <g fill="#000">
 <text style="stroke:none" transform="scale(1,-1) translate(0.0,0)" text-anchor="middle"  font-size="10"> 
<g fill="#000">
 <g stroke="none"> </g> </g>
 </text> 
</g>
 </g>
 </g>
 <g stroke="#000">
 <g fill="#000">
 <g stroke="#000">
 <g fill="#000">
 <path d=" M 58.40549 0.0 C 58.40549 0.82843 57.73392 1.5 56.90549 1.5 C 56.07706 1.5 55.40549 0.82843 55.40549 0.0 C 55.40549 -0.82843 56.07706 -1.5 56.90549 -1.5 C 57.73392 -1.5 58.40549 -0.82843 58.40549 0.0 Z M 56.90549 0.0  " />
 </g>
 </g>
 <g transform="translate(56.90549,0.0)">
 <g fill="#000">
 <text style="stroke:none" transform="scale(1,-1) translate(0.0,0)" text-anchor="middle"  font-size="10"> 
<g fill="#000">
 <g stroke="none"> </g> </g>
 </text> 
</g>
 </g>
 </g>
 </g>
 <g stroke="#000">
 <g fill="#000">
 <g stroke="#f66" fill="#f66">
 <g stroke="#000">
 <g fill="#000">
 <g stroke="#f66" fill="#f66">
 <path d=" M 47.53772 33.44812 C 47.53772 34.27655 46.86615 34.94812 46.03772 34.94812 C 45.20929 34.94812 44.53772 34.27655 44.53772 33.44812 C 44.53772 32.61969 45.20929 31.94812 46.03772 31.94812 C 46.86615 31.94812 47.53772 32.61969 47.53772 33.44812 Z M 46.03772 33.44812  " />
 </g>
 </g>
 </g>
 <g transform="translate(46.03772,33.44812)">
 <g fill="#f66">
 <text style="stroke:none" transform="scale(1,-1) translate(0.0,0)" text-anchor="middle"  font-size="10"> 
<g fill="#f66">
 <g stroke="none"> </g> </g>
 </text> 
</g>
 </g>
 </g>
 </g>
 </g>
 <g stroke-width="0.6">
 <g stroke="#000" fill="#000">
 <g stroke-dasharray="none" stroke-dashoffset="0.0">
 <path d=" M 0.0 0.0 M 0.0 0.0 L 56.90549 0.0  " fill="none"/>
 </g>
 </g>
 </g>
 <g stroke-width="0.6">
 <g stroke="#000" fill="#000">
 <g stroke-dasharray="none" stroke-dashoffset="0.0">
 <path d=" M 56.90549 0.0 M 56.90549 0.0 L 46.03772 33.44812  " fill="none"/>
 </g>
 </g>
 </g>
 <g stroke-width="0.6">
 <g stroke="#000" fill="#000">
 <g stroke-dasharray="none" stroke-dashoffset="0.0">
 <path d=" M 46.03772 33.44812 M 46.03772 33.44812 L 0.0 0.0  " fill="none"/>
 </g>
 </g>
 </g>
 <g stroke="#000" fill="#000">
 <g stroke="#000" fill="#000">
 </g>
 <g transform="translate(3.53297,-10.36629)">
 <g fill="#000">
 <text style="stroke:none" transform="scale(1,-1) translate(3.75,0)" text-anchor="middle"  font-size="10"> 
<g fill="#000">
 <g stroke="none"> <tspan font-family="cmmi" font-size="10">A</tspan></g> </g>
 </text> 
</g>
 </g>
 </g>
 <g stroke="#000" fill="#000">
 <g stroke="#000" fill="#000">
 </g>
 <g transform="translate(60.43846,-10.36629)">
 <g fill="#000">
 <text style="stroke:none" transform="scale(1,-1) translate(4.0434,0)" text-anchor="middle"  font-size="10"> 
<g fill="#000">
 <g stroke="none"> <tspan font-family="cmmi" font-size="10">B</tspan></g> </g>
 </text> 
</g>
 </g>
 </g>
 <g stroke="#000" fill="#000">
 <g stroke="#000" fill="#000">
 </g>
 <g transform="translate(42.10648,36.9811)">
 <g fill="#000">
 <text style="stroke:none" transform="scale(1,-1) translate(3.93124,0)" text-anchor="middle"  font-size="10"> 
<g fill="#000">
 <g stroke="none"> <tspan font-family="cmmi" font-size="10">C</tspan> </g> </g>
 </text> 
</g>
 </g>
 </g>
 <g stroke="#00f" fill="#00f">
 <path d=" M 14.22636 0.0 C 14.22636 3.0037 13.27489 5.93176 11.50941 8.3618  " fill="none"/>
 </g>
 <g transform="translate(19.76134,5.34912)">
 <g fill="#000">
 <text style="stroke:none" transform="scale(1,-1) translate(7.29863,0)" text-anchor="middle"  font-size="10"> 
<g fill="#000">
 <g stroke="none"> 36<tspan baseline-shift="sub"><tspan font-family="cmsy" font-size="7">&#x2218;</tspan></tspan></g> </g>
 </text> 
</g>
 </g>
 <g stroke="#000" fill="#000">
 <g stroke="#00f" fill="#00f">
 <path d=" M 28.45273 4.0 L 28.45273 -4.0  " fill="none"/>
 </g>
 </g>
 <g stroke="#000" fill="#000">
 <g stroke="#00f" fill="#00f">
 <path d=" M 20.65909 19.95338 L 25.36124 13.48122  " fill="none"/>
 </g>
 </g>
 </g>
 </g>
 
            </g> 
</svg> 
