<?xml version="1.0" encoding="iso-8859-1" standalone="no"?> 
<?xml-stylesheet href="SVGOut.css" type="text/css"?> 
<svg xmlns="http://www.w3.org/2000/svg" xmlns:xlink="http://www.w3.org/1999/xlink" width="109.52925pt" height="109.52925pt" viewBox="-40.53825 -40.53825 109.52925 109.52925 "> 
<g transform="translate(0,68.991 ) scale(1,-1) translate(0,40.53825 )"> 
<g stroke="#000" fill="#000">
 <g stroke-width="0.4">
 <g stroke-width="0.6">
 <g stroke="#000" fill="#000">
 <g stroke-dasharray="none" stroke-dashoffset="0.0">
 <path d=" M 28.45274 28.45274 M 68.691 28.45274 C 68.691 50.676 50.676 68.691 28.45274 68.691 C 6.22949 68.691 -11.7855 50.676 -11.7855 28.45274 C -11.7855 6.22949 6.22949 -11.7855 28.45274 -11.7855 C 50.676 -11.7855 68.691 6.22949 68.691 28.45274 Z M 28.45274 28.45274  " fill="none"/>
 </g>
 </g>
 </g>
 <g stroke-width="0.6">
 <g stroke="#000" fill="#000">
 <g stroke-dasharray="none" stroke-dashoffset="0.0">
 <path d=" M 0.0 0.0 M 40.23825 0.0 C 40.23825 22.22325 22.22325 40.23825 0.0 40.23825 C -22.22325 40.23825 -40.23825 22.22325 -40.23825 0.0 C -40.23825 -22.22325 -22.22325 -40.23825 0.0 -40.23825 C 22.22325 -40.23825 40.23825 -22.22325 40.23825 0.0 Z M 0.0 0.0  " fill="none"/>
 </g>
 </g>
 </g>
 <g stroke="#000">
 <g fill="#000">
 <g stroke="#000">
 <g fill="#000">
 <path d=" M 1.5 0.0 C 1.5 0.82843 0.82843 1.5 0.0 1.5 C -0.82843 1.5 -1.5 0.82843 -1.5 0.0 C -1.5 -0.82843 -0.82843 -1.5 0.0 -1.5 C 0.82843 -1.5 1.5 -0.82843 1.5 0.0 Z M 0.0 0.0  " />
 </g>
 </g>
 <g fill="#000">
 <text style="stroke:none" transform="scale(1,-1) translate(0.0,0)" text-anchor="middle"  font-size="10"> 
<g fill="#000">
 <g stroke="none"> </g> </g>
 </text> 
</g>
 </g>
 </g>
 <g stroke="#000">
 <g fill="#000">
 <g stroke="#000">
 <g fill="#000">
 <path d=" M 29.95274 28.45274 C 29.95274 29.28117 29.28117 29.95274 28.45274 29.95274 C 27.62431 29.95274 26.95274 29.28117 26.95274 28.45274 C 26.95274 27.62431 27.62431 26.95274 28.45274 26.95274 C 29.28117 26.95274 29.95274 27.62431 29.95274 28.45274 Z M 28.45274 28.45274  " />
 </g>
 </g>
 <g transform="translate(28.45274,28.45274)">
 <g fill="#000">
 <text style="stroke:none" transform="scale(1,-1) translate(0.0,0)" text-anchor="middle"  font-size="10"> 
<g fill="#000">
 <g stroke="none"> </g> </g>
 </text> 
</g>
 </g>
 </g>
 </g>
 <g stroke="#000">
 <g fill="#000">
 <g stroke="#f00" fill="#f00">
 <g stroke="#000">
 <g fill="#000">
 <g stroke="#f00" fill="#f00">
 <path d=" M 40.36717 -10.41443 C 40.36717 -9.586 39.6956 -8.91443 38.86717 -8.91443 C 38.03874 -8.91443 37.36717 -9.586 37.36717 -10.41443 C 37.36717 -11.24286 38.03874 -11.91443 38.86717 -11.91443 C 39.6956 -11.91443 40.36717 -11.24286 40.36717 -10.41443 Z M 38.86717 -10.41443  " />
 </g>
 </g>
 </g>
 <g transform="translate(38.86717,-10.41443)">
 <g fill="#f00">
 <text style="stroke:none" transform="scale(1,-1) translate(0.0,0)" text-anchor="middle"  font-size="10"> 
<g fill="#f00">
 <g stroke="none"> </g> </g>
 </text> 
</g>
 </g>
 </g>
 </g>
 </g>
 <g stroke="#000">
 <g fill="#000">
 <g stroke="#f00" fill="#f00">
 <g stroke="#000">
 <g fill="#000">
 <g stroke="#f00" fill="#f00">
 <path d=" M -8.91443 38.86717 C -8.91443 39.6956 -9.586 40.36717 -10.41443 40.36717 C -11.24286 40.36717 -11.91443 39.6956 -11.91443 38.86717 C -11.91443 38.03874 -11.24286 37.36717 -10.41443 37.36717 C -9.586 37.36717 -8.91443 38.03874 -8.91443 38.86717 Z M -10.41443 38.86717  " />
 </g>
 </g>
 </g>
 <g transform="translate(-10.41443,38.86717)">
 <g fill="#f00">
 <text style="stroke:none" transform="scale(1,-1) translate(0.0,0)" text-anchor="middle"  font-size="10"> 
<g fill="#f00">
 <g stroke="none"> </g> </g>
 </text> 
</g>
 </g>
 </g>
 </g>
 </g>
 <g stroke="#000" fill="#000">
 <g stroke="#000" fill="#000">
 </g>
 <g transform="translate(3.53297,-10.36629)">
 <g fill="#000">
 <text style="stroke:none" transform="scale(1,-1) translate(3.75,0)" text-anchor="middle"  font-size="10"> 
<g fill="#000">
 <g stroke="none"> <tspan font-family="cmmi" font-size="10">A</tspan></g> </g>
 </text> 
</g>
 </g>
 </g>
 <g stroke="#000" fill="#000">
 <g stroke="#000" fill="#000">
 </g>
 <g transform="translate(31.98572,18.08646)">
 <g fill="#000">
 <text style="stroke:none" transform="scale(1,-1) translate(4.0434,0)" text-anchor="middle"  font-size="10"> 
<g fill="#000">
 <g stroke="none"> <tspan font-family="cmmi" font-size="10">B</tspan></g> </g>
 </text> 
</g>
 </g>
 </g>
 <g stroke="#000" fill="#000">
 <g stroke="#000" fill="#000">
 </g>
 <g transform="translate(42.40015,-20.78072)">
 <g fill="#000">
 <text style="stroke:none" transform="scale(1,-1) translate(5.39583,0)" text-anchor="middle"  font-size="10"> 
<g fill="#000">
 <g stroke="none"> <tspan font-family="cmmi" font-size="10">M</tspan></g> </g>
 </text> 
</g>
 </g>
 </g>
 <g stroke="#000" fill="#000">
 <g stroke="#000" fill="#000">
 </g>
 <g transform="translate(-6.88145,28.50089)">
 <g fill="#000">
 <text style="stroke:none" transform="scale(1,-1) translate(4.56248,0)" text-anchor="middle"  font-size="10"> 
<g fill="#000">
 <g stroke="none"> <tspan font-family="cmmi" font-size="10">N</tspan></g> </g>
 </text> 
</g>
 </g>
 </g>
 </g>
 </g>
 
                     </g> 
</svg> 
