<?xml version="1.0" encoding="iso-8859-1" standalone="no"?> 
<?xml-stylesheet href="SVGOut.css" type="text/css"?> 
<svg xmlns="http://www.w3.org/2000/svg" xmlns:xlink="http://www.w3.org/1999/xlink" width="105.16368pt" height="62.2459pt" viewBox="-53.2932 -28.75276 105.16368 62.2459 "> 
<g transform="translate(0, 33.49313 ) scale(1,-1) translate(0,28.75276 )"> 
                <g stroke="#000" fill="#000">
 <g stroke-width="0.4">
 <g stroke-width="0.6">
 <g stroke="#000" fill="#000">
 <g stroke-dasharray="none" stroke-dashoffset="0.0">
 <path d=" M 0.0 0.0 M 28.45276 0.0 C 28.45276 15.71422 15.71422 28.45276 0.0 28.45276 C -15.71422 28.45276 -28.45276 15.71422 -28.45276 0.0 C -28.45276 -15.71422 -15.71422 -28.45276 0.0 -28.45276 C 15.71422 -28.45276 28.45276 -15.71422 28.45276 0.0 Z M 0.0 0.0  " fill="none"/>
 </g>
 </g>
 </g>
 <g stroke-width="0.6">
 <g stroke="#000" fill="#000">
 <g stroke-dasharray="none" stroke-dashoffset="0.0">
 <path d=" M 34.1432 14.22636 M 51.57048 12.44806 L -52.9932 23.11786  " fill="none"/>
 </g>
 </g>
 </g>
 <g stroke="#000">
 <g fill="#000">
 <g stroke="#000">
 <g fill="#000">
 <path d=" M 1.5 0.0 C 1.5 0.82843 0.82843 1.5 0.0 1.5 C -0.82843 1.5 -1.5 0.82843 -1.5 0.0 C -1.5 -0.82843 -0.82843 -1.5 0.0 -1.5 C 0.82843 -1.5 1.5 -0.82843 1.5 0.0 Z M 0.0 0.0  " />
 </g>
 </g>
 <g fill="#000">
 <text style="stroke:none" transform="scale(1,-1) translate(0.0,0)" text-anchor="middle"  font-size="10"> 
<g fill="#000">
 <g stroke="none"> </g> </g>
 </text> 
</g>
 </g>
 </g>
 <g stroke="#000">
 <g fill="#000">
 <g stroke="#000">
 <g fill="#000">
 <path d=" M 35.6432 14.22636 C 35.6432 15.0548 34.97163 15.72636 34.1432 15.72636 C 33.31477 15.72636 32.6432 15.0548 32.6432 14.22636 C 32.6432 13.39793 33.31477 12.72636 34.1432 12.72636 C 34.97163 12.72636 35.6432 13.39793 35.6432 14.22636 Z M 34.1432 14.22636  " />
 </g>
 </g>
 <g transform="translate(34.1432,14.22636)">
 <g fill="#000">
 <text style="stroke:none" transform="scale(1,-1) translate(0.0,0)" text-anchor="middle"  font-size="10"> 
<g fill="#000">
 <g stroke="none"> </g> </g>
 </text> 
</g>
 </g>
 </g>
 </g>
 <g stroke="#000">
 <g fill="#000">
 <g stroke="#000">
 <g fill="#000">
 <path d=" M -34.06592 21.33955 C -34.06592 22.16798 -34.73749 22.83955 -35.56592 22.83955 C -36.39435 22.83955 -37.06592 22.16798 -37.06592 21.33955 C -37.06592 20.51112 -36.39435 19.83955 -35.56592 19.83955 C -34.73749 19.83955 -34.06592 20.51112 -34.06592 21.33955 Z M -35.56592 21.33955  " />
 </g>
 </g>
 <g transform="translate(-35.56592,21.33955)">
 <g fill="#000">
 <text style="stroke:none" transform="scale(1,-1) translate(0.0,0)" text-anchor="middle"  font-size="10"> 
<g fill="#000">
 <g stroke="none"> </g> </g>
 </text> 
</g>
 </g>
 </g>
 </g>
 <g stroke="#000">
 <g fill="#000">
 <g stroke="#f00" fill="#f00">
 <g stroke="#000">
 <g fill="#000">
 <g stroke="#f00" fill="#f00">
 <path d=" M -18.93579 19.79387 C -18.93579 20.6223 -19.60736 21.29387 -20.43579 21.29387 C -21.26422 21.29387 -21.93579 20.6223 -21.93579 19.79387 C -21.93579 18.96544 -21.26422 18.29387 -20.43579 18.29387 C -19.60736 18.29387 -18.93579 18.96544 -18.93579 19.79387 Z M -20.43579 19.79387  " />
 </g>
 </g>
 </g>
 <g transform="translate(-20.43579,19.79387)">
 <g fill="#f00">
 <text style="stroke:none" transform="scale(1,-1) translate(0.0,0)" text-anchor="middle"  font-size="10"> 
<g fill="#f00">
 <g stroke="none"> </g> </g>
 </text> 
</g>
 </g>
 </g>
 </g>
 </g>
 <g stroke="#000">
 <g fill="#000">
 <g stroke="#f00" fill="#f00">
 <g stroke="#000">
 <g fill="#000">
 <g stroke="#f00" fill="#f00">
 <path d=" M 25.51227 15.25874 C 25.51227 16.08717 24.8407 16.75874 24.01227 16.75874 C 23.18384 16.75874 22.51227 16.08717 22.51227 15.25874 C 22.51227 14.43031 23.18384 13.75874 24.01227 13.75874 C 24.8407 13.75874 25.51227 14.43031 25.51227 15.25874 Z M 24.01227 15.25874  " />
 </g>
 </g>
 </g>
 <g transform="translate(24.01227,15.25874)">
 <g fill="#f00">
 <text style="stroke:none" transform="scale(1,-1) translate(0.0,0)" text-anchor="middle"  font-size="10"> 
<g fill="#f00">
 <g stroke="none"> </g> </g>
 </text> 
</g>
 </g>
 </g>
 </g>
 </g>
 <g stroke="#000" fill="#000">
 <g stroke="#000" fill="#000">
 </g>
 <g transform="translate(3.53297,-10.36629)">
 <g fill="#000">
 <text style="stroke:none" transform="scale(1,-1) translate(3.95277,0)" text-anchor="middle"  font-size="10"> 
<g fill="#000">
 <g stroke="none"> <tspan font-family="cmmi" font-size="10">O</tspan></g> </g>
 </text> 
</g>
 </g>
 </g>
 <g stroke="#000" fill="#000">
 <g stroke="#000" fill="#000">
 </g>
 <g transform="translate(37.67618,3.86008)">
 <g fill="#000">
 <text style="stroke:none" transform="scale(1,-1) translate(3.75,0)" text-anchor="middle"  font-size="10"> 
<g fill="#000">
 <g stroke="none"> <tspan font-family="cmmi" font-size="10">A</tspan> </g> </g>
 </text> 
</g>
 </g>
 </g>
 <g stroke="#000" fill="#000">
 <g stroke="#000" fill="#000">
 </g>
 <g transform="translate(-32.03294,10.97327)">
 <g fill="#000">
 <text style="stroke:none" transform="scale(1,-1) translate(4.0434,0)" text-anchor="middle"  font-size="10"> 
<g fill="#000">
 <g stroke="none"> <tspan font-family="cmmi" font-size="10">B</tspan></g> </g>
 </text> 
</g>
 </g>
 </g>
 <g stroke="#000" fill="#000">
 <g stroke="#000" fill="#000">
 </g>
 <g transform="translate(-24.36703,23.32684)">
 <g fill="#000">
 <text style="stroke:none" transform="scale(1,-1) translate(3.93124,0)" text-anchor="middle"  font-size="10"> 
<g fill="#000">
 <g stroke="none"> <tspan font-family="cmmi" font-size="10">C</tspan> </g> </g>
 </text> 
</g>
 </g>
 </g>
 <g stroke="#000" fill="#000">
 <g stroke="#000" fill="#000">
 </g>
 <g transform="translate(19.7338,18.79172)">
 <g fill="#000">
 <text style="stroke:none" transform="scale(1,-1) translate(4.27847,0)" text-anchor="middle"  font-size="10"> 
<g fill="#000">
 <g stroke="none"> <tspan font-family="cmmi" font-size="10">D</tspan></g> </g>
 </text> 
</g>
 </g>
 </g>
 </g>
 </g>
 
                           </g> 
</svg> 
