<?xml version="1.0" encoding="iso-8859-1" standalone="no"?> 
<?xml-stylesheet href="SVGOut.css" type="text/css"?> 
<svg xmlns="http://www.w3.org/2000/svg" xmlns:xlink="http://www.w3.org/1999/xlink" width="92.0796pt" height="90.82613pt" viewBox="-13.10431 -13.10431 92.0796 90.82613 "> 
<g transform="translate(0,77.72182 ) scale(1,-1) translate(0,13.10431 )"> 
<g stroke="#000" fill="#000">
 <g stroke-width="0.4">
 <g stroke-width="0.6">
 <g stroke="#000" fill="#000">
 <g stroke-dasharray="none" stroke-dashoffset="0.0">
 <path d=" M 21.34148 21.34148 M 51.52199 21.34148 C 51.52199 38.00992 38.00992 51.52199 21.34148 51.52199 C 4.67303 51.52199 -8.83904 38.00992 -8.83904 21.34148 C -8.83904 4.67303 4.67303 -8.83904 21.34148 -8.83904 C 38.00992 -8.83904 51.52199 4.67303 51.52199 21.34148 Z M 21.34148 21.34148  " fill="none"/>
 </g>
 </g>
 </g>
 <g stroke="#000">
 <g fill="#000">
 <g stroke="#00f" fill="#00f">
 <g stroke="#000">
 <g fill="#000">
 <g stroke="#00f" fill="#00f">
 <path d=" M 22.84084 21.34084 C 22.84084 22.16927 22.16927 22.84084 21.34084 22.84084 C 20.5124 22.84084 19.84084 22.16927 19.84084 21.34084 C 19.84084 20.5124 20.5124 19.84084 21.34084 19.84084 C 22.16927 19.84084 22.84084 20.5124 22.84084 21.34084 Z M 21.34084 21.34084  " />
 </g>
 </g>
 </g>
 <g transform="translate(21.34084,21.34084)">
 <g fill="#00f">
 <text style="stroke:none" transform="scale(1,-1) translate(0.0,0)" text-anchor="middle"  font-size="10"> 
<g fill="#00f">
 <g stroke="none"> </g> </g>
 </text> 
</g>
 </g>
 </g>
 </g>
 </g>
 <g stroke="#000">
 <g fill="#000">
 <g stroke="#00f" fill="#00f">
 <g stroke="#000">
 <g fill="#000">
 <g stroke="#00f" fill="#00f">
 <path d=" M 1.5 64.02255 C 1.5 64.85098 0.82843 65.52255 0.0 65.52255 C -0.82843 65.52255 -1.5 64.85098 -1.5 64.02255 C -1.5 63.19412 -0.82843 62.52255 0.0 62.52255 C 0.82843 62.52255 1.5 63.19412 1.5 64.02255 Z M 0.0 64.02255  " />
 </g>
 </g>
 </g>
 <g transform="translate(0.0,64.02255)">
 <g fill="#00f">
 <text style="stroke:none" transform="scale(1,-1) translate(0.0,0)" text-anchor="middle"  font-size="10"> 
<g fill="#00f">
 <g stroke="none"> </g> </g>
 </text> 
</g>
 </g>
 </g>
 </g>
 </g>
 <g stroke="#000">
 <g fill="#000">
 <g stroke="#00f" fill="#00f">
 <g stroke="#000">
 <g fill="#000">
 <g stroke="#00f" fill="#00f">
 <path d=" M 65.52255 0.0 C 65.52255 0.82843 64.85098 1.5 64.02255 1.5 C 63.19412 1.5 62.52255 0.82843 62.52255 0.0 C 62.52255 -0.82843 63.19412 -1.5 64.02255 -1.5 C 64.85098 -1.5 65.52255 -0.82843 65.52255 0.0 Z M 64.02255 0.0  " />
 </g>
 </g>
 </g>
 <g transform="translate(64.02255,0.0)">
 <g fill="#00f">
 <text style="stroke:none" transform="scale(1,-1) translate(0.0,0)" text-anchor="middle"  font-size="10"> 
<g fill="#00f">
 <g stroke="none"> </g> </g>
 </text> 
</g>
 </g>
 </g>
 </g>
 </g>
 <g stroke="#000">
 <g fill="#000">
 <g stroke="#00f" fill="#00f">
 <g stroke="#000">
 <g fill="#000">
 <g stroke="#00f" fill="#00f">
 <path d=" M 44.1817 0.0 C 44.1817 0.82843 43.51013 1.5 42.6817 1.5 C 41.85327 1.5 41.1817 0.82843 41.1817 0.0 C 41.1817 -0.82843 41.85327 -1.5 42.6817 -1.5 C 43.51013 -1.5 44.1817 -0.82843 44.1817 0.0 Z M 42.6817 0.0  " />
 </g>
 </g>
 </g>
 <g transform="translate(42.6817,0.0)">
 <g fill="#00f">
 <text style="stroke:none" transform="scale(1,-1) translate(0.0,0)" text-anchor="middle"  font-size="10"> 
<g fill="#00f">
 <g stroke="none"> </g> </g>
 </text> 
</g>
 </g>
 </g>
 </g>
 </g>
 <g stroke="#000">
 <g fill="#000">
 <g stroke="#f00" fill="#f00">
 <g stroke="#000">
 <g fill="#000">
 <g stroke="#f00" fill="#f00">
 <path d=" M 15.03223 50.49608 C 15.03223 51.32451 14.36066 51.99608 13.53223 51.99608 C 12.7038 51.99608 12.03223 51.32451 12.03223 50.49608 C 12.03223 49.66765 12.7038 48.99608 13.53223 48.99608 C 14.36066 48.99608 15.03223 49.66765 15.03223 50.49608 Z M 13.53223 50.49608  " />
 </g>
 </g>
 </g>
 <g transform="translate(13.53223,50.49608)">
 <g fill="#f00">
 <text style="stroke:none" transform="scale(1,-1) translate(0.0,0)" text-anchor="middle"  font-size="10"> 
<g fill="#f00">
 <g stroke="none"> </g> </g>
 </text> 
</g>
 </g>
 </g>
 </g>
 </g>
 <g stroke="#000">
 <g fill="#000">
 <g stroke="#f00" fill="#f00">
 <g stroke="#000">
 <g fill="#000">
 <g stroke="#f00" fill="#f00">
 <path d=" M 51.99608 13.53223 C 51.99608 14.36066 51.32451 15.03223 50.49608 15.03223 C 49.66765 15.03223 48.99608 14.36066 48.99608 13.53223 C 48.99608 12.7038 49.66765 12.03223 50.49608 12.03223 C 51.32451 12.03223 51.99608 12.7038 51.99608 13.53223 Z M 50.49608 13.53223  " />
 </g>
 </g>
 </g>
 <g transform="translate(50.49608,13.53223)">
 <g fill="#f00">
 <text style="stroke:none" transform="scale(1,-1) translate(0.0,0)" text-anchor="middle"  font-size="10"> 
<g fill="#f00">
 <g stroke="none"> </g> </g>
 </text> 
</g>
 </g>
 </g>
 </g>
 </g>
 <g stroke-width="0.6">
 <g stroke="#000" fill="#000">
 <g stroke-dasharray="none" stroke-dashoffset="0.0">
 <path d=" M 0.0 64.02255 M -12.8043 76.82686 L 76.82686 -12.8043  " fill="none"/>
 </g>
 </g>
 </g>
 <g stroke="#000" fill="#000">
 <g stroke="#000" fill="#000">
 </g>
 <g transform="translate(24.87381,24.87381)">
 <g fill="#000">
 <text style="stroke:none" transform="scale(1,-1) translate(3.95277,0)" text-anchor="middle"  font-size="10"> 
<g fill="#000">
 <g stroke="none"> <tspan font-family="cmmi" font-size="10">O</tspan></g> </g>
 </text> 
</g>
 </g>
 </g>
 <g stroke="#000" fill="#000">
 <g stroke="#000" fill="#000">
 </g>
 <g transform="translate(3.53297,67.55553)">
 <g fill="#000">
 <text style="stroke:none" transform="scale(1,-1) translate(3.75,0)" text-anchor="middle"  font-size="10"> 
<g fill="#000">
 <g stroke="none"> <tspan font-family="cmmi" font-size="10">A</tspan></g> </g>
 </text> 
</g>
 </g>
 </g>
 <g stroke="#000" fill="#000">
 <g stroke="#000" fill="#000">
 </g>
 <g transform="translate(67.55553,3.53297)">
 <g fill="#000">
 <text style="stroke:none" transform="scale(1,-1) translate(4.0434,0)" text-anchor="middle"  font-size="10"> 
<g fill="#000">
 <g stroke="none"> <tspan font-family="cmmi" font-size="10">B</tspan></g> </g>
 </text> 
</g>
 </g>
 </g>
 <g stroke="#000" fill="#000">
 <g stroke="#000" fill="#000">
 </g>
 <g transform="translate(46.21468,3.53297)">
 <g fill="#000">
 <text style="stroke:none" transform="scale(1,-1) translate(3.93124,0)" text-anchor="middle"  font-size="10"> 
<g fill="#000">
 <g stroke="none"> <tspan font-family="cmmi" font-size="10">C</tspan></g> </g>
 </text> 
</g>
 </g>
 </g>
 <g stroke="#000" fill="#000">
 <g stroke="#000" fill="#000">
 </g>
 <g transform="translate(17.0652,54.02905)">
 <g fill="#000">
 <text style="stroke:none" transform="scale(1,-1) translate(4.27847,0)" text-anchor="middle"  font-size="10"> 
<g fill="#000">
 <g stroke="none"> <tspan font-family="cmmi" font-size="10">D</tspan></g> </g>
 </text> 
</g>
 </g>
 </g>
 <g stroke="#000" fill="#000">
 <g stroke="#000" fill="#000">
 </g>
 <g transform="translate(54.02905,17.0652)">
 <g fill="#000">
 <text style="stroke:none" transform="scale(1,-1) translate(3.97916,0)" text-anchor="middle"  font-size="10"> 
<g fill="#000">
 <g stroke="none"> <tspan font-family="cmmi" font-size="10">E</tspan></g> </g>
 </text> 
</g>
 </g>
 </g>
 </g>
 </g>
 
                  </g> 
</svg> 
