<?xml version="1.0" encoding="iso-8859-1" standalone="no"?> 
<?xml-stylesheet href="SVGOut.css" type="text/css"?> 
<svg xmlns="http://www.w3.org/2000/svg" xmlns:xlink="http://www.w3.org/1999/xlink" width="101.30286pt" height="101.30286pt" viewBox="-25.9107 -25.9107 101.30286 101.30286 "> 
<g transform="translate(0,75.39215 ) scale(1,-1) translate(0,25.9107 )"> 
<g stroke="#000" fill="#000">
 <g stroke-width="0.4">
 <g stroke-width="0.6">
 <g stroke="#000" fill="#000">
 <g stroke-dasharray="none" stroke-dashoffset="0.0">
 <g stroke="#f00" fill="#f00">
 <path d=" M 34.14963 34.14963 M 75.09215 34.14963 C 75.09215 56.76184 56.76184 75.09215 34.14963 75.09215 C 11.53741 75.09215 -6.7929 56.76184 -6.7929 34.14963 C -6.7929 11.53741 11.53741 -6.7929 34.14963 -6.7929 C 56.76184 -6.7929 75.09215 11.53741 75.09215 34.14963 Z M 34.14963 34.14963  " fill="none"/>
 </g>
 </g>
 </g>
 </g>
 <g stroke-width="0.6">
 <g stroke="#000" fill="#000">
 <g stroke-dasharray="none" stroke-dashoffset="0.0">
 <path d=" M 0.0 0.0 M 25.6107 0.0 C 25.6107 14.14458 14.14458 25.6107 0.0 25.6107 C -14.14458 25.6107 -25.6107 14.14458 -25.6107 0.0 C -25.6107 -14.14458 -14.14458 -25.6107 0.0 -25.6107 C 14.14458 -25.6107 25.6107 -14.14458 25.6107 0.0 Z M 0.0 0.0  " fill="none"/>
 </g>
 </g>
 </g>
 <g stroke="#000">
 <g fill="#000">
 <g stroke="#000">
 <g fill="#000">
 <path d=" M 1.5 0.0 C 1.5 0.82843 0.82843 1.5 0.0 1.5 C -0.82843 1.5 -1.5 0.82843 -1.5 0.0 C -1.5 -0.82843 -0.82843 -1.5 0.0 -1.5 C 0.82843 -1.5 1.5 -0.82843 1.5 0.0 Z M 0.0 0.0  " />
 </g>
 </g>
 <g fill="#000">
 <text style="stroke:none" transform="scale(1,-1) translate(0.0,0)" text-anchor="middle"  font-size="10"> 
<g fill="#000">
 <g stroke="none"> </g> </g>
 </text> 
</g>
 </g>
 </g>
 <g stroke="#000">
 <g fill="#000">
 <g stroke="#000">
 <g fill="#000">
 <path d=" M 27.1107 0.0 C 27.1107 0.82843 26.43913 1.5 25.6107 1.5 C 24.78227 1.5 24.1107 0.82843 24.1107 0.0 C 24.1107 -0.82843 24.78227 -1.5 25.6107 -1.5 C 26.43913 -1.5 27.1107 -0.82843 27.1107 0.0 Z M 25.6107 0.0  " />
 </g>
 </g>
 <g transform="translate(25.6107,0.0)">
 <g fill="#000">
 <text style="stroke:none" transform="scale(1,-1) translate(0.0,0)" text-anchor="middle"  font-size="10"> 
<g fill="#000">
 <g stroke="none"> </g> </g>
 </text> 
</g>
 </g>
 </g>
 </g>
 <g stroke="#000">
 <g fill="#000">
 <g stroke="#000">
 <g fill="#000">
 <path d=" M 35.64763 34.14763 C 35.64763 34.97606 34.97606 35.64763 34.14763 35.64763 C 33.3192 35.64763 32.64763 34.97606 32.64763 34.14763 C 32.64763 33.3192 33.3192 32.64763 34.14763 32.64763 C 34.97606 32.64763 35.64763 33.3192 35.64763 34.14763 Z M 34.14763 34.14763  " />
 </g>
 </g>
 <g transform="translate(34.14763,34.14763)">
 <g fill="#000">
 <text style="stroke:none" transform="scale(1,-1) translate(0.0,0)" text-anchor="middle"  font-size="10"> 
<g fill="#000">
 <g stroke="none"> </g> </g>
 </text> 
</g>
 </g>
 </g>
 </g>
 <g stroke="#000" fill="#000">
 <g stroke="#000" fill="#000">
 </g>
 <g transform="translate(3.53297,-10.36629)">
 <g fill="#000">
 <text style="stroke:none" transform="scale(1,-1) translate(3.95277,0)" text-anchor="middle"  font-size="10"> 
<g fill="#000">
 <g stroke="none"> <tspan font-family="cmmi" font-size="10">O</tspan></g> </g>
 </text> 
</g>
 </g>
 </g>
 <g stroke="#000" fill="#000">
 <g stroke="#000" fill="#000">
 </g>
 <g transform="translate(29.14368,-10.36629)">
 <g fill="#000">
 <text style="stroke:none" transform="scale(1,-1) translate(3.75,0)" text-anchor="middle"  font-size="10"> 
<g fill="#000">
 <g stroke="none"> <tspan font-family="cmmi" font-size="10">A</tspan></g> </g>
 </text> 
</g>
 </g>
 </g>
 <g stroke="#000" fill="#000">
 <g stroke="#000" fill="#000">
 </g>
 <g transform="translate(37.6806,23.78134)">
 <g fill="#000">
 <text style="stroke:none" transform="scale(1,-1) translate(4.0434,0)" text-anchor="middle"  font-size="10"> 
<g fill="#000">
 <g stroke="none"> <tspan font-family="cmmi" font-size="10">B</tspan></g> </g>
 </text> 
</g>
 </g>
 </g>
 </g>
 </g>
 
                   </g> 
</svg> 
