<?xml version="1.0" encoding="iso-8859-1" standalone="no"?> 
<?xml-stylesheet href="SVGOut.css" type="text/css"?> 
<svg xmlns="http://www.w3.org/2000/svg" xmlns:xlink="http://www.w3.org/1999/xlink" width="73.55823pt" height="70.07764pt" viewBox="-1.7 -13.69926 73.55823 70.07764 "> 
<g transform="translate(0,56.37837 ) scale(1,-1) translate(0,13.69926 )"> 
<g stroke="#000" fill="#000">
 <g stroke-width="0.4">
 <g stroke="#000">
 <g fill="#000">
 <g stroke="#000">
 <g fill="#000">
 <path d=" M 1.5 0.0 C 1.5 0.82843 0.82843 1.5 0.0 1.5 C -0.82843 1.5 -1.5 0.82843 -1.5 0.0 C -1.5 -0.82843 -0.82843 -1.5 0.0 -1.5 C 0.82843 -1.5 1.5 -0.82843 1.5 0.0 Z M 0.0 0.0  " />
 </g>
 </g>
 <g fill="#000">
 <text style="stroke:none" transform="scale(1,-1) translate(0.0,0)" text-anchor="middle"  font-size="10"> 
<g fill="#000">
 <g stroke="none"> </g> </g>
 </text> 
</g>
 </g>
 </g>
 <g stroke="#000">
 <g fill="#000">
 <g stroke="#000">
 <g fill="#000">
 <path d=" M 58.40549 0.0 C 58.40549 0.82843 57.73392 1.5 56.90549 1.5 C 56.07706 1.5 55.40549 0.82843 55.40549 0.0 C 55.40549 -0.82843 56.07706 -1.5 56.90549 -1.5 C 57.73392 -1.5 58.40549 -0.82843 58.40549 0.0 Z M 56.90549 0.0  " />
 </g>
 </g>
 <g transform="translate(56.90549,0.0)">
 <g fill="#000">
 <text style="stroke:none" transform="scale(1,-1) translate(0.0,0)" text-anchor="middle"  font-size="10"> 
<g fill="#000">
 <g stroke="none"> </g> </g>
 </text> 
</g>
 </g>
 </g>
 </g>
 <g stroke="#000">
 <g fill="#000">
 <g stroke="#f99" fill="#f99">
 <g stroke="#000">
 <g fill="#000">
 <g stroke="#f99" fill="#f99">
 <path d=" M 58.40549 42.67911 C 58.40549 43.50754 57.73392 44.17911 56.90549 44.17911 C 56.07706 44.17911 55.40549 43.50754 55.40549 42.67911 C 55.40549 41.85068 56.07706 41.17911 56.90549 41.17911 C 57.73392 41.17911 58.40549 41.85068 58.40549 42.67911 Z M 56.90549 42.67911  " />
 </g>
 </g>
 </g>
 <g transform="translate(56.90549,42.67911)">
 <g fill="#f99">
 <text style="stroke:none" transform="scale(1,-1) translate(0.0,0)" text-anchor="middle"  font-size="10"> 
<g fill="#f99">
 <g stroke="none"> </g> </g>
 </text> 
</g>
 </g>
 </g>
 </g>
 </g>
 <g stroke-width="0.6">
 <g stroke="#000" fill="#000">
 <g stroke-dasharray="none" stroke-dashoffset="0.0">
 <path d=" M 0.0 0.0 M 0.0 0.0 L 56.90549 0.0  " fill="none"/>
 </g>
 </g>
 </g>
 <g stroke-width="0.6">
 <g stroke="#000" fill="#000">
 <g stroke-dasharray="none" stroke-dashoffset="0.0">
 <path d=" M 56.90549 0.0 M 56.90549 0.0 L 56.90549 42.67911  " fill="none"/>
 </g>
 </g>
 </g>
 <g stroke-width="0.6">
 <g stroke="#000" fill="#000">
 <g stroke-dasharray="none" stroke-dashoffset="0.0">
 <path d=" M 56.90549 42.67911 M 56.90549 42.67911 L 0.0 0.0  " fill="none"/>
 </g>
 </g>
 </g>
 <g stroke="#000" fill="#000">
 <g stroke="#000" fill="#000">
 </g>
 <g transform="translate(3.53297,-10.36629)">
 <g fill="#000">
 <text style="stroke:none" transform="scale(1,-1) translate(3.75,0)" text-anchor="middle"  font-size="10"> 
<g fill="#000">
 <g stroke="none"> <tspan font-family="cmmi" font-size="10">A</tspan></g> </g>
 </text> 
</g>
 </g>
 </g>
 <g stroke="#000" fill="#000">
 <g stroke="#000" fill="#000">
 </g>
 <g transform="translate(60.43846,-10.36629)">
 <g fill="#000">
 <text style="stroke:none" transform="scale(1,-1) translate(4.0434,0)" text-anchor="middle"  font-size="10"> 
<g fill="#000">
 <g stroke="none"> <tspan font-family="cmmi" font-size="10">B</tspan></g> </g>
 </text> 
</g>
 </g>
 </g>
 <g stroke="#000" fill="#000">
 <g stroke="#000" fill="#000">
 </g>
 <g transform="translate(53.00098,46.21208)">
 <g fill="#000">
 <text style="stroke:none" transform="scale(1,-1) translate(3.90451,0)" text-anchor="middle"  font-size="10"> 
<g fill="#000">
 <g stroke="none"> <tspan font-family="cmmi" font-size="10">P</tspan></g> </g>
 </text> 
</g>
 </g>
 </g>
 <g stroke="#00f" fill="#00f">
 <path d=" M 56.90549 0.0 L 56.90549 7.11317 L 49.79231 7.11317 L 49.79231 0.0 L 56.90549 0.0  " fill="none"/>
 </g>
 <g stroke="#000" fill="#000">
 <g stroke="#000" fill="#000">
 </g>
 <g transform="translate(25.95274,-9.9774)">
 <g fill="#000">
 <text style="stroke:none" transform="scale(1,-1) translate(2.5,0)" text-anchor="middle"  font-size="10"> 
<g fill="#000">
 <g stroke="none"> 4</g> </g>
 </text> 
</g>
 </g>
 </g>
 <g stroke="#000" fill="#000">
 <g stroke="#000" fill="#000">
 </g>
 <g transform="translate(60.43846,18.11734)">
 <g fill="#000">
 <text style="stroke:none" transform="scale(1,-1) translate(2.5,0)" text-anchor="middle"  font-size="10"> 
<g fill="#000">
 <g stroke="none"> 3</g> </g>
 </text> 
</g>
 </g>
 </g>
 <g stroke="#000" fill="#000">
 <g stroke="#000" fill="#000">
 </g>
 <g transform="translate(25.95274,24.87253)">
 <g fill="#000">
 <text style="stroke:none" transform="scale(1,-1) translate(2.5,0)" text-anchor="middle"  font-size="10"> 
<g fill="#000">
 <g stroke="none"> 5</g> </g>
 </text> 
</g>
 </g>
 </g>
 </g>
 </g>
 
              </g> 
</svg> 
