<?xml version="1.0" encoding="iso-8859-1" standalone="no"?> 
<?xml-stylesheet href="SVGOut.css" type="text/css"?> 
<svg xmlns="http://www.w3.org/2000/svg" xmlns:xlink="http://www.w3.org/1999/xlink" width="102.01097pt" height="100.7575pt" viewBox="-1.7 -42.15202 102.01097 100.7575 "> 
<g transform="translate(0,58.60548 ) scale(1,-1) translate(0,42.15202 )"> 
<g stroke="#000" fill="#000">
 <g stroke-width="0.4">
 <g stroke="#000">
 <g fill="#000">
 <g stroke="#000" fill="#000">
 <g stroke="#000">
 <g fill="#000">
 <g stroke="#000" fill="#000">
 <path d=" M 1.5 0.0 C 1.5 0.82843 0.82843 1.5 0.0 1.5 C -0.82843 1.5 -1.5 0.82843 -1.5 0.0 C -1.5 -0.82843 -0.82843 -1.5 0.0 -1.5 C 0.82843 -1.5 1.5 -0.82843 1.5 0.0 Z M 0.0 0.0  " />
 </g>
 </g>
 </g>
 <g fill="#000">
 <text style="stroke:none" transform="scale(1,-1) translate(0.0,0)" text-anchor="middle"  font-size="10"> 
<g fill="#000">
 <g stroke="none"> </g> </g>
 </text> 
</g>
 </g>
 </g>
 </g>
 <g stroke="#000">
 <g fill="#000">
 <g stroke="#000" fill="#000">
 <g stroke="#000">
 <g fill="#000">
 <g stroke="#000" fill="#000">
 <path d=" M 86.85823 28.45274 C 86.85823 29.28117 86.18666 29.95274 85.35823 29.95274 C 84.5298 29.95274 83.85823 29.28117 83.85823 28.45274 C 83.85823 27.62431 84.5298 26.95274 85.35823 26.95274 C 86.18666 26.95274 86.85823 27.62431 86.85823 28.45274 Z M 85.35823 28.45274  " />
 </g>
 </g>
 </g>
 <g transform="translate(85.35823,28.45274)">
 <g fill="#000">
 <text style="stroke:none" transform="scale(1,-1) translate(0.0,0)" text-anchor="middle"  font-size="10"> 
<g fill="#000">
 <g stroke="none"> </g> </g>
 </text> 
</g>
 </g>
 </g>
 </g>
 </g>
 <g stroke="#000">
 <g fill="#000">
 <g stroke="#000" fill="#000">
 <g stroke="#000">
 <g fill="#000">
 <g stroke="#000" fill="#000">
 <path d=" M 29.95274 56.90549 C 29.95274 57.73392 29.28117 58.40549 28.45274 58.40549 C 27.62431 58.40549 26.95274 57.73392 26.95274 56.90549 C 26.95274 56.07706 27.62431 55.40549 28.45274 55.40549 C 29.28117 55.40549 29.95274 56.07706 29.95274 56.90549 Z M 28.45274 56.90549  " />
 </g>
 </g>
 </g>
 <g transform="translate(28.45274,56.90549)">
 <g fill="#000">
 <text style="stroke:none" transform="scale(1,-1) translate(0.0,0)" text-anchor="middle"  font-size="10"> 
<g fill="#000">
 <g stroke="none"> </g> </g>
 </text> 
</g>
 </g>
 </g>
 </g>
 </g>
 <g stroke="#000">
 <g fill="#000">
 <g stroke="#f00" fill="#f00">
 <g stroke="#000">
 <g fill="#000">
 <g stroke="#f00" fill="#f00">
 <path d=" M 58.40547 -28.45276 C 58.40547 -27.62433 57.7339 -26.95276 56.90547 -26.95276 C 56.07704 -26.95276 55.40547 -27.62433 55.40547 -28.45276 C 55.40547 -29.28119 56.07704 -29.95276 56.90547 -29.95276 C 57.7339 -29.95276 58.40547 -29.28119 58.40547 -28.45276 Z M 56.90547 -28.45276  " />
 </g>
 </g>
 </g>
 <g transform="translate(56.90547,-28.45276)">
 <g fill="#f00">
 <text style="stroke:none" transform="scale(1,-1) translate(0.0,0)" text-anchor="middle"  font-size="10"> 
<g fill="#f00">
 <g stroke="none"> </g> </g>
 </text> 
</g>
 </g>
 </g>
 </g>
 </g>
 <g stroke="#000" fill="#000">
 <g stroke="#000" fill="#000">
 <g stroke="#000" fill="#000">
 <g stroke="#000" fill="#000">
 </g>
 </g>
 <g transform="translate(3.53297,-10.36629)">
 <g fill="#000">
 <text style="stroke:none" transform="scale(1,-1) translate(3.75,0)" text-anchor="middle"  font-size="10"> 
<g fill="#000">
 <g stroke="none"> <tspan font-family="cmmi" font-size="10">A</tspan></g> </g>
 </text> 
</g>
 </g>
 </g>
 </g>
 <g stroke="#000" fill="#000">
 <g stroke="#000" fill="#000">
 <g stroke="#000" fill="#000">
 <g stroke="#000" fill="#000">
 </g>
 </g>
 <g transform="translate(88.8912,18.08646)">
 <g fill="#000">
 <text style="stroke:none" transform="scale(1,-1) translate(4.0434,0)" text-anchor="middle"  font-size="10"> 
<g fill="#000">
 <g stroke="none"> <tspan font-family="cmmi" font-size="10">B</tspan></g> </g>
 </text> 
</g>
 </g>
 </g>
 </g>
 <g stroke="#000" fill="#000">
 <g stroke="#000" fill="#000">
 <g stroke="#000" fill="#000">
 <g stroke="#000" fill="#000">
 </g>
 </g>
 <g transform="translate(31.98572,46.5392)">
 <g fill="#000">
 <text style="stroke:none" transform="scale(1,-1) translate(3.93124,0)" text-anchor="middle"  font-size="10"> 
<g fill="#000">
 <g stroke="none"> <tspan font-family="cmmi" font-size="10">C</tspan></g> </g>
 </text> 
</g>
 </g>
 </g>
 </g>
 <g stroke="#000" fill="#000">
 <g stroke="#f00" fill="#f00">
 <g stroke="#000" fill="#000">
 <g stroke="#f00" fill="#f00">
 </g>
 </g>
 <g transform="translate(60.43845,-38.81905)">
 <g fill="#f00">
 <text style="stroke:none" transform="scale(1,-1) translate(4.27847,0)" text-anchor="middle"  font-size="10"> 
<g fill="#f00">
 <g stroke="none"> <tspan font-family="cmmi" font-size="10">D</tspan></g> </g>
 </text> 
</g>
 </g>
 </g>
 </g>
 <g stroke-width="0.6">
 <g stroke="#000" fill="#000">
 <g stroke-dasharray="none" stroke-dashoffset="0.0">
 <path d=" M 0.0 0.0 M 0.0 0.0 L 85.35823 28.45274  " fill="none"/>
 </g>
 </g>
 </g>
 <g stroke-width="0.6">
 <g stroke="#000" fill="#000">
 <g stroke-dasharray="none" stroke-dashoffset="0.0">
 <g stroke-dasharray="3.0,3.0" stroke-dashoffset="0.0">
 <path d=" M 28.45274 56.90549 M 28.45274 56.90549 L 56.90547 -28.45276  " fill="none"/>
 </g>
 </g>
 </g>
 </g>
 </g>
 </g>
 
                   </g> 
</svg> 
