<?xml version="1.0" encoding="iso-8859-1" standalone="no"?> 
<?xml-stylesheet href="SVGOut.css" type="text/css"?> 
<svg xmlns="http://www.w3.org/2000/svg" xmlns:xlink="http://www.w3.org/1999/xlink" width="73.55823pt" height="60.25272pt" viewBox="-1.7 -13.69926 73.55823 60.25272 "> 
<g transform="translate(0, 46.55345 ) scale(1,-1) translate(0,13.69926 )"> 
 <g stroke="#000" fill="#000">
 <g stroke-width="0.4">
 <g stroke="#000">
 <g fill="#000">
 <g stroke="#000">
 <g fill="#000">
 <path d=" M 1.5 0.0 C 1.5 0.82843 0.82843 1.5 0.0 1.5 C -0.82843 1.5 -1.5 0.82843 -1.5 0.0 C -1.5 -0.82843 -0.82843 -1.5 0.0 -1.5 C 0.82843 -1.5 1.5 -0.82843 1.5 0.0 Z M 0.0 0.0  " />
 </g>
 </g>
 <g fill="#000">
 <text style="stroke:none" transform="scale(1,-1) translate(0.0,0)" text-anchor="middle"  font-size="10"> 
<g fill="#000">
 <g stroke="none"> </g> </g>
 </text> 
</g>
 </g>
 </g>
 <g stroke="#000">
 <g fill="#000">
 <g stroke="#000">
 <g fill="#000">
 <path d=" M 58.40549 0.0 C 58.40549 0.82843 57.73392 1.5 56.90549 1.5 C 56.07706 1.5 55.40549 0.82843 55.40549 0.0 C 55.40549 -0.82843 56.07706 -1.5 56.90549 -1.5 C 57.73392 -1.5 58.40549 -0.82843 58.40549 0.0 Z M 56.90549 0.0  " />
 </g>
 </g>
 <g transform="translate(56.90549,0.0)">
 <g fill="#000">
 <text style="stroke:none" transform="scale(1,-1) translate(0.0,0)" text-anchor="middle"  font-size="10"> 
<g fill="#000">
 <g stroke="none"> </g> </g>
 </text> 
</g>
 </g>
 </g>
 </g>
 <g stroke="#000">
 <g fill="#000">
 <g stroke="#ff8080" fill="#ff8080">
 <g stroke="#000">
 <g fill="#000">
 <g stroke="#ff8080" fill="#ff8080">
 <path d=" M 58.40549 32.85419 C 58.40549 33.68262 57.73392 34.35419 56.90549 34.35419 C 56.07706 34.35419 55.40549 33.68262 55.40549 32.85419 C 55.40549 32.02576 56.07706 31.35419 56.90549 31.35419 C 57.73392 31.35419 58.40549 32.02576 58.40549 32.85419 Z M 56.90549 32.85419  " />
 </g>
 </g>
 </g>
 <g transform="translate(56.90549,32.85419)">
 <g fill="#ff8080">
 <text style="stroke:none" transform="scale(1,-1) translate(0.0,0)" text-anchor="middle"  font-size="10"> 
<g fill="#ff8080">
 <g stroke="none"> </g> </g>
 </text> 
</g>
 </g>
 </g>
 </g>
 </g>
 <g stroke-width="0.6">
 <g stroke="#000" fill="#000">
 <g stroke-dasharray="none" stroke-dashoffset="0.0">
 <path d=" M 0.0 0.0 M 0.0 0.0 L 56.90549 0.0  " fill="none"/>
 </g>
 </g>
 </g>
 <g stroke-width="0.6">
 <g stroke="#000" fill="#000">
 <g stroke-dasharray="none" stroke-dashoffset="0.0">
 <path d=" M 56.90549 0.0 M 56.90549 0.0 L 56.90549 32.85419  " fill="none"/>
 </g>
 </g>
 </g>
 <g stroke-width="0.6">
 <g stroke="#000" fill="#000">
 <g stroke-dasharray="none" stroke-dashoffset="0.0">
 <path d=" M 56.90549 32.85419 M 56.90549 32.85419 L 0.0 0.0  " fill="none"/>
 </g>
 </g>
 </g>
 <g stroke="#000" fill="#000">
 <g stroke="#000" fill="#000">
 </g>
 <g transform="translate(3.53297,-10.36629)">
 <g fill="#000">
 <text style="stroke:none" transform="scale(1,-1) translate(3.75,0)" text-anchor="middle"  font-size="10"> 
<g fill="#000">
 <g stroke="none"> <tspan font-family="cmmi" font-size="10">A</tspan></g> </g>
 </text> 
</g>
 </g>
 </g>
 <g stroke="#000" fill="#000">
 <g stroke="#000" fill="#000">
 </g>
 <g transform="translate(60.43846,-10.36629)">
 <g fill="#000">
 <text style="stroke:none" transform="scale(1,-1) translate(4.0434,0)" text-anchor="middle"  font-size="10"> 
<g fill="#000">
 <g stroke="none"> <tspan font-family="cmmi" font-size="10">B</tspan></g> </g>
 </text> 
</g>
 </g>
 </g>
 <g stroke="#000" fill="#000">
 <g stroke="#000" fill="#000">
 </g>
 <g transform="translate(53.55133,36.38716)">
 <g fill="#000">
 <text style="stroke:none" transform="scale(1,-1) translate(3.35416,0)" text-anchor="middle"  font-size="10"> 
<g fill="#000">
 <g stroke="none"> <tspan font-family="cmmi" font-size="10">S</tspan> </g> </g>
 </text> 
</g>
 </g>
 </g>
 <g stroke="#00f" fill="#00f">
 <path d=" M 56.90549 0.0 L 56.90549 7.11317 L 49.79231 7.11317 L 49.79231 0.0 L 56.90549 0.0  " fill="none"/>
 </g>
 <g stroke="#00f" fill="#00f">
 <path d=" M 14.22636 0.0 C 14.22636 2.4966 13.56847 4.95088 12.3202 7.11296  " fill="none"/>
 </g>
 <g stroke="#00f" fill="#00f">
 <path d=" M 44.58528 25.74123 C 47.12619 21.34016 51.8235 18.62782 56.90549 18.62782  " fill="none"/>
 </g>
 <g transform="translate(20.1842,3.92075)">
 <g fill="#000">
 <text style="stroke:none" transform="scale(1,-1) translate(7.29863,0)" text-anchor="middle"  font-size="10"> 
<g fill="#000">
 <g stroke="none"> 30<tspan baseline-shift="sub"><tspan font-family="cmsy" font-size="7">&#x2218;</tspan></tspan></g> </g>
 </text> 
</g>
 </g>
 </g>
 </g>
 
            </g> 
</svg> 
