<?xml version="1.0" encoding="iso-8859-1" standalone="no"?> 
<?xml-stylesheet href="SVGOut.css" type="text/css"?> 
<svg xmlns="http://www.w3.org/2000/svg" xmlns:xlink="http://www.w3.org/1999/xlink" width="102.01097pt" height="72.30475pt" viewBox="-1.7 -13.69926 102.01097 72.30475 "> 
<g transform="translate(0,58.60548 ) scale(1,-1) translate(0,13.69926 )"> 
<g stroke="#000" fill="#000">
 <g stroke-width="0.4">
 <g stroke="#000">
 <g fill="#000">
 <g stroke="#000" fill="#000">
 <g stroke="#000">
 <g fill="#000">
 <g stroke="#000" fill="#000">
 <path d=" M 1.5 0.0 C 1.5 0.82843 0.82843 1.5 0.0 1.5 C -0.82843 1.5 -1.5 0.82843 -1.5 0.0 C -1.5 -0.82843 -0.82843 -1.5 0.0 -1.5 C 0.82843 -1.5 1.5 -0.82843 1.5 0.0 Z M 0.0 0.0  " />
 </g>
 </g>
 </g>
 <g fill="#000">
 <text style="stroke:none" transform="scale(1,-1) translate(0.0,0)" text-anchor="middle"  font-size="10"> 
<g fill="#000">
 <g stroke="none"> </g> </g>
 </text> 
</g>
 </g>
 </g>
 </g>
 <g stroke="#000">
 <g fill="#000">
 <g stroke="#000" fill="#000">
 <g stroke="#000">
 <g fill="#000">
 <g stroke="#000" fill="#000">
 <path d=" M 86.85823 28.45274 C 86.85823 29.28117 86.18666 29.95274 85.35823 29.95274 C 84.5298 29.95274 83.85823 29.28117 83.85823 28.45274 C 83.85823 27.62431 84.5298 26.95274 85.35823 26.95274 C 86.18666 26.95274 86.85823 27.62431 86.85823 28.45274 Z M 85.35823 28.45274  " />
 </g>
 </g>
 </g>
 <g transform="translate(85.35823,28.45274)">
 <g fill="#000">
 <text style="stroke:none" transform="scale(1,-1) translate(0.0,0)" text-anchor="middle"  font-size="10"> 
<g fill="#000">
 <g stroke="none"> </g> </g>
 </text> 
</g>
 </g>
 </g>
 </g>
 </g>
 <g stroke="#000">
 <g fill="#000">
 <g stroke="#000" fill="#000">
 <g stroke="#000">
 <g fill="#000">
 <g stroke="#000" fill="#000">
 <path d=" M 86.85823 56.90549 C 86.85823 57.73392 86.18666 58.40549 85.35823 58.40549 C 84.5298 58.40549 83.85823 57.73392 83.85823 56.90549 C 83.85823 56.07706 84.5298 55.40549 85.35823 55.40549 C 86.18666 55.40549 86.85823 56.07706 86.85823 56.90549 Z M 85.35823 56.90549  " />
 </g>
 </g>
 </g>
 <g transform="translate(85.35823,56.90549)">
 <g fill="#000">
 <text style="stroke:none" transform="scale(1,-1) translate(0.0,0)" text-anchor="middle"  font-size="10"> 
<g fill="#000">
 <g stroke="none"> </g> </g>
 </text> 
</g>
 </g>
 </g>
 </g>
 </g>
 <g stroke="#000">
 <g fill="#000">
 <g stroke="#f00" fill="#f00">
 <g stroke="#000">
 <g fill="#000">
 <g stroke="#f00" fill="#f00">
 <path d=" M 1.5 28.45274 C 1.5 29.28117 0.82843 29.95274 0.0 29.95274 C -0.82843 29.95274 -1.5 29.28117 -1.5 28.45274 C -1.5 27.62431 -0.82843 26.95274 0.0 26.95274 C 0.82843 26.95274 1.5 27.62431 1.5 28.45274 Z M 0.0 28.45274  " />
 </g>
 </g>
 </g>
 <g transform="translate(0.0,28.45274)">
 <g fill="#f00">
 <text style="stroke:none" transform="scale(1,-1) translate(0.0,0)" text-anchor="middle"  font-size="10"> 
<g fill="#f00">
 <g stroke="none"> </g> </g>
 </text> 
</g>
 </g>
 </g>
 </g>
 </g>
 <g stroke="#000" fill="#000">
 <g stroke="#000" fill="#000">
 <g stroke="#000" fill="#000">
 <g stroke="#000" fill="#000">
 </g>
 </g>
 <g transform="translate(3.53297,-10.36629)">
 <g fill="#000">
 <text style="stroke:none" transform="scale(1,-1) translate(3.75,0)" text-anchor="middle"  font-size="10"> 
<g fill="#000">
 <g stroke="none"> <tspan font-family="cmmi" font-size="10">A</tspan></g> </g>
 </text> 
</g>
 </g>
 </g>
 </g>
 <g stroke="#000" fill="#000">
 <g stroke="#000" fill="#000">
 <g stroke="#000" fill="#000">
 <g stroke="#000" fill="#000">
 </g>
 </g>
 <g transform="translate(88.8912,18.08646)">
 <g fill="#000">
 <text style="stroke:none" transform="scale(1,-1) translate(4.0434,0)" text-anchor="middle"  font-size="10"> 
<g fill="#000">
 <g stroke="none"> <tspan font-family="cmmi" font-size="10">B</tspan></g> </g>
 </text> 
</g>
 </g>
 </g>
 </g>
 <g stroke="#000" fill="#000">
 <g stroke="#000" fill="#000">
 <g stroke="#000" fill="#000">
 <g stroke="#000" fill="#000">
 </g>
 </g>
 <g transform="translate(88.8912,46.5392)">
 <g fill="#000">
 <text style="stroke:none" transform="scale(1,-1) translate(3.93124,0)" text-anchor="middle"  font-size="10"> 
<g fill="#000">
 <g stroke="none"> <tspan font-family="cmmi" font-size="10">C</tspan></g> </g>
 </text> 
</g>
 </g>
 </g>
 </g>
 <g stroke="#000" fill="#000">
 <g stroke="#f00" fill="#f00">
 <g stroke="#000" fill="#000">
 <g stroke="#f00" fill="#f00">
 </g>
 </g>
 <g transform="translate(3.53297,18.08646)">
 <g fill="#f00">
 <text style="stroke:none" transform="scale(1,-1) translate(4.27847,0)" text-anchor="middle"  font-size="10"> 
<g fill="#f00">
 <g stroke="none"> <tspan font-family="cmmi" font-size="10">D</tspan></g> </g>
 </text> 
</g>
 </g>
 </g>
 </g>
 <g stroke-width="0.6">
 <g stroke="#000" fill="#000">
 <g stroke-dasharray="none" stroke-dashoffset="0.0">
 <g stroke="#ff8000" fill="#ff8000">
 <path d=" M 0.0 0.0 M 0.56918 0.18971 L 85.35823 28.45274  " fill="none"/>
 <g transform="matrix(-0.94864,-0.31621,0.31621,-0.94864,0.28459,0.09486)">
 <g stroke-dasharray="none" stroke-dashoffset="0.0">
 <g stroke-linecap="round">
 <g stroke-linejoin="round">
 <path d=" M -2.32 2.76129 C -1.89615 1.10449 -0.95163 0.32214 0.0 0.0 C -0.95163 -0.32214 -1.89615 -1.10449 -2.32 -2.76129  " fill="none"/>
 </g>
 </g>
 </g>
  </g>
 </g>
 </g>
 </g>
 </g>
 <g stroke-width="0.6">
 <g stroke="#000" fill="#000">
 <g stroke-dasharray="none" stroke-dashoffset="0.0">
 <g stroke="#ff8000" fill="#ff8000">
 <path d=" M 0.0 28.45274 M 0.56918 28.64246 L 85.35823 56.90549  " fill="none"/>
 <g transform="matrix(-0.94864,-0.31621,0.31621,-0.94864,0.28459,28.5476)">
 <g stroke-dasharray="none" stroke-dashoffset="0.0">
 <g stroke-linecap="round">
 <g stroke-linejoin="round">
 <path d=" M -2.32 2.76129 C -1.89615 1.10449 -0.95163 0.32214 0.0 0.0 C -0.95163 -0.32214 -1.89615 -1.10449 -2.32 -2.76129  " fill="none"/>
 </g>
 </g>
 </g>
  </g>
 </g>
 </g>
 </g>
 </g>
 </g>
 </g>
 
                   </g> 
</svg> 
